<svg width="123" height="108" viewBox="0 0 123 108" fill="none" xmlns="http://www.w3.org/2000/svg">
<g clip-path="url(#clip0_520_57)">
<path fill-rule="evenodd" clip-rule="evenodd" d="M21.1302 83.8605H101.38L113.92 49.1305C114.57 49.3405 115.27 49.4505 115.99 49.4505C119.79 49.4505 122.88 46.3705 122.88 42.5605C122.88 38.7605 119.8 35.6705 115.99 35.6705C112.19 35.6705 109.1 38.7505 109.1 42.5605C109.1 44.0605 109.58 45.4405 110.39 46.5705L103.27 52.4305C93.3002 60.6305 87.0502 56.8305 89.0002 44.0905L90.1002 36.9205C90.4802 36.9905 90.8802 37.0205 91.2802 37.0205C95.0802 37.0205 98.1702 33.9405 98.1702 30.1305C98.1702 26.3305 95.0902 23.2405 91.2802 23.2405C87.4802 23.2405 84.3902 26.3205 84.3902 30.1305C84.3902 32.3005 85.4002 34.2405 86.9702 35.5005L85.2602 38.2005C76.8802 50.7805 70.7002 45.9605 68.2302 33.5305L63.8202 13.2205C66.2902 12.1705 68.0302 9.73047 68.0302 6.87047C68.0302 3.07047 64.9502 -0.0195312 61.1402 -0.0195312C57.3402 -0.0195312 54.2502 3.06047 54.2502 6.87047C54.2502 10.0505 56.4002 12.7205 59.3202 13.5205L56.4602 25.1005C53.9802 35.7105 51.0102 56.8505 37.5802 38.8305L35.3902 35.8505C37.1202 34.6005 38.2502 32.5605 38.2502 30.2605C38.2502 26.4605 35.1702 23.3705 31.3602 23.3705C27.5602 23.3705 24.4702 26.4505 24.4702 30.2605C24.4702 34.0605 27.5502 37.1505 31.3602 37.1505C31.8902 37.1505 32.4102 37.0905 32.9102 36.9705L33.3702 41.6505C34.2702 48.0405 35.4202 56.6905 28.0802 56.2805C24.4402 56.0805 23.0702 54.8405 20.2902 52.8605L12.3502 47.2305C13.2402 46.0705 13.7702 44.6205 13.7702 43.0405C13.7702 39.2405 10.6902 36.1505 6.88023 36.1505C3.08023 36.1505 -0.00976562 39.2305 -0.00976562 43.0405C-0.00976562 46.8505 3.07023 49.9305 6.88023 49.9305C7.78023 49.9305 8.63023 49.7605 9.42023 49.4505L21.1302 83.8605ZM21.0702 93.4705H101.58V107.76H21.0702V93.4705Z" fill="#FFC803"/>
</g>
<defs>
<clipPath id="clip0_520_57">
<rect width="122.88" height="107.76" fill="white"/>
</clipPath>
</defs>
</svg>
