<svg width="504" height="506" viewBox="0 0 504 506" fill="none" xmlns="http://www.w3.org/2000/svg">
<path d="M159.255 18.1046C222.542 -7.11941 296.261 -5.37462 357.86 23.9223C340.308 21.2556 322.453 23.266 305.078 26.2035C257.891 35.115 213.047 57.3181 177.995 90.3025C144.386 123.339 120.834 167.172 114.183 214.068C109.781 247.297 113.86 282.151 128.771 312.396C144.136 344.131 171.183 370.157 203.782 383.589C235.193 396.881 271.63 396.735 303.448 384.87C351.188 367.349 385.49 320.042 389.412 269.5C391.88 236.375 383.823 201.136 361.568 175.73C340.323 150.86 309.25 137.162 278.157 129.365C276.49 98.6983 290.938 68.4014 313.849 48.4587C326.573 36.9848 342.365 29.6723 358.693 24.99L359.933 24.5629C406.677 46.9796 446.396 83.9483 471.703 129.334C493.386 167.974 504.693 212.5 503.573 256.855C503.36 314.209 481.922 370.995 445.172 414.849C410.422 456.672 361.818 486.756 308.844 498.802C255.729 511.058 198.584 505.771 148.875 483.198C100.235 461.474 59.0263 423.709 32.8127 377.256C11.0055 338.651 -0.53101 294.141 0.427324 249.735C0.531492 194.407 20.1773 139.506 54.4794 96.24C81.8804 61.6931 118.229 34.2243 159.255 18.1046Z" fill="#E60000"/>
</svg>
