<svg fill="none" viewBox="0 0 474 293"><g clip-path="url(#a)"><path fill="#0B5100" d="M150.768 180.051v-8.476l21.253-33.484h7.309v11.733h-4.326l-13.398 21.204v.397h30.202v8.626h-41.04ZM175.203 189v-11.534l.199-3.754v-35.621h10.092V189h-10.291Zm55.288 1.119c-4.276-.017-7.955-1.069-11.037-3.157-3.066-2.088-5.428-5.113-7.085-9.074-1.64-3.96-2.452-8.725-2.436-14.293 0-5.551.82-10.283 2.461-14.194 1.657-3.911 4.019-6.885 7.085-8.924 3.082-2.055 6.753-3.082 11.012-3.082s7.921 1.027 10.987 3.082c3.082 2.055 5.452 5.038 7.109 8.949 1.657 3.895 2.478 8.618 2.461 14.169 0 5.585-.828 10.358-2.486 14.318-1.64 3.961-3.993 6.985-7.059 9.074-3.066 2.088-6.737 3.132-11.012 3.132Zm0-8.924c2.916 0 5.245-1.467 6.985-4.4 1.74-2.933 2.602-7.333 2.585-13.2 0-3.861-.398-7.076-1.193-9.645-.779-2.568-1.889-4.499-3.331-5.792-1.425-1.292-3.107-1.939-5.046-1.939-2.9 0-5.22 1.451-6.961 4.351-1.74 2.9-2.618 7.242-2.634 13.025 0 3.911.389 7.176 1.168 9.794.795 2.602 1.914 4.557 3.356 5.867 1.441 1.292 3.132 1.939 5.071 1.939Zm39.011-1.144v-8.476l21.254-33.484h7.308v11.733h-4.325l-13.398 21.204v.397h30.202v8.626h-41.041ZM293.938 189v-11.534l.199-3.754v-35.621h10.092V189h-10.291ZM48.9193 250v-36.364h14.3466c2.758 0 5.1077.527 7.049 1.581 1.9413 1.041 3.4209 2.491 4.4389 4.35 1.0298 1.846 1.5448 3.977 1.5448 6.392 0 2.415-.5209 4.545-1.5625 6.392-1.0417 1.846-2.5509 3.285-4.5277 4.314-1.965 1.03-4.3443 1.545-7.1378 1.545h-9.1442v-6.161h7.9013c1.4796 0 2.6988-.254 3.6577-.763.9706-.521 1.6927-1.237 2.1661-2.149.4854-.923.728-1.983.728-3.178 0-1.208-.2426-2.261-.728-3.161-.4734-.911-1.1955-1.615-2.1661-2.113-.9707-.509-2.2018-.763-3.6932-.763h-5.1847V250h-7.6882Zm39.2756.515c-1.7401 0-3.2908-.302-4.652-.906-1.3613-.615-2.4385-1.521-3.2316-2.716-.7812-1.208-1.1718-2.711-1.1718-4.51 0-1.515.2781-2.788.8345-3.818.5563-1.029 1.3139-1.858 2.2727-2.485.9588-.628 2.0478-1.101 3.2671-1.421 1.231-.32 2.5213-.544 3.8707-.675 1.5862-.165 2.8646-.319 3.8352-.461.9707-.154 1.675-.379 2.113-.675.4379-.296.6569-.734.6569-1.314v-.106c0-1.125-.3551-1.995-1.0653-2.611-.6984-.615-1.6927-.923-2.983-.923-1.3613 0-2.4443.302-3.2493.906-.8049.592-1.3376 1.337-1.598 2.237l-6.9957-.568c.3551-1.657 1.0535-3.09 2.0951-4.297 1.0417-1.219 2.3852-2.154 4.0306-2.806 1.6572-.662 3.5748-.994 5.7528-.994 1.5152 0 2.9652.178 4.3502.533 1.3968.355 2.6337.905 3.711 1.651 1.089.746 1.947 1.705 2.574 2.877.628 1.16.942 2.55.942 4.172V250h-7.1738v-3.782h-.213c-.438.852-1.0239 1.604-1.7578 2.255-.7339.639-1.6158 1.142-2.6456 1.509-1.0299.355-2.2195.533-3.5689.533Zm2.1662-5.22c1.1127 0 2.0951-.219 2.9474-.657.8523-.45 1.5211-1.054 2.0064-1.811.4853-.758.728-1.616.728-2.575v-2.894c-.2368.154-.5623.296-.9766.426-.4024.118-.8582.231-1.3672.337-.509.095-1.018.184-1.527.267-.509.071-.9706.136-1.3849.195-.8878.13-1.6631.337-2.326.622-.6629.284-1.1778.668-1.5447 1.154-.367.473-.5505 1.065-.5505 1.775 0 1.03.3729 1.817 1.1186 2.362.7576.532 1.7164.799 2.8765.799Zm31.3479 15.5c-2.451 0-4.552-.337-6.304-1.012-1.74-.662-3.125-1.568-4.154-2.716-1.03-1.148-1.699-2.439-2.007-3.871l6.996-.941c.213.544.55 1.053 1.012 1.527.462.473 1.071.852 1.829 1.136.769.296 1.704.444 2.805.444 1.646 0 3.001-.402 4.066-1.207 1.078-.793 1.616-2.125 1.616-3.995v-4.99h-.32c-.331.758-.828 1.474-1.491 2.149-.663.675-1.515 1.225-2.557 1.651-1.041.426-2.284.639-3.728.639-2.048 0-3.913-.473-5.594-1.42-1.669-.959-3-2.421-3.995-4.386-.982-1.977-1.473-4.474-1.473-7.493 0-3.089.503-5.67 1.509-7.741 1.006-2.072 2.344-3.622 4.013-4.652 1.681-1.03 3.521-1.545 5.522-1.545 1.527 0 2.805.261 3.835.781 1.03.509 1.858 1.149 2.486 1.918.639.758 1.13 1.503 1.473 2.237h.285v-4.581h7.51v27.539c0 2.32-.568 4.262-1.704 5.824-1.137 1.563-2.711 2.735-4.723 3.516-2.001.793-4.303 1.189-6.907 1.189Zm.16-16.867c1.219 0 2.249-.302 3.089-.906.852-.616 1.503-1.491 1.953-2.628.462-1.148.693-2.521.693-4.119 0-1.598-.225-2.983-.675-4.155-.45-1.184-1.101-2.101-1.953-2.752-.853-.651-1.888-.977-3.107-.977-1.243 0-2.291.338-3.143 1.012-.853.663-1.498 1.587-1.936 2.77-.438 1.184-.657 2.551-.657 4.102 0 1.574.219 2.935.657 4.084.45 1.136 1.095 2.018 1.936 2.645.852.616 1.9.924 3.143.924Zm31.622 6.605c-2.805 0-5.22-.569-7.244-1.705-2.012-1.148-3.563-2.77-4.652-4.865-1.089-2.107-1.633-4.599-1.633-7.475 0-2.805.544-5.268 1.633-7.386 1.089-2.119 2.622-3.771 4.599-4.954 1.988-1.184 4.32-1.776 6.996-1.776 1.799 0 3.474.29 5.024.87 1.563.568 2.924 1.427 4.084 2.575 1.172 1.148 2.084 2.592 2.735 4.332.651 1.728.976 3.753.976 6.073v2.077H142.98v-4.687h15.909c0-1.09-.237-2.054-.71-2.895-.474-.84-1.131-1.497-1.971-1.971-.829-.485-1.793-.728-2.894-.728-1.148 0-2.166.267-3.054.799-.876.521-1.563 1.226-2.06 2.113-.497.876-.751 1.853-.763 2.93v4.457c0 1.349.248 2.515.745 3.498.509.982 1.226 1.74 2.149 2.272.923.533 2.018.799 3.285.799.84 0 1.61-.118 2.308-.355.698-.236 1.296-.592 1.793-1.065.497-.474.876-1.054 1.137-1.74l6.995.462c-.355 1.68-1.083 3.148-2.184 4.403-1.089 1.243-2.497 2.213-4.225 2.912-1.717.686-3.7 1.03-5.949 1.03Zm36.59-16.3V250h-7.564v-27.273h7.209v4.812h.32c.604-1.586 1.616-2.841 3.036-3.764 1.421-.935 3.143-1.403 5.167-1.403 1.894 0 3.545.414 4.954 1.243 1.408.829 2.503 2.012 3.285 3.551.781 1.527 1.172 3.35 1.172 5.469V250h-7.564v-16.016c.011-1.669-.415-2.971-1.279-3.906-.864-.947-2.054-1.42-3.569-1.42-1.018 0-1.917.219-2.699.657-.769.438-1.373 1.077-1.811 1.917-.426.829-.645 1.829-.657 3.001Zm35.862 16.3c-2.758 0-5.143-.586-7.155-1.758-2.001-1.184-3.545-2.829-4.634-4.936-1.089-2.119-1.634-4.575-1.634-7.369 0-2.817.545-5.279 1.634-7.386 1.089-2.119 2.633-3.764 4.634-4.936 2.012-1.184 4.397-1.776 7.155-1.776s5.138.592 7.138 1.776c2.013 1.172 3.563 2.817 4.652 4.936 1.089 2.107 1.634 4.569 1.634 7.386 0 2.794-.545 5.25-1.634 7.369-1.089 2.107-2.639 3.752-4.652 4.936-2 1.172-4.38 1.758-7.138 1.758Zm.036-5.86c1.255 0 2.302-.355 3.143-1.065.84-.722 1.473-1.705 1.9-2.947.438-1.243.657-2.658.657-4.244 0-1.586-.219-3.001-.657-4.244-.427-1.243-1.06-2.225-1.9-2.947-.841-.722-1.888-1.083-3.143-1.083-1.267 0-2.332.361-3.196 1.083-.852.722-1.497 1.704-1.935 2.947-.427 1.243-.64 2.658-.64 4.244 0 1.586.213 3.001.64 4.244.438 1.242 1.083 2.225 1.935 2.947.864.71 1.929 1.065 3.196 1.065Zm32.812-21.946v5.682h-16.424v-5.682h16.424Zm-12.695-6.534h7.564v25.426c0 .699.107 1.243.32 1.634.213.379.509.645.887.799.391.154.841.231 1.35.231.355 0 .71-.03 1.065-.089.355-.071.628-.124.817-.16l1.19 5.629c-.379.118-.912.254-1.598.408-.687.166-1.521.266-2.504.302-1.823.071-3.421-.172-4.794-.728-1.361-.556-2.421-1.421-3.178-2.592-.758-1.172-1.131-2.652-1.119-4.439v-26.421Zm43.861 6.534v5.682h-16.832v-5.682h16.832ZM276.978 250v-29.244c0-1.976.384-3.616 1.154-4.918.781-1.302 1.846-2.279 3.196-2.93 1.349-.651 2.882-.976 4.599-.976 1.16 0 2.219.089 3.178.266.97.178 1.693.338 2.166.48l-1.349 5.681c-.296-.094-.663-.183-1.101-.266-.426-.083-.864-.124-1.314-.124-1.113 0-1.888.26-2.326.781-.438.509-.657 1.225-.657 2.148V250h-7.546Zm28.946.533c-2.758 0-5.143-.586-7.156-1.758-2-1.184-3.545-2.829-4.634-4.936-1.089-2.119-1.633-4.575-1.633-7.369 0-2.817.544-5.279 1.633-7.386 1.089-2.119 2.634-3.764 4.634-4.936 2.013-1.184 4.398-1.776 7.156-1.776s5.137.592 7.138 1.776c2.012 1.172 3.563 2.817 4.652 4.936 1.089 2.107 1.633 4.569 1.633 7.386 0 2.794-.544 5.25-1.633 7.369-1.089 2.107-2.64 3.752-4.652 4.936-2.001 1.172-4.38 1.758-7.138 1.758Zm.035-5.86c1.255 0 2.303-.355 3.143-1.065.841-.722 1.474-1.705 1.9-2.947.438-1.243.657-2.658.657-4.244 0-1.586-.219-3.001-.657-4.244-.426-1.243-1.059-2.225-1.9-2.947-.84-.722-1.888-1.083-3.143-1.083-1.266 0-2.331.361-3.196 1.083-.852.722-1.497 1.704-1.935 2.947-.426 1.243-.639 2.658-.639 4.244 0 1.586.213 3.001.639 4.244.438 1.242 1.083 2.225 1.935 2.947.865.71 1.93 1.065 3.196 1.065Zm35.796-6.285v-15.661h7.564V250h-7.262v-4.954h-.284c-.616 1.598-1.64 2.883-3.072 3.853-1.421.971-3.155 1.456-5.203 1.456-1.822 0-3.426-.414-4.811-1.243-1.385-.828-2.468-2.006-3.25-3.533-.769-1.527-1.16-3.356-1.171-5.487v-17.365h7.563v16.016c.012 1.61.444 2.882 1.297 3.817.852.936 1.994 1.403 3.426 1.403.912 0 1.764-.207 2.557-.621.793-.427 1.433-1.054 1.918-1.882.497-.829.74-1.853.728-3.072Zm21.178-4.155V250h-7.564v-27.273h7.209v4.812h.319c.604-1.586 1.616-2.841 3.037-3.764 1.42-.935 3.142-1.403 5.167-1.403 1.894 0 3.545.414 4.953 1.243 1.409.829 2.504 2.012 3.285 3.551.781 1.527 1.172 3.35 1.172 5.469V250h-7.564v-16.016c.012-1.669-.414-2.971-1.278-3.906-.864-.947-2.054-1.42-3.569-1.42-1.018 0-1.918.219-2.699.657-.769.438-1.373 1.077-1.811 1.917-.426.829-.645 1.829-.657 3.001Zm33.589 16.211c-2.071 0-3.947-.533-5.628-1.598-1.669-1.077-2.995-2.658-3.978-4.741-.97-2.095-1.456-4.664-1.456-7.706 0-3.125.504-5.723 1.51-7.795 1.006-2.083 2.343-3.64 4.013-4.669 1.68-1.042 3.521-1.563 5.522-1.563 1.527 0 2.799.261 3.817.781 1.03.509 1.858 1.149 2.486 1.918.639.758 1.124 1.503 1.456 2.237h.231v-13.672h7.546V250h-7.458v-4.368h-.319c-.355.758-.858 1.509-1.509 2.255-.64.734-1.474 1.344-2.504 1.829-1.018.485-2.261.728-3.729.728Zm2.397-6.019c1.22 0 2.249-.332 3.09-.995.852-.674 1.503-1.615 1.953-2.823.462-1.207.692-2.622.692-4.243 0-1.622-.225-3.031-.674-4.226-.45-1.196-1.101-2.119-1.953-2.77-.853-.651-1.888-.977-3.108-.977-1.243 0-2.29.338-3.142 1.012-.853.675-1.498 1.61-1.936 2.806-.438 1.195-.657 2.58-.657 4.155 0 1.586.219 2.989.657 4.208.45 1.207 1.095 2.154 1.936 2.841.852.674 1.899 1.012 3.142 1.012Z"/><path fill="#ffdd61" fill-rule="evenodd" d="m155.088 115.606 9.132-3.395 8.496-2.195 5.573-.265 6.562.011 11.299-39.9538c.567.0393 1.143-.0285 1.702-.2056 2.947-.9346 4.418-4.615 3.273-8.2278-1.143-3.6032-4.461-5.7758-7.416-4.8387-2.948.9345-4.419 4.615-3.273 8.2277.451 1.4224 1.238 2.6129 2.206 3.4851l-3.761 7.3077c-5.268 10.2274-11.259 8.1613-13.576-4.3987l-1.303-7.0693c.316-.027.635-.097.946-.1953 2.947-.9346 4.418-4.6151 3.273-8.2278-1.143-3.6032-4.461-5.7758-7.416-4.8387-2.948.9345-4.419 4.615-3.273 8.2277.652 2.0577 2.019 3.6488 3.616 4.4575l-.515 2.9807c-2.718 13.9896-8.961 10.9391-14.614-.2399l-9.527-18.1738c1.6-1.6031 2.217-4.3447 1.357-7.0566-1.143-3.6033-4.461-5.7758-7.416-4.8388-2.948.9346-4.419 4.6151-3.273 8.2278.956 3.0153 3.426 5.0183 5.932 5.0588l1.263 11.6838c1.266 10.6705 5.318 31.4464-10.517 17.6624l-2.595-2.2871c.966-1.6108 1.23-3.8231.538-6.004-1.142-3.6032-4.461-5.7758-7.416-4.8387-2.947.9345-4.418 4.615-3.273 8.2277 1.143 3.6033 4.461 5.7758 7.416 4.8388.411-.1304.796-.3152 1.148-.5519l1.764 4.3245c2.619 5.8378 6.112 13.7571.295 15.1736-2.884.7055-4.319-.1333-7.071-1.3271l-7.851-3.3858c.341-1.3188.317-2.8241-.158-4.3223-1.143-3.6032-4.461-5.7757-7.416-4.8387-2.948.9345-4.419 4.615-3.273 8.2277 1.145 3.6128 4.46 5.7758 7.416 4.8388.698-.2213 1.306-.5916 1.825-1.0798l31.703 25.7859 3.408-2.972 4.79-3.02Z" clip-rule="evenodd"/></g><defs><clipPath id="a"><path fill="#fff" d="M0 0h474v293H0z"/></clipPath></defs></svg>