<svg width="474" height="293" viewBox="0 0 474 293" fill="none" xmlns="http://www.w3.org/2000/svg">
<g clip-path="url(#clip0_535_4)">
<path d="M150.768 180.051V171.575L172.021 138.091H179.33V149.824H175.004L161.606 171.028V171.425H191.808V180.051H150.768ZM175.203 189V177.466L175.402 173.712V138.091H185.494V189H175.203ZM230.491 190.119C226.215 190.102 222.536 189.05 219.454 186.962C216.388 184.874 214.026 181.849 212.369 177.888C210.729 173.928 209.917 169.163 209.933 163.595C209.933 158.044 210.753 153.312 212.394 149.401C214.051 145.49 216.413 142.516 219.479 140.477C222.561 138.422 226.232 137.395 230.491 137.395C234.75 137.395 238.412 138.422 241.478 140.477C244.56 142.532 246.93 145.515 248.587 149.426C250.244 153.321 251.065 158.044 251.048 163.595C251.048 169.18 250.22 173.953 248.562 177.913C246.922 181.874 244.569 184.898 241.503 186.987C238.437 189.075 234.766 190.119 230.491 190.119ZM230.491 181.195C233.407 181.195 235.736 179.728 237.476 176.795C239.216 173.862 240.078 169.462 240.061 163.595C240.061 159.734 239.663 156.519 238.868 153.95C238.089 151.382 236.979 149.451 235.537 148.158C234.112 146.866 232.43 146.219 230.491 146.219C227.591 146.219 225.271 147.67 223.53 150.57C221.79 153.47 220.912 157.812 220.896 163.595C220.896 167.506 221.285 170.771 222.064 173.389C222.859 175.991 223.978 177.946 225.42 179.256C226.861 180.548 228.552 181.195 230.491 181.195ZM269.502 180.051V171.575L290.756 138.091H298.064V149.824H293.739L280.341 171.028V171.425H310.543V180.051H269.502ZM293.938 189V177.466L294.137 173.712V138.091H304.229V189H293.938ZM48.9193 250V213.636H63.2659C66.0239 213.636 68.3736 214.163 70.3149 215.217C72.2562 216.258 73.7358 217.708 74.7538 219.567C75.7836 221.413 76.2986 223.544 76.2986 225.959C76.2986 228.374 75.7777 230.504 74.7361 232.351C73.6944 234.197 72.1852 235.636 70.2084 236.665C68.2434 237.695 65.8641 238.21 63.0706 238.21H53.9264V232.049H61.8277C63.3073 232.049 64.5265 231.795 65.4854 231.286C66.456 230.765 67.1781 230.049 67.6515 229.137C68.1369 228.214 68.3795 227.154 68.3795 225.959C68.3795 224.751 68.1369 223.698 67.6515 222.798C67.1781 221.887 66.456 221.183 65.4854 220.685C64.5147 220.176 63.2836 219.922 61.7922 219.922H56.6075V250H48.9193ZM88.1949 250.515C86.4548 250.515 84.9041 250.213 83.5429 249.609C82.1816 248.994 81.1044 248.088 80.3113 246.893C79.5301 245.685 79.1395 244.182 79.1395 242.383C79.1395 240.868 79.4176 239.595 79.974 238.565C80.5303 237.536 81.2879 236.707 82.2467 236.08C83.2055 235.452 84.2945 234.979 85.5138 234.659C86.7448 234.339 88.0351 234.115 89.3845 233.984C90.9707 233.819 92.2491 233.665 93.2197 233.523C94.1904 233.369 94.8947 233.144 95.3327 232.848C95.7706 232.552 95.9896 232.114 95.9896 231.534V231.428C95.9896 230.303 95.6345 229.433 94.9243 228.817C94.2259 228.202 93.2316 227.894 91.9413 227.894C90.58 227.894 89.497 228.196 88.692 228.8C87.8871 229.392 87.3544 230.137 87.094 231.037L80.0983 230.469C80.4534 228.812 81.1518 227.379 82.1934 226.172C83.2351 224.953 84.5786 224.018 86.224 223.366C87.8812 222.704 89.7988 222.372 91.9768 222.372C93.492 222.372 94.942 222.55 96.327 222.905C97.7238 223.26 98.9607 223.81 100.038 224.556C101.127 225.302 101.985 226.261 102.612 227.433C103.24 228.593 103.554 229.983 103.554 231.605V250H96.3802V246.218H96.1672C95.7292 247.07 95.1433 247.822 94.4094 248.473C93.6755 249.112 92.7936 249.615 91.7638 249.982C90.7339 250.337 89.5443 250.515 88.1949 250.515ZM90.3611 245.295C91.4738 245.295 92.4562 245.076 93.3085 244.638C94.1608 244.188 94.8296 243.584 95.3149 242.827C95.8002 242.069 96.0429 241.211 96.0429 240.252V237.358C95.8061 237.512 95.4806 237.654 95.0663 237.784C94.6639 237.902 94.2081 238.015 93.6991 238.121C93.1901 238.216 92.6811 238.305 92.1721 238.388C91.6631 238.459 91.2015 238.524 90.7872 238.583C89.8994 238.713 89.1241 238.92 88.4612 239.205C87.7983 239.489 87.2834 239.873 86.9165 240.359C86.5495 240.832 86.366 241.424 86.366 242.134C86.366 243.164 86.7389 243.951 87.4846 244.496C88.2422 245.028 89.201 245.295 90.3611 245.295ZM121.709 260.795C119.258 260.795 117.157 260.458 115.405 259.783C113.665 259.121 112.28 258.215 111.251 257.067C110.221 255.919 109.552 254.628 109.244 253.196L116.24 252.255C116.453 252.799 116.79 253.308 117.252 253.782C117.714 254.255 118.323 254.634 119.081 254.918C119.85 255.214 120.785 255.362 121.886 255.362C123.532 255.362 124.887 254.96 125.952 254.155C127.03 253.362 127.568 252.03 127.568 250.16V245.17H127.248C126.917 245.928 126.42 246.644 125.757 247.319C125.094 247.994 124.242 248.544 123.2 248.97C122.159 249.396 120.916 249.609 119.472 249.609C117.424 249.609 115.559 249.136 113.878 248.189C112.209 247.23 110.878 245.768 109.883 243.803C108.901 241.826 108.41 239.329 108.41 236.31C108.41 233.221 108.913 230.64 109.919 228.569C110.925 226.497 112.263 224.947 113.932 223.917C115.613 222.887 117.453 222.372 119.454 222.372C120.981 222.372 122.259 222.633 123.289 223.153C124.319 223.662 125.147 224.302 125.775 225.071C126.414 225.829 126.905 226.574 127.248 227.308H127.533V222.727H135.043V250.266C135.043 252.586 134.475 254.528 133.339 256.09C132.202 257.653 130.628 258.825 128.616 259.606C126.615 260.399 124.313 260.795 121.709 260.795ZM121.869 243.928C123.088 243.928 124.118 243.626 124.958 243.022C125.81 242.406 126.461 241.531 126.911 240.394C127.373 239.246 127.604 237.873 127.604 236.275C127.604 234.677 127.379 233.292 126.929 232.12C126.479 230.936 125.828 230.019 124.976 229.368C124.123 228.717 123.088 228.391 121.869 228.391C120.626 228.391 119.578 228.729 118.726 229.403C117.873 230.066 117.228 230.99 116.79 232.173C116.352 233.357 116.133 234.724 116.133 236.275C116.133 237.849 116.352 239.21 116.79 240.359C117.24 241.495 117.885 242.377 118.726 243.004C119.578 243.62 120.626 243.928 121.869 243.928ZM153.491 250.533C150.686 250.533 148.271 249.964 146.247 248.828C144.235 247.68 142.684 246.058 141.595 243.963C140.506 241.856 139.962 239.364 139.962 236.488C139.962 233.683 140.506 231.22 141.595 229.102C142.684 226.983 144.217 225.331 146.194 224.148C148.182 222.964 150.514 222.372 153.19 222.372C154.989 222.372 156.664 222.662 158.214 223.242C159.777 223.81 161.138 224.669 162.298 225.817C163.47 226.965 164.382 228.409 165.033 230.149C165.684 231.877 166.009 233.902 166.009 236.222V238.299H142.98V233.612H158.889C158.889 232.522 158.652 231.558 158.179 230.717C157.705 229.877 157.048 229.22 156.208 228.746C155.379 228.261 154.415 228.018 153.314 228.018C152.166 228.018 151.148 228.285 150.26 228.817C149.384 229.338 148.697 230.043 148.2 230.93C147.703 231.806 147.449 232.783 147.437 233.86V238.317C147.437 239.666 147.685 240.832 148.182 241.815C148.691 242.797 149.408 243.555 150.331 244.087C151.254 244.62 152.349 244.886 153.616 244.886C154.456 244.886 155.226 244.768 155.924 244.531C156.622 244.295 157.22 243.939 157.717 243.466C158.214 242.992 158.593 242.412 158.854 241.726L165.849 242.188C165.494 243.868 164.766 245.336 163.665 246.591C162.576 247.834 161.168 248.804 159.44 249.503C157.723 250.189 155.74 250.533 153.491 250.533ZM190.081 234.233V250H182.517V222.727H189.726V227.539H190.046C190.65 225.953 191.662 224.698 193.082 223.775C194.503 222.84 196.225 222.372 198.249 222.372C200.143 222.372 201.794 222.786 203.203 223.615C204.611 224.444 205.706 225.627 206.488 227.166C207.269 228.693 207.66 230.516 207.66 232.635V250H200.096V233.984C200.107 232.315 199.681 231.013 198.817 230.078C197.953 229.131 196.763 228.658 195.248 228.658C194.23 228.658 193.331 228.877 192.549 229.315C191.78 229.753 191.176 230.392 190.738 231.232C190.312 232.061 190.093 233.061 190.081 234.233ZM225.943 250.533C223.185 250.533 220.8 249.947 218.788 248.775C216.787 247.591 215.243 245.946 214.154 243.839C213.065 241.72 212.52 239.264 212.52 236.47C212.52 233.653 213.065 231.191 214.154 229.084C215.243 226.965 216.787 225.32 218.788 224.148C220.8 222.964 223.185 222.372 225.943 222.372C228.701 222.372 231.081 222.964 233.081 224.148C235.094 225.32 236.644 226.965 237.733 229.084C238.822 231.191 239.367 233.653 239.367 236.47C239.367 239.264 238.822 241.72 237.733 243.839C236.644 245.946 235.094 247.591 233.081 248.775C231.081 249.947 228.701 250.533 225.943 250.533ZM225.979 244.673C227.234 244.673 228.281 244.318 229.122 243.608C229.962 242.886 230.595 241.903 231.022 240.661C231.46 239.418 231.679 238.003 231.679 236.417C231.679 234.831 231.46 233.416 231.022 232.173C230.595 230.93 229.962 229.948 229.122 229.226C228.281 228.504 227.234 228.143 225.979 228.143C224.712 228.143 223.647 228.504 222.783 229.226C221.931 229.948 221.286 230.93 220.848 232.173C220.421 233.416 220.208 234.831 220.208 236.417C220.208 238.003 220.421 239.418 220.848 240.661C221.286 241.903 221.931 242.886 222.783 243.608C223.647 244.318 224.712 244.673 225.979 244.673ZM258.791 222.727V228.409H242.367V222.727H258.791ZM246.096 216.193H253.66V241.619C253.66 242.318 253.767 242.862 253.98 243.253C254.193 243.632 254.489 243.898 254.867 244.052C255.258 244.206 255.708 244.283 256.217 244.283C256.572 244.283 256.927 244.253 257.282 244.194C257.637 244.123 257.91 244.07 258.099 244.034L259.289 249.663C258.91 249.781 258.377 249.917 257.691 250.071C257.004 250.237 256.17 250.337 255.187 250.373C253.364 250.444 251.766 250.201 250.393 249.645C249.032 249.089 247.972 248.224 247.215 247.053C246.457 245.881 246.084 244.401 246.096 242.614V216.193ZM289.957 222.727V228.409H273.125V222.727H289.957ZM276.978 250V220.756C276.978 218.78 277.362 217.14 278.132 215.838C278.913 214.536 279.978 213.559 281.328 212.908C282.677 212.257 284.21 211.932 285.927 211.932C287.087 211.932 288.146 212.021 289.105 212.198C290.075 212.376 290.798 212.536 291.271 212.678L289.922 218.359C289.626 218.265 289.259 218.176 288.821 218.093C288.395 218.01 287.957 217.969 287.507 217.969C286.394 217.969 285.619 218.229 285.181 218.75C284.743 219.259 284.524 219.975 284.524 220.898V250H276.978ZM305.924 250.533C303.166 250.533 300.781 249.947 298.768 248.775C296.768 247.591 295.223 245.946 294.134 243.839C293.045 241.72 292.501 239.264 292.501 236.47C292.501 233.653 293.045 231.191 294.134 229.084C295.223 226.965 296.768 225.32 298.768 224.148C300.781 222.964 303.166 222.372 305.924 222.372C308.682 222.372 311.061 222.964 313.062 224.148C315.074 225.32 316.625 226.965 317.714 229.084C318.803 231.191 319.347 233.653 319.347 236.47C319.347 239.264 318.803 241.72 317.714 243.839C316.625 245.946 315.074 247.591 313.062 248.775C311.061 249.947 308.682 250.533 305.924 250.533ZM305.959 244.673C307.214 244.673 308.262 244.318 309.102 243.608C309.943 242.886 310.576 241.903 311.002 240.661C311.44 239.418 311.659 238.003 311.659 236.417C311.659 234.831 311.44 233.416 311.002 232.173C310.576 230.93 309.943 229.948 309.102 229.226C308.262 228.504 307.214 228.143 305.959 228.143C304.693 228.143 303.628 228.504 302.763 229.226C301.911 229.948 301.266 230.93 300.828 232.173C300.402 233.416 300.189 234.831 300.189 236.417C300.189 238.003 300.402 239.418 300.828 240.661C301.266 241.903 301.911 242.886 302.763 243.608C303.628 244.318 304.693 244.673 305.959 244.673ZM341.755 238.388V222.727H349.319V250H342.057V245.046H341.773C341.157 246.644 340.133 247.929 338.701 248.899C337.28 249.87 335.546 250.355 333.498 250.355C331.676 250.355 330.072 249.941 328.687 249.112C327.302 248.284 326.219 247.106 325.437 245.579C324.668 244.052 324.277 242.223 324.266 240.092V222.727H331.829V238.743C331.841 240.353 332.273 241.625 333.126 242.56C333.978 243.496 335.12 243.963 336.552 243.963C337.464 243.963 338.316 243.756 339.109 243.342C339.902 242.915 340.542 242.288 341.027 241.46C341.524 240.631 341.767 239.607 341.755 238.388ZM362.933 234.233V250H355.369V222.727H362.578V227.539H362.897C363.501 225.953 364.513 224.698 365.934 223.775C367.354 222.84 369.076 222.372 371.101 222.372C372.995 222.372 374.646 222.786 376.054 223.615C377.463 224.444 378.558 225.627 379.339 227.166C380.12 228.693 380.511 230.516 380.511 232.635V250H372.947V233.984C372.959 232.315 372.533 231.013 371.669 230.078C370.805 229.131 369.615 228.658 368.1 228.658C367.082 228.658 366.182 228.877 365.401 229.315C364.632 229.753 364.028 230.392 363.59 231.232C363.164 232.061 362.945 233.061 362.933 234.233ZM396.522 250.444C394.451 250.444 392.575 249.911 390.894 248.846C389.225 247.769 387.899 246.188 386.916 244.105C385.946 242.01 385.46 239.441 385.46 236.399C385.46 233.274 385.964 230.676 386.97 228.604C387.976 226.521 389.313 224.964 390.983 223.935C392.663 222.893 394.504 222.372 396.505 222.372C398.032 222.372 399.304 222.633 400.322 223.153C401.352 223.662 402.18 224.302 402.808 225.071C403.447 225.829 403.932 226.574 404.264 227.308H404.495V213.636H412.041V250H404.583V245.632H404.264C403.909 246.39 403.406 247.141 402.755 247.887C402.115 248.621 401.281 249.231 400.251 249.716C399.233 250.201 397.99 250.444 396.522 250.444ZM398.919 244.425C400.139 244.425 401.168 244.093 402.009 243.43C402.861 242.756 403.512 241.815 403.962 240.607C404.424 239.4 404.654 237.985 404.654 236.364C404.654 234.742 404.429 233.333 403.98 232.138C403.53 230.942 402.879 230.019 402.027 229.368C401.174 228.717 400.139 228.391 398.919 228.391C397.676 228.391 396.629 228.729 395.777 229.403C394.924 230.078 394.279 231.013 393.841 232.209C393.403 233.404 393.184 234.789 393.184 236.364C393.184 237.95 393.403 239.353 393.841 240.572C394.291 241.779 394.936 242.726 395.777 243.413C396.629 244.087 397.676 244.425 398.919 244.425Z" fill="#0B5100"/>
<path fill-rule="evenodd" clip-rule="evenodd" d="M155.088 115.606L164.22 112.211L172.716 110.016L178.289 109.751L184.851 109.762L196.15 69.8082C196.717 69.8475 197.293 69.7797 197.852 69.6026C200.799 68.668 202.27 64.9876 201.125 61.3748C199.982 57.7716 196.664 55.599 193.709 56.5361C190.761 57.4706 189.29 61.1511 190.436 64.7638C190.887 66.1862 191.674 67.3767 192.642 68.2489L188.881 75.5566C183.613 85.784 177.622 83.7179 175.305 71.1579L174.002 64.0886C174.318 64.0616 174.637 63.9916 174.948 63.8933C177.895 62.9587 179.366 59.2782 178.221 55.6655C177.078 52.0623 173.76 49.8897 170.805 50.8268C167.857 51.7613 166.386 55.4418 167.532 59.0545C168.184 61.1122 169.551 62.7033 171.148 63.512L170.633 66.4927C167.915 80.4823 161.672 77.4318 156.019 66.2528L146.492 48.079C148.092 46.4759 148.709 43.7343 147.849 41.0224C146.706 37.4191 143.388 35.2466 140.433 36.1836C137.485 37.1182 136.014 40.7987 137.16 44.4114C138.116 47.4267 140.586 49.4297 143.092 49.4702L144.355 61.154C145.621 71.8245 149.673 92.6004 133.838 78.8164L131.243 76.5293C132.209 74.9185 132.473 72.7062 131.781 70.5253C130.639 66.9221 127.32 64.7495 124.365 65.6866C121.418 66.6211 119.947 70.3016 121.092 73.9143C122.235 77.5176 125.553 79.6901 128.508 78.7531C128.919 78.6227 129.304 78.4379 129.656 78.2012L131.42 82.5257C134.039 88.3635 137.532 96.2828 131.715 97.6993C128.831 98.4048 127.396 97.566 124.644 96.3722L116.793 92.9864C117.134 91.6676 117.11 90.1623 116.635 88.6641C115.492 85.0609 112.174 82.8884 109.219 83.8254C106.271 84.7599 104.8 88.4404 105.946 92.0531C107.091 95.6659 110.406 97.8289 113.362 96.8919C114.06 96.6706 114.668 96.3003 115.187 95.8121L146.89 121.598L150.298 118.626L155.088 115.606Z" fill="#FFC803"/>
</g>
<defs>
<clipPath id="clip0_535_4">
<rect width="474" height="293" fill="white"/>
</clipPath>
</defs>
</svg>
