<svg fill="none" viewBox="0 0 474 293"><g clip-path="url(#a)"><path fill="#0B5100" d="M151.854 189v-50.909h34.304v8.874h-23.54v12.131h21.775v8.874h-21.775v12.156h23.639V189h-34.403Zm54.212 0v-38.182h10.267v6.662h.398c.696-2.37 1.864-4.159 3.505-5.369 1.64-1.227 3.529-1.84 5.667-1.84.53 0 1.102.033 1.715.1.613.066 1.152.157 1.616.273v9.396c-.497-.149-1.185-.281-2.063-.397-.878-.116-1.682-.174-2.411-.174-1.558 0-2.95.339-4.176 1.019-1.21.663-2.171 1.591-2.884 2.784-.696 1.193-1.044 2.569-1.044 4.126V189h-10.59Zm40.193 0v-38.182h10.266v6.662h.398c.696-2.37 1.864-4.159 3.505-5.369 1.641-1.227 3.53-1.84 5.668-1.84.53 0 1.102.033 1.715.1.613.066 1.152.157 1.616.273v9.396c-.497-.149-1.185-.281-2.064-.397-.878-.116-1.682-.174-2.411-.174-1.558 0-2.95.339-4.176 1.019-1.21.663-2.171 1.591-2.883 2.784-.696 1.193-1.044 2.569-1.044 4.126V189h-10.59Zm55.667.746c-3.862 0-7.201-.821-10.018-2.461-2.801-1.657-4.963-3.961-6.488-6.911-1.525-2.966-2.287-6.405-2.287-10.316 0-3.944.762-7.391 2.287-10.341 1.525-2.966 3.687-5.27 6.488-6.91 2.817-1.657 6.156-2.486 10.018-2.486 3.861 0 7.192.829 9.993 2.486 2.817 1.64 4.988 3.944 6.512 6.91 1.525 2.95 2.287 6.397 2.287 10.341 0 3.911-.762 7.35-2.287 10.316-1.524 2.95-3.695 5.254-6.512 6.911-2.801 1.64-6.132 2.461-9.993 2.461Zm.049-8.203c1.757 0 3.224-.498 4.4-1.492 1.177-1.011 2.063-2.386 2.66-4.126.613-1.74.92-3.721.92-5.941 0-2.221-.307-4.201-.92-5.941-.597-1.74-1.483-3.116-2.66-4.127-1.176-1.011-2.643-1.516-4.4-1.516-1.773 0-3.264.505-4.474 1.516-1.193 1.011-2.096 2.387-2.71 4.127-.596 1.74-.894 3.72-.894 5.941 0 2.22.298 4.201.894 5.941.614 1.74 1.517 3.115 2.71 4.126 1.21.994 2.701 1.492 4.474 1.492ZM339.154 189v-38.182h10.266v6.662h.398c.696-2.37 1.864-4.159 3.505-5.369 1.641-1.227 3.53-1.84 5.668-1.84.53 0 1.102.033 1.715.1.613.066 1.152.157 1.616.273v9.396c-.498-.149-1.185-.281-2.064-.397-.878-.116-1.682-.174-2.411-.174-1.558 0-2.95.339-4.176 1.019-1.21.663-2.171 1.591-2.884 2.784-.696 1.193-1.044 2.569-1.044 4.126V189h-10.589Z"/><path fill="#FFC803" fill-rule="evenodd" d="m134.088 119.606 9.132-3.395 8.496-2.195 5.573-.265 6.562.011 11.299-39.9538c.567.0393 1.143-.0285 1.702-.2056 2.947-.9346 4.418-4.615 3.273-8.2278-1.143-3.6032-4.461-5.7758-7.416-4.8387-2.948.9345-4.419 4.615-3.273 8.2277.451 1.4224 1.238 2.6129 2.206 3.4851l-3.761 7.3077c-5.268 10.2274-11.259 8.1613-13.576-4.3987l-1.303-7.0693c.316-.027.635-.097.946-.1953 2.947-.9346 4.418-4.6151 3.273-8.2278-1.143-3.6032-4.461-5.7758-7.416-4.8387-2.948.9345-4.419 4.615-3.273 8.2277.652 2.0577 2.019 3.6488 3.616 4.4575l-.515 2.9807c-2.718 13.9896-8.961 10.9391-14.614-.2399l-9.527-18.1738c1.6-1.6031 2.217-4.3447 1.357-7.0566-1.143-3.6033-4.461-5.7758-7.416-4.8388-2.948.9346-4.419 4.6151-3.273 8.2278.956 3.0153 3.426 5.0183 5.932 5.0588l1.263 11.6838c1.266 10.6705 5.318 31.4464-10.517 17.6624l-2.595-2.2871c.966-1.6108 1.23-3.8231.538-6.004-1.142-3.6032-4.461-5.7758-7.416-4.8387-2.947.9345-4.4183 4.615-3.273 8.2277 1.143 3.6033 4.461 5.7758 7.416 4.8388.411-.1304.796-.3152 1.148-.5519l1.764 4.3245c2.619 5.8378 6.112 13.7573.295 15.1733-2.884.706-4.319-.133-7.071-1.327l-7.8512-3.3856c.3416-1.3188.3168-2.8241-.1582-4.3223-1.1425-3.6032-4.4606-5.7757-7.4159-4.8387-2.9476.9345-4.4185 4.615-3.273 8.2277 1.1454 3.6128 4.4605 5.7759 7.4159 4.8389.6981-.221 1.3063-.592 1.8259-1.0799L125.89 125.598l3.408-2.972 4.79-3.02Z" clip-rule="evenodd"/></g><defs><clipPath id="a"><path fill="#fff" d="M0 0h474v293H0z"/></clipPath></defs></svg>