<svg width="382" height="179" viewBox="0 0 382 179" fill="none" xmlns="http://www.w3.org/2000/svg">
<g clip-path="url(#clip0_518_35)">
<g filter="url(#filter0_d_518_35)">
<path d="M124.941 24.8945H124.355C121.393 24.8945 119.163 25.57 117.666 26.9209C115.859 28.5485 114.956 31.2422 114.956 35.002C114.956 36.0436 115.07 36.8737 115.298 37.4922C115.363 37.7038 115.444 37.891 115.542 38.0537C115.607 38.1676 115.64 38.2816 115.64 38.3955C113.833 38.3955 112.515 38.0374 111.685 37.3213C110.757 36.54 110.293 35.2868 110.293 33.5615C110.293 31.8363 110.61 30.2005 111.245 28.6543C111.896 27.0918 112.881 25.7246 114.199 24.5527C115.615 23.2832 117.414 22.2985 119.595 21.5986C121.792 20.8988 124.38 20.5488 127.358 20.5488C129.067 20.5488 130.703 20.6465 132.266 20.8418C132.754 20.8906 133.389 20.9801 134.17 21.1104C135.472 21.3545 136.725 21.5173 137.93 21.5986C138.516 21.6637 139.256 21.6963 140.151 21.6963C141.258 21.6963 142.316 21.5986 143.325 21.4033C144.334 21.208 145.213 20.9557 145.962 20.6465C145.881 22.8275 145.319 24.4307 144.277 25.4561C143.252 26.4814 141.73 26.9941 139.712 26.9941C138.621 26.9941 137.523 26.9046 136.416 26.7256C135.309 26.5465 133.82 26.2699 131.948 25.8955L125.039 58H117.861L124.941 24.8945ZM143.862 58.1953C141.128 58.1953 139.028 57.349 137.563 55.6562C136.229 54.11 135.562 51.9616 135.562 49.2109C135.562 48.3158 135.667 47.2171 135.879 45.915C136.074 44.5967 136.359 43.1807 136.733 41.667C137.547 38.4118 138.63 35.2298 139.98 32.1211C141.478 28.7031 143.122 25.9688 144.912 23.918C146.93 21.6068 148.981 20.4512 151.064 20.4512C152.806 20.4512 154.141 20.972 155.068 22.0137C156.061 23.153 156.558 24.9189 156.558 27.3115C156.558 29.1995 156.094 31.3398 155.166 33.7324C154.466 35.5391 153.571 37.3945 152.48 39.2988C153.18 39.6406 153.807 40.137 154.36 40.7881C155.809 40.7881 157.453 40.4463 159.292 39.7627C160.936 39.1768 162.344 38.4688 163.516 37.6387L163.979 39.0059C163.052 39.9824 161.855 40.8288 160.391 41.5449C158.926 42.2448 157.298 42.7493 155.508 43.0586C155.687 43.6771 155.776 44.5072 155.776 45.5488C155.776 47.209 155.508 48.7959 154.971 50.3096C154.434 51.8232 153.652 53.166 152.627 54.3379C151.569 55.5586 150.291 56.5107 148.794 57.1943C147.313 57.8617 145.669 58.1953 143.862 58.1953ZM146.06 53.7031C146.841 53.7031 147.557 53.4997 148.208 53.0928C148.859 52.6859 149.412 52.1243 149.868 51.4082C150.308 50.7409 150.641 50.0003 150.869 49.1865C151.097 48.3564 151.211 47.5264 151.211 46.6963C151.211 45.4593 151.064 44.5479 150.771 43.9619C150.446 44.0758 150.169 44.1572 149.941 44.2061C149.73 44.2386 149.404 44.2549 148.965 44.2549C148.167 44.2549 147.533 44.0352 147.061 43.5957C146.605 43.1562 146.377 42.554 146.377 41.7891C146.377 40.7962 146.711 40.0475 147.378 39.543C147.915 39.1361 148.745 38.8919 149.868 38.8105C150.763 37.1992 151.569 35.3031 152.285 33.1221C153.001 30.8923 153.359 28.8822 153.359 27.0918C153.359 26.0827 153.229 25.3747 152.969 24.9678C152.725 24.5609 152.31 24.3574 151.724 24.3574C151.203 24.3574 150.674 24.6341 150.137 25.1875C149.6 25.7409 149.071 26.514 148.55 27.5068C147.606 29.346 146.678 31.7956 145.767 34.8555C144.985 37.4434 144.318 40.2266 143.765 43.2051C143.26 45.8743 143.008 47.9251 143.008 49.3574C143.008 50.7083 143.244 51.75 143.716 52.4824C144.22 53.2962 145.002 53.7031 146.06 53.7031ZM167.08 30.29C166.543 30.29 166.03 30.1924 165.542 29.9971C165.054 29.7855 164.631 29.5007 164.272 29.1426C163.914 28.8008 163.63 28.3857 163.418 27.8975C163.223 27.4092 163.125 26.8965 163.125 26.3594C163.125 25.8223 163.223 25.3096 163.418 24.8213C163.63 24.333 163.914 23.9017 164.272 23.5273C164.631 23.153 165.054 22.8682 165.542 22.6729C166.03 22.4613 166.543 22.3555 167.08 22.3555C167.617 22.3555 168.13 22.4613 168.618 22.6729C169.106 22.8682 169.538 23.153 169.912 23.5273C170.286 23.9017 170.571 24.333 170.767 24.8213C170.978 25.3096 171.084 25.8223 171.084 26.3594C171.084 26.8965 170.978 27.4092 170.767 27.8975C170.571 28.3857 170.286 28.8008 169.912 29.1426C169.538 29.5007 169.106 29.7855 168.618 29.9971C168.13 30.1924 167.617 30.29 167.08 30.29ZM163.687 58.293C162.091 58.293 160.83 57.821 159.902 56.877C158.861 55.8353 158.34 54.3135 158.34 52.3115C158.34 51.3675 158.47 50.277 158.73 49.04L162.124 33H169.326L165.737 49.9922C165.607 50.4154 165.542 50.9525 165.542 51.6035C165.542 52.2871 165.697 52.7673 166.006 53.0439C166.331 53.3206 166.852 53.459 167.568 53.459C168.057 53.459 168.529 53.3532 168.984 53.1416C169.456 52.9137 169.888 52.6045 170.278 52.2139C171.076 51.4163 171.678 50.3584 172.085 49.04H174.185C173.289 51.5628 172.166 53.5729 170.815 55.0703C169.676 56.291 168.39 57.1699 166.958 57.707C165.916 58.0977 164.826 58.293 163.687 58.293ZM185.098 30.5586C183.031 30.5586 181.427 30.1761 180.288 29.4111C179.165 28.6462 178.604 27.5964 178.604 26.2617C178.604 25.1712 178.905 24.2923 179.507 23.625C180.109 22.9414 180.923 22.5996 181.948 22.5996C182.925 22.5996 183.682 22.8356 184.219 23.3076C184.772 23.7633 185.049 24.4307 185.049 25.3096C185.049 25.7002 184.992 26.0501 184.878 26.3594C184.666 26.9453 184.325 27.3929 183.853 27.7021C184.243 27.8324 184.91 27.8975 185.854 27.8975C187.45 27.8975 188.866 27.4906 190.103 26.6768C191.584 25.7165 192.739 24.1702 193.569 22.0381H195.669C194.578 25.1794 193.122 27.4255 191.299 28.7764C189.688 29.9645 187.62 30.5586 185.098 30.5586ZM177.065 58.293C175.47 58.293 174.209 57.821 173.281 56.877C172.24 55.8353 171.719 54.3135 171.719 52.3115C171.719 51.3675 171.849 50.277 172.109 49.04L175.503 33H182.705L179.116 49.9922C179.019 50.4967 178.97 50.9688 178.97 51.4082C178.97 52.7754 179.466 53.459 180.459 53.459C181.37 53.459 182.192 53.0439 182.925 52.2139C183.511 51.514 184.023 50.4561 184.463 49.04L187.856 33H195.059L191.47 49.9922C191.323 50.4805 191.25 51.0176 191.25 51.6035C191.25 52.2871 191.413 52.7673 191.738 53.0439C192.064 53.3206 192.585 53.459 193.301 53.459C194.229 53.459 195.059 53.0439 195.791 52.2139C196.442 51.4814 196.963 50.4235 197.354 49.04H199.453C198.558 51.5791 197.476 53.5892 196.206 55.0703C195.132 56.291 193.919 57.1699 192.568 57.707C191.576 58.0977 190.526 58.293 189.419 58.293C187.987 58.293 186.847 57.8942 186.001 57.0967C185.155 56.2992 184.642 55.1191 184.463 53.5566C183.324 55.3796 182.038 56.6816 180.605 57.4629C179.58 58.0163 178.4 58.293 177.065 58.293ZM194.229 111.398C193.105 111.398 191.803 111.211 190.322 110.837C188.841 110.463 187.108 109.925 185.122 109.226C183.56 108.688 181.704 108.013 179.556 107.199C175.145 105.539 171.239 104.343 167.837 103.61C165.916 103.203 164.045 103 162.222 103C161.164 103 160.195 103.016 159.316 103.049C158.665 103.098 158.185 103.163 157.876 103.244L157.681 103.293V103.195C157.681 103.098 157.697 103.033 157.729 103L164.98 68.9912C162.734 69.9189 161.001 71.3105 159.78 73.166C158.576 75.0052 157.974 77.2513 157.974 79.9043C157.974 81.0111 158.096 81.8574 158.34 82.4434C158.389 82.6224 158.47 82.8014 158.584 82.9805C158.649 83.0944 158.682 83.2165 158.682 83.3467C156.908 83.3467 155.573 82.9967 154.678 82.2969C153.783 81.5807 153.335 80.4007 153.335 78.7568C153.335 77.6175 153.571 76.4863 154.043 75.3633C154.515 74.2402 155.182 73.1742 156.045 72.165C156.859 71.2048 157.827 70.3177 158.95 69.5039C160.09 68.6738 161.318 67.9577 162.637 67.3555C165.371 66.1185 168.097 65.5 170.815 65.5C171.597 65.5 172.28 65.5326 172.866 65.5977L165.664 99.3379C166.038 99.3379 166.315 99.3298 166.494 99.3135C166.673 99.2972 166.966 99.2891 167.373 99.2891C168.415 99.2891 169.766 99.46 171.426 99.8018L178.726 65.5977H185.928L178.335 101.291C180.809 101.877 182.819 102.382 184.365 102.805L192.275 65.5977H199.478L191.226 104.343C193.553 104.815 195.173 105.051 196.084 105.051C197.028 105.051 197.85 104.986 198.55 104.855C199.25 104.725 199.876 104.506 200.43 104.196C200.202 106.654 199.616 108.452 198.672 109.592C197.695 110.796 196.214 111.398 194.229 111.398ZM205.459 103.293C203.555 103.293 202.017 102.699 200.845 101.511C199.478 100.111 198.794 98.0277 198.794 95.2607C198.794 94.0889 198.916 92.8519 199.16 91.5498C199.388 90.2477 199.73 88.9619 200.186 87.6924C201.227 84.8278 202.651 82.5166 204.458 80.7588C206.541 78.7568 208.942 77.7559 211.66 77.7559C213.011 77.7559 214.02 77.9919 214.688 78.4639C215.371 78.9196 215.713 79.5299 215.713 80.2949V80.6611L216.25 78H223.452L219.863 94.9922C219.717 95.4805 219.644 96.0176 219.644 96.6035C219.644 98.0358 220.327 98.752 221.694 98.752C222.606 98.752 223.436 98.2881 224.185 97.3604C224.819 96.5791 225.34 95.4723 225.747 94.04H227.847C226.951 96.5791 225.869 98.5892 224.6 100.07C223.525 101.291 222.313 102.17 220.962 102.707C219.969 103.098 218.919 103.293 217.812 103.293C216.396 103.293 215.265 102.91 214.419 102.146C213.589 101.364 213.084 100.217 212.905 98.7031C211.961 100.038 210.968 101.079 209.927 101.828C208.592 102.805 207.103 103.293 205.459 103.293ZM208.706 98.459C209.08 98.459 209.471 98.3613 209.878 98.166C210.301 97.9707 210.708 97.694 211.099 97.3359C211.978 96.4896 212.563 95.391 212.856 94.04L215.249 82.7607C215.249 82.598 215.208 82.4108 215.127 82.1992C215.062 81.9714 214.964 81.7598 214.834 81.5645C214.443 81.0924 213.898 80.8564 213.198 80.8564C212.531 80.8564 211.88 81.0762 211.245 81.5156C210.627 81.9551 210.041 82.5654 209.487 83.3467C208.511 84.7627 207.705 86.61 207.07 88.8887C206.777 89.8978 206.558 90.8988 206.411 91.8916C206.265 92.8682 206.191 93.7552 206.191 94.5527C206.191 96.2129 206.501 97.3359 207.119 97.9219C207.331 98.1497 207.567 98.2962 207.827 98.3613C208.088 98.4264 208.381 98.459 208.706 98.459ZM232.925 103.293C230.467 103.293 228.571 102.674 227.236 101.438C225.82 100.119 225.112 98.0928 225.112 95.3584C225.112 94.333 225.218 93.1937 225.43 91.9404C225.625 90.6709 225.934 89.4095 226.357 88.1562C227.35 85.1126 228.758 82.6875 230.581 80.8809C232.827 78.6673 235.488 77.5605 238.564 77.5605C240.566 77.5605 242.048 78.0407 243.008 79.001C243.757 79.766 244.131 80.8158 244.131 82.1504C244.131 83.3223 243.87 84.2337 243.35 84.8848C242.861 85.487 242.235 85.7881 241.47 85.7881C240.916 85.7881 240.33 85.5928 239.712 85.2021C240.119 84.1442 240.322 83.1595 240.322 82.248C240.322 81.6133 240.2 81.1169 239.956 80.7588C239.728 80.3844 239.386 80.1973 238.931 80.1973C237.954 80.1973 236.937 81.0599 235.879 82.7852C234.919 84.3151 234.121 86.2601 233.486 88.6201C232.835 90.9313 232.51 93.0228 232.51 94.8945C232.51 96.5221 232.819 97.6452 233.438 98.2637C233.975 98.8171 234.87 99.0938 236.123 99.0938C237.93 99.0938 239.582 98.6055 241.079 97.6289C241.714 97.222 242.324 96.7419 242.91 96.1885C243.496 95.6188 244.18 94.9027 244.961 94.04H246.67C245.091 96.7093 243.276 98.8333 241.226 100.412C238.703 102.333 235.936 103.293 232.925 103.293ZM248.55 103.293C246.727 103.293 245.327 102.699 244.351 101.511C243.927 101.006 243.61 100.42 243.398 99.7529C243.171 99.0693 243.057 98.3695 243.057 97.6533C243.057 96.4652 243.333 95.5049 243.887 94.7725C244.44 94.0238 245.197 93.6494 246.157 93.6494C246.938 93.6494 247.565 93.8936 248.037 94.3818C248.525 94.8538 248.77 95.4805 248.77 96.2617C248.77 96.9779 248.599 97.5475 248.257 97.9707C247.931 98.3776 247.524 98.5811 247.036 98.5811C246.922 98.5811 246.833 98.5729 246.768 98.5566C246.8 99.0124 246.938 99.3623 247.183 99.6064C247.508 99.9645 248.021 100.144 248.721 100.144C249.502 100.144 250.145 99.8913 250.649 99.3867C251.154 98.8822 251.585 98.1497 251.943 97.1895C252.285 96.2129 252.57 95.1712 252.798 94.0645C252.961 93.1367 253.156 92.1846 253.384 91.208L253.555 90.4023C254.076 87.847 254.653 85.7555 255.288 84.1279C255.939 82.5003 256.672 81.2227 257.485 80.2949C258.218 79.4323 259.04 78.8382 259.951 78.5127C260.879 78.1709 261.945 78 263.149 78H270.522L267.861 90.4023L266.982 94.2598C266.771 95.2038 266.665 95.9036 266.665 96.3594C266.665 97.7591 267.332 98.459 268.667 98.459C269.155 98.459 269.587 98.3776 269.961 98.2148C270.335 98.0358 270.685 97.7591 271.011 97.3848C271.304 97.043 271.589 96.6117 271.865 96.0908C272.158 95.57 272.492 94.8864 272.866 94.04H274.966C272.866 100.209 269.766 103.293 265.664 103.293C263.76 103.293 262.271 102.756 261.196 101.682C260.724 101.21 260.366 100.656 260.122 100.021C259.878 99.3704 259.756 98.695 259.756 97.9951C259.756 96.5954 260.122 94.333 260.854 91.208L263.052 81.2959C262.173 81.2959 261.424 81.4749 260.806 81.833C260.187 82.1911 259.642 82.7526 259.17 83.5176C258.714 84.25 258.299 85.2021 257.925 86.374C257.55 87.5459 257.16 89.0514 256.753 90.8906L256.655 91.3789C256.151 93.7389 255.719 95.5537 255.361 96.8232C255.02 98.0928 254.604 99.1751 254.116 100.07C253.514 101.161 252.765 101.975 251.87 102.512C250.991 103.033 249.884 103.293 248.55 103.293ZM277.847 103.293C276.252 103.293 274.99 102.821 274.062 101.877C273.021 100.835 272.5 99.3135 272.5 97.3115C272.5 96.3675 272.63 95.277 272.891 94.04L276.284 78H283.486L279.897 94.9922C279.8 95.4967 279.751 95.9688 279.751 96.4082C279.751 97.7754 280.247 98.459 281.24 98.459C282.152 98.459 282.974 98.0439 283.706 97.2139C284.292 96.514 284.805 95.4561 285.244 94.04L288.638 78H295.84L292.251 94.9922C292.104 95.4805 292.031 96.0176 292.031 96.6035C292.031 97.2871 292.194 97.7673 292.52 98.0439C292.845 98.3206 293.366 98.459 294.082 98.459C295.01 98.459 295.84 98.0439 296.572 97.2139C297.223 96.4814 297.744 95.4235 298.135 94.04H300.234C299.339 96.5791 298.257 98.5892 296.987 100.07C295.913 101.291 294.701 102.17 293.35 102.707C292.357 103.098 291.307 103.293 290.2 103.293C288.768 103.293 287.629 102.894 286.782 102.097C285.936 101.299 285.423 100.119 285.244 98.5566C284.105 100.38 282.819 101.682 281.387 102.463C280.361 103.016 279.181 103.293 277.847 103.293ZM305.728 103.195C302.993 103.195 300.894 102.349 299.429 100.656C298.094 99.11 297.427 96.9616 297.427 94.2109C297.427 93.3158 297.533 92.2171 297.744 90.915C297.939 89.5967 298.224 88.1807 298.599 86.667C299.412 83.4118 300.495 80.2298 301.846 77.1211C303.343 73.7031 304.987 70.9688 306.777 68.918C308.796 66.6068 310.846 65.4512 312.93 65.4512C314.671 65.4512 316.006 65.972 316.934 67.0137C317.926 68.153 318.423 69.9189 318.423 72.3115C318.423 74.1995 317.959 76.3398 317.031 78.7324C316.331 80.5391 315.436 82.3945 314.346 84.2988C315.046 84.6406 315.672 85.137 316.226 85.7881C317.674 85.7881 319.318 85.4463 321.157 84.7627C322.801 84.1768 324.209 83.4688 325.381 82.6387L325.845 84.0059C324.917 84.9824 323.721 85.8288 322.256 86.5449C320.791 87.2448 319.163 87.7493 317.373 88.0586C317.552 88.6771 317.642 89.5072 317.642 90.5488C317.642 92.209 317.373 93.7959 316.836 95.3096C316.299 96.8232 315.518 98.166 314.492 99.3379C313.434 100.559 312.157 101.511 310.659 102.194C309.178 102.862 307.534 103.195 305.728 103.195ZM307.925 98.7031C308.706 98.7031 309.422 98.4997 310.073 98.0928C310.724 97.6859 311.278 97.1243 311.733 96.4082C312.173 95.7409 312.507 95.0003 312.734 94.1865C312.962 93.3564 313.076 92.5264 313.076 91.6963C313.076 90.4593 312.93 89.5479 312.637 88.9619C312.311 89.0758 312.035 89.1572 311.807 89.2061C311.595 89.2386 311.27 89.2549 310.83 89.2549C310.033 89.2549 309.398 89.0352 308.926 88.5957C308.47 88.1562 308.242 87.554 308.242 86.7891C308.242 85.7962 308.576 85.0475 309.243 84.543C309.78 84.1361 310.61 83.8919 311.733 83.8105C312.629 82.1992 313.434 80.3031 314.15 78.1221C314.867 75.8923 315.225 73.8822 315.225 72.0918C315.225 71.0827 315.094 70.3747 314.834 69.9678C314.59 69.5609 314.175 69.3574 313.589 69.3574C313.068 69.3574 312.539 69.6341 312.002 70.1875C311.465 70.7409 310.936 71.514 310.415 72.5068C309.471 74.346 308.543 76.7956 307.632 79.8555C306.851 82.4434 306.183 85.2266 305.63 88.2051C305.125 90.8743 304.873 92.9251 304.873 94.3574C304.873 95.7083 305.109 96.75 305.581 97.4824C306.086 98.2962 306.867 98.7031 307.925 98.7031ZM325.552 103.293C323.957 103.293 322.695 102.821 321.768 101.877C320.726 100.835 320.205 99.3135 320.205 97.3115C320.205 96.3675 320.335 95.277 320.596 94.04L323.989 78H331.191L327.603 94.9922C327.505 95.4967 327.456 95.9688 327.456 96.4082C327.456 97.7754 327.952 98.459 328.945 98.459C329.857 98.459 330.679 98.0439 331.411 97.2139C331.997 96.514 332.51 95.4561 332.949 94.04L336.343 78H343.545L339.956 94.9922C339.81 95.4805 339.736 96.0176 339.736 96.6035C339.736 97.2871 339.899 97.7673 340.225 98.0439C340.55 98.3206 341.071 98.459 341.787 98.459C342.715 98.459 343.545 98.0439 344.277 97.2139C344.928 96.4814 345.449 95.4235 345.84 94.04H347.939C347.044 96.5791 345.962 98.5892 344.692 100.07C343.618 101.291 342.406 102.17 341.055 102.707C340.062 103.098 339.012 103.293 337.905 103.293C336.473 103.293 335.334 102.894 334.487 102.097C333.641 101.299 333.128 100.119 332.949 98.5566C331.81 100.38 330.524 101.682 329.092 102.463C328.066 103.016 326.886 103.293 325.552 103.293ZM358.828 75.5586C356.761 75.5586 355.158 75.1761 354.019 74.4111C352.896 73.6462 352.334 72.5964 352.334 71.2617C352.334 70.1712 352.635 69.2923 353.237 68.625C353.84 67.9414 354.653 67.5996 355.679 67.5996C356.655 67.5996 357.412 67.8356 357.949 68.3076C358.503 68.7633 358.779 69.4307 358.779 70.3096C358.779 70.7002 358.722 71.0501 358.608 71.3594C358.397 71.9453 358.055 72.3929 357.583 72.7021C357.974 72.8324 358.641 72.8975 359.585 72.8975C361.18 72.8975 362.596 72.4906 363.833 71.6768C365.314 70.7165 366.47 69.1702 367.3 67.0381H369.399C368.309 70.1794 366.852 72.4255 365.029 73.7764C363.418 74.9645 361.351 75.5586 358.828 75.5586ZM350.796 103.293C349.201 103.293 347.939 102.821 347.012 101.877C345.97 100.835 345.449 99.3135 345.449 97.3115C345.449 96.3675 345.579 95.277 345.84 94.04L349.233 78H356.436L352.847 94.9922C352.749 95.4967 352.7 95.9688 352.7 96.4082C352.7 97.7754 353.197 98.459 354.189 98.459C355.101 98.459 355.923 98.0439 356.655 97.2139C357.241 96.514 357.754 95.4561 358.193 94.04L361.587 78H368.789L365.2 94.9922C365.054 95.4805 364.98 96.0176 364.98 96.6035C364.98 97.2871 365.143 97.7673 365.469 98.0439C365.794 98.3206 366.315 98.459 367.031 98.459C367.959 98.459 368.789 98.0439 369.521 97.2139C370.173 96.4814 370.693 95.4235 371.084 94.04H373.184C372.288 96.5791 371.206 98.5892 369.937 100.07C368.862 101.291 367.65 102.17 366.299 102.707C365.306 103.098 364.256 103.293 363.149 103.293C361.717 103.293 360.578 102.894 359.731 102.097C358.885 101.299 358.372 100.119 358.193 98.5566C357.054 100.38 355.768 101.682 354.336 102.463C353.311 103.016 352.131 103.293 350.796 103.293ZM201.357 149.343C200.609 149.343 199.876 149.213 199.16 148.952C198.46 148.692 197.842 148.326 197.305 147.854C196.735 147.349 196.287 146.771 195.962 146.12C195.636 145.453 195.474 144.729 195.474 143.947C195.474 142.987 195.645 142.1 195.986 141.286C196.328 140.456 196.808 139.756 197.427 139.187C198.029 138.633 198.721 138.21 199.502 137.917C200.283 137.608 201.105 137.453 201.968 137.453C202.668 137.453 203.286 137.583 203.823 137.844L204.019 136.843L208.511 116.188L215.908 115.212L210.464 140.847C210.22 141.888 210.008 142.67 209.829 143.19C210.659 143.89 211.636 144.24 212.759 144.24C213.719 144.24 214.631 143.939 215.493 143.337C216.372 142.735 217.178 141.88 217.91 140.773C219.294 138.706 220.4 135.923 221.23 132.424C221.995 129.12 222.378 125.726 222.378 122.243C222.378 118.988 221.711 116.563 220.376 114.968C219.139 113.519 217.373 112.795 215.078 112.795C213.206 112.795 211.473 113.072 209.878 113.625C208.283 114.178 206.899 114.976 205.728 116.018C204.523 117.092 203.595 118.386 202.944 119.899C202.293 121.413 201.968 123.098 201.968 124.953C201.968 126.027 202.09 126.857 202.334 127.443C202.399 127.655 202.48 127.842 202.578 128.005C202.643 128.119 202.676 128.233 202.676 128.347C200.918 128.347 199.583 127.989 198.672 127.272C197.777 126.54 197.329 125.352 197.329 123.708C197.329 122.585 197.549 121.478 197.988 120.388C198.428 119.281 199.062 118.231 199.893 117.238C200.706 116.262 201.683 115.367 202.822 114.553C203.978 113.723 205.239 113.007 206.606 112.404C209.504 111.135 212.604 110.5 215.908 110.5C220.449 110.5 223.892 111.94 226.235 114.821C227.261 116.091 228.018 117.588 228.506 119.313C229.01 121.039 229.263 122.902 229.263 124.904C229.263 126.776 229.092 128.672 228.75 130.593C228.424 132.513 227.952 134.369 227.334 136.159C226.715 137.917 225.975 139.561 225.112 141.091C224.266 142.604 223.33 143.923 222.305 145.046C221.247 146.201 220.132 147.097 218.96 147.731C217.804 148.35 216.624 148.659 215.42 148.659C214.264 148.659 213.149 148.431 212.075 147.976C210.822 147.455 209.683 146.633 208.657 145.51C207.762 146.91 206.598 147.927 205.166 148.562C204.043 149.082 202.773 149.343 201.357 149.343ZM200.21 144.899C200.812 144.899 201.357 144.623 201.846 144.069C202.448 143.402 202.887 142.377 203.164 140.993L203.408 139.748C202.904 139.423 202.407 139.26 201.919 139.26C201.479 139.26 201.032 139.366 200.576 139.577C200.137 139.772 199.746 140.049 199.404 140.407C199.046 140.765 198.753 141.197 198.525 141.701C198.314 142.189 198.208 142.702 198.208 143.239C198.208 143.728 198.395 144.126 198.77 144.436C199.144 144.745 199.624 144.899 200.21 144.899ZM237.319 148.293C234.862 148.293 232.965 147.674 231.631 146.438C230.215 145.119 229.507 143.093 229.507 140.358C229.507 139.333 229.613 138.194 229.824 136.94C230.02 135.687 230.321 134.434 230.728 133.181C231.183 131.781 231.761 130.454 232.461 129.201C233.177 127.948 234.007 126.841 234.951 125.881C237.132 123.667 239.818 122.561 243.008 122.561C245.042 122.561 246.523 123.049 247.451 124.025C248.167 124.79 248.525 125.897 248.525 127.346C248.525 128.762 248.216 130.096 247.598 131.35C246.979 132.587 246.125 133.685 245.034 134.646C243.944 135.59 242.707 136.346 241.323 136.916C239.94 137.469 238.507 137.795 237.026 137.893C236.945 138.739 236.904 139.406 236.904 139.895C236.904 141.522 237.214 142.645 237.832 143.264C238.369 143.817 239.264 144.094 240.518 144.094C242.324 144.094 243.976 143.605 245.474 142.629C246.108 142.222 246.719 141.742 247.305 141.188C247.891 140.619 248.574 139.903 249.355 139.04H251.064C249.486 141.709 247.671 143.833 245.62 145.412C243.097 147.333 240.33 148.293 237.319 148.293ZM237.417 135.5C238.345 135.435 239.248 135.166 240.127 134.694C241.006 134.222 241.787 133.604 242.471 132.839C243.154 132.058 243.691 131.187 244.082 130.227C244.473 129.25 244.668 128.257 244.668 127.248C244.668 126.581 244.57 126.076 244.375 125.734C244.196 125.376 243.879 125.197 243.423 125.197C242.821 125.197 242.21 125.49 241.592 126.076C240.99 126.662 240.404 127.468 239.834 128.493C239.313 129.453 238.841 130.544 238.418 131.765C237.995 132.985 237.661 134.23 237.417 135.5ZM267.495 148.293C265.575 148.293 264.093 147.756 263.052 146.682C262.58 146.21 262.222 145.656 261.978 145.021C261.733 144.37 261.611 143.695 261.611 142.995C261.611 142.377 261.701 141.538 261.88 140.48C262.075 139.423 262.368 137.925 262.759 135.988H257.217L254.653 148H247.451L252.749 123H259.951L257.803 133.01H263.394L265.664 123H272.354L269.717 135.402L268.838 139.26C268.61 140.269 268.496 140.969 268.496 141.359C268.496 142.759 269.163 143.459 270.498 143.459C271.003 143.459 271.442 143.378 271.816 143.215C272.191 143.036 272.541 142.759 272.866 142.385C273.159 142.043 273.436 141.62 273.696 141.115C273.973 140.611 274.307 139.919 274.697 139.04H276.797C274.697 145.209 271.597 148.293 267.495 148.293ZM281.899 148.293C280.744 148.293 279.702 148.146 278.774 147.854C277.847 147.561 277.065 147.137 276.431 146.584C275.78 146.047 275.275 145.38 274.917 144.582C274.575 143.785 274.404 142.889 274.404 141.896C274.404 140.806 274.518 139.854 274.746 139.04L278.14 123H285.342L283.657 131.105C284.699 130.666 285.651 130.381 286.514 130.251C287.132 130.153 287.84 130.104 288.638 130.104C289.631 130.104 290.526 130.251 291.323 130.544C292.137 130.837 292.821 131.268 293.374 131.838C293.927 132.408 294.351 133.116 294.644 133.962C294.953 134.792 295.107 135.72 295.107 136.745C295.107 137.461 294.993 138.243 294.766 139.089C294.554 139.935 294.237 140.773 293.813 141.604C292.804 143.524 291.388 145.062 289.565 146.218C287.433 147.601 284.878 148.293 281.899 148.293ZM283.657 144.045C284.276 144.045 284.878 143.833 285.464 143.41C286.066 142.971 286.603 142.385 287.075 141.652C287.515 140.952 287.865 140.196 288.125 139.382C288.402 138.552 288.54 137.771 288.54 137.038C288.54 136.029 288.312 135.24 287.856 134.67C287.401 134.084 286.733 133.791 285.854 133.791C285.48 133.791 284.976 133.889 284.341 134.084C283.657 134.279 283.177 134.483 282.9 134.694L281.655 140.603C281.558 140.83 281.509 141.115 281.509 141.457C281.509 141.783 281.509 141.962 281.509 141.994C281.509 143.361 282.225 144.045 283.657 144.045Z" fill="url(#paint0_linear_518_35)"/>
</g>
<ellipse cx="90" cy="122" rx="38" ry="37" fill="#FDFFA5"/>
<g filter="url(#filter1_d_518_35)">
<path fill-rule="evenodd" clip-rule="evenodd" d="M69.3525 62.9975L77.1078 34.2071C77.5308 34.2096 77.9586 34.1358 78.3715 33.9855C80.5508 33.1923 81.5854 30.521 80.673 28.0144C79.7631 25.5144 77.2568 24.1243 75.0718 24.9196C72.8925 25.7128 71.8579 28.3842 72.7703 30.8908C73.1295 31.8776 73.7352 32.6853 74.4703 33.2597L71.7902 38.6012C68.036 46.0771 63.5417 44.8817 61.6094 36.0929L60.5233 31.1462C60.758 31.1129 60.9946 31.0491 61.224 30.9656C63.4033 30.1725 64.4378 27.5011 63.5255 24.9945C62.6156 22.4945 60.1093 21.1044 57.9242 21.8997C55.745 22.6929 54.7104 25.3643 55.6227 27.8709C56.1423 29.2985 57.1861 30.364 58.3882 30.8653L58.0541 32.9986C56.2606 43.0242 51.5622 41.1431 47.1692 33.4809L39.7767 21.0394C40.9418 19.833 41.3554 17.8645 40.6705 15.9829C39.7606 13.4829 37.2543 12.0929 35.0693 12.8882C32.89 13.6814 31.8554 16.3527 32.7678 18.8593C33.5292 20.9514 35.4016 22.2593 37.2678 22.1761L38.4005 30.3916C39.5189 37.8896 42.8777 52.4177 30.8606 43.3656L28.8911 41.8621C29.5839 40.6786 29.7435 39.1006 29.1927 37.5875C28.2828 35.0874 25.7765 33.6974 23.5915 34.4927C21.4122 35.2859 20.3776 37.9572 21.29 40.4638C22.1999 42.9639 24.7062 44.3539 26.8912 43.5586C27.1952 43.448 27.479 43.3 27.737 43.1166L29.1215 46.0996C31.1678 50.1158 33.8986 55.5666 29.591 56.829C27.4555 57.4572 26.3729 56.9273 24.3045 56.205L18.4028 54.1583C18.6354 53.2094 18.5922 52.1448 18.2138 51.1053C17.3039 48.6053 14.7976 47.2153 12.6126 48.0106C10.4333 48.8037 9.39871 51.4751 10.311 53.9817C11.2234 56.4883 13.7273 57.8718 15.9123 57.0765C16.4284 56.8886 16.8752 56.5993 17.254 56.2305L41.2829 73.0714L69.3525 62.9975Z" fill="url(#paint1_linear_518_35)"/>
<rect x="39.291" y="76.8105" width="36.6906" height="7.55396" rx="3.77698" transform="rotate(-20 39.291 76.8105)" fill="url(#paint2_linear_518_35)"/>
</g>
<g filter="url(#filter2_d_518_35)">
<mask id="mask0_518_35" style="mask-type:luminance" maskUnits="userSpaceOnUse" x="47" y="78" width="86" height="86">
<path d="M133 78H47V164H133V78Z" fill="white"/>
</mask>
<g mask="url(#mask0_518_35)">
<path d="M133 101.66V120.47C132.85 121 132.68 121.53 132.51 122.05C132.503 122.058 132.5 122.069 132.5 122.08C132.5 122.09 132.5 122.09 132.49 122.1C130.383 128.365 126.833 134.047 122.125 138.686C117.418 143.326 111.685 146.794 105.39 148.81C104.32 149.15 103.24 149.45 102.14 149.7C102.127 149.705 102.114 149.708 102.1 149.71C98.994 150.422 95.8173 150.781 92.6304 150.78H92.2004C97.3308 150.399 102.276 148.699 106.556 145.845C110.836 142.991 114.306 139.08 116.63 134.49V134.48C118.59 130.62 119.686 126.38 119.841 122.054C119.997 117.728 119.208 113.42 117.53 109.43C117.31 108.4 117.05 107.38 116.75 106.38C116.63 105.96 116.49 105.53 116.35 105.11C116.27 104.85 116.18 104.59 116.09 104.34C115.98 104.04 115.88 103.73 115.75 103.43C115.67 103.22 115.59 103 115.5 102.78C115.34 102.38 115.17 101.97 115 101.56C114.8 101.11 114.61 100.66 114.39 100.22C114.27 99.98 114.16 99.75 114.03 99.51C113.93 99.28 113.8 99.04 113.68 98.81C113.56 98.58 113.43 98.33 113.29 98.09C113.11 97.73 112.9 97.39 112.7 97.05C112.43 96.58 112.14 96.12 111.86 95.66C111.83 95.65 111.83 95.64 111.82 95.61C111.52 95.14 111.21 94.67 110.88 94.23C110.57 93.77 110.24 93.31 109.89 92.87C109.56 92.43 109.22 91.98 108.85 91.55C108.819 91.5268 108.795 91.4957 108.78 91.46C108.45 91.06 108.12 90.67 107.76 90.29C107.39 89.87 107.02 89.47 106.62 89.07C106.24 88.66 105.85 88.27 105.43 87.88C105.06 87.52 104.67 87.16 104.26 86.81L104.2 86.75C103.99 86.57 103.78 86.38 103.57 86.21C103.35 86.02 103.13 85.84 102.91 85.67C102.49 85.32 102.04 84.97 101.59 84.64C101.36 84.46 101.13 84.28 100.89 84.12C100.65 83.96 100.41 83.79 100.18 83.62C100.08 83.55 99.9804 83.49 99.8804 83.42C99.4504 83.13 99.0004 82.84 98.5504 82.56C98.0304 82.23 97.5004 81.92 96.9604 81.62C96.7504 81.5 96.5503 81.38 96.3303 81.28C96.1203 81.16 95.9204 81.06 95.7004 80.95C95.4999 80.8348 95.2928 80.7313 95.0803 80.64C94.6103 80.4 94.1204 80.17 93.6304 79.95C93.4904 79.88 93.3403 79.81 93.1903 79.75C92.8403 79.59 92.4803 79.46 92.1203 79.31C92.0539 79.2747 91.9835 79.2479 91.9104 79.23C91.6604 79.12 91.4103 79.02 91.1503 78.93C90.9103 78.84 90.6704 78.75 90.4104 78.67L90.3904 78.66L90.3804 78.65C90.1404 78.56 89.8904 78.48 89.6304 78.4C89.2104 78.25 88.7804 78.13 88.3604 78H109.33C112.439 77.9952 115.519 78.6037 118.392 79.7909C121.265 80.9781 123.876 82.7205 126.075 84.9184C128.274 87.1163 130.017 89.7264 131.206 92.5992C132.394 95.472 133.004 98.5511 133 101.66Z" fill="url(#paint3_linear_518_35)"/>
<path d="M133 120.471V140.331C133.005 143.441 132.397 146.521 131.209 149.395C130.021 152.269 128.278 154.881 126.079 157.08C123.88 159.279 121.269 161.022 118.394 162.21C115.52 163.397 112.44 164.006 109.33 164.001H84.0902C83.5502 163.721 83.0102 163.431 82.4802 163.121H82.4702C82.4602 163.111 82.4602 163.111 82.4502 163.111C73.1086 157.723 66.1792 148.97 63.0802 138.641C62.4943 136.69 62.0564 134.697 61.7702 132.681V132.661C61.6302 131.711 61.5202 130.741 61.4502 129.771C63.3278 135.877 67.1139 141.221 72.2525 145.017C77.3912 148.813 83.6115 150.861 90.0002 150.861C90.7502 150.861 91.4802 150.841 92.2002 150.781H92.6302C95.8171 150.782 98.9939 150.423 102.1 149.711C102.114 149.709 102.127 149.706 102.14 149.701C103.24 149.451 104.32 149.151 105.39 148.811C111.685 146.795 117.417 143.327 122.125 138.687C126.832 134.047 130.383 128.366 132.49 122.101C132.5 122.091 132.5 122.091 132.5 122.081C132.5 122.07 132.503 122.059 132.51 122.051C132.68 121.531 132.848 121.001 133 120.471Z" fill="url(#paint4_linear_518_35)"/>
<path d="M84.09 164H70.67C64.3924 164 58.372 161.506 53.9331 157.067C49.4942 152.628 47.0003 146.608 47 140.33V119.95C47.4 118.92 47.84 117.9 48.32 116.91L48.34 116.89C48.6 116.35 48.87 115.82 49.16 115.3C49.33 114.98 49.51 114.66 49.68 114.34C50.04 113.74 50.39 113.15 50.77 112.57C51.13 112.01 51.49 111.46 51.88 110.91C52.27 110.36 52.68 109.83 53.09 109.3C53.5 108.77 53.93 108.26 54.36 107.76C54.79 107.26 55.24 106.76 55.71 106.27C56.18 105.78 56.64 105.31 57.13 104.85C58.09 103.93 59.1 103.05 60.15 102.22C61.18 101.4 62.25 100.64 63.35 99.9203C63.3788 99.9015 63.4089 99.8848 63.44 99.8703C63.99 99.5103 64.56 99.1703 65.12 98.8303C65.153 98.8197 65.1836 98.8027 65.21 98.7803L66.02 98.3303C66.72 97.9503 67.42 97.5903 68.14 97.2503C68.48 97.0803 68.83 96.9303 69.18 96.7703C69.61 96.5803 70.05 96.3903 70.48 96.2203C70.89 96.0603 71.31 95.9003 71.73 95.7403L71.75 95.7303C72.01 95.6403 72.28 95.5403 72.54 95.4503C72.91 95.3303 73.3 95.2003 73.68 95.0903C73.9456 94.9933 74.216 94.9099 74.49 94.8403C75.15 94.6503 75.82 94.4703 76.49 94.3203C76.4453 94.3593 76.3986 94.3961 76.35 94.4303C70.1184 97.6406 65.2125 102.938 62.4891 109.397C59.7657 115.857 59.398 123.067 61.45 129.77C61.52 130.74 61.63 131.71 61.77 132.66V132.68C62.0562 134.697 62.4941 136.689 63.08 138.64C66.1794 148.967 73.1079 157.72 82.448 163.106C82.458 163.106 82.458 163.106 82.468 163.116H82.478C83.01 163.43 83.548 163.72 84.09 164Z" fill="url(#paint5_linear_518_35)"/>
<path d="M117.5 109.32C117.29 108.33 117.04 107.34 116.75 106.38C116.66 106.06 116.55 105.72 116.44 105.4C116.4 105.26 116.37 105.16 116.35 105.11C116.27 104.85 116.18 104.59 116.09 104.34C115.98 104.04 115.88 103.73 115.75 103.43C115.67 103.22 115.59 103 115.5 102.78C115.34 102.38 115.17 101.97 115 101.56C114.8 101.11 114.6 100.66 114.39 100.22C114.27 99.98 114.16 99.75 114.03 99.51C113.92 99.28 113.8 99.04 113.68 98.81C113.56 98.58 113.43 98.33 113.29 98.09C113.11 97.73 112.9 97.39 112.7 97.05C112.43 96.58 112.14 96.12 111.86 95.66C111.83 95.65 111.83 95.64 111.82 95.61C111.51 95.14 111.2 94.68 110.88 94.23C110.56 93.78 110.23 93.32 109.89 92.87C109.55 92.42 109.21 91.99 108.85 91.55C108.819 91.5267 108.795 91.4957 108.78 91.46C108.44 91.06 108.11 90.67 107.76 90.29C107.38 89.87 107.01 89.47 106.62 89.07C106.23 88.67 105.85 88.27 105.43 87.88C105.06 87.52 104.67 87.16 104.26 86.81L104.2 86.75C103.99 86.57 103.78 86.38 103.57 86.21L102.91 85.67C102.49 85.32 102.04 84.97 101.59 84.64C101.36 84.47 101.12 84.3 100.89 84.12C100.66 83.94 100.41 83.79 100.18 83.62C100.08 83.55 99.98 83.49 99.88 83.42C99.45 83.13 99 82.84 98.55 82.56C98.03 82.23 97.5 81.92 96.96 81.62C96.75 81.5 96.55 81.38 96.33 81.28C96.12 81.16 95.92 81.06 95.7 80.95C95.4995 80.8347 95.2925 80.7312 95.08 80.64C94.61 80.4 94.13 80.17 93.63 79.95C93.49 79.88 93.34 79.81 93.19 79.75C92.83 79.59 92.48 79.44 92.12 79.31C92.0536 79.2747 91.9831 79.2478 91.91 79.23C91.66 79.12 91.41 79.02 91.15 78.93C90.91 78.84 90.67 78.75 90.41 78.67L90.39 78.66L90.38 78.65C90.14 78.56 89.89 78.48 89.63 78.4C89.21 78.25 88.78 78.13 88.36 78H70.66C67.5528 77.9995 64.4759 78.6111 61.6051 79.7999C58.7343 80.9888 56.1258 82.7315 53.9287 84.9287C51.7315 87.1258 49.9888 89.7343 48.8 92.6051C47.6111 95.4759 46.9995 98.5527 47 101.66V119.95C47.41 118.9 47.86 117.87 48.35 116.87C48.92 115.69 49.55 114.55 50.22 113.44C50.39 113.15 50.58 112.86 50.77 112.57C51.13 112.01 51.49 111.46 51.88 110.91C52.27 110.36 52.66 109.83 53.09 109.3C53.49 108.78 53.91 108.26 54.36 107.76C54.81 107.26 55.24 106.75 55.71 106.27C56.16 105.78 56.64 105.3 57.13 104.85C58.0919 103.923 59.0998 103.045 60.15 102.22C61.1731 101.405 62.2378 100.644 63.34 99.94C63.3709 99.9133 63.4044 99.8899 63.44 99.87C63.97 99.52 64.5 99.19 65.05 98.87C66.7971 97.8632 68.6114 96.9778 70.48 96.22C70.89 96.06 71.31 95.9 71.73 95.74L71.75 95.73C72.01 95.64 72.28 95.54 72.54 95.45C72.5846 95.4413 72.6282 95.4279 72.67 95.41C73.01 95.29 73.35 95.19 73.68 95.09C73.9456 94.993 74.216 94.9096 74.49 94.84C75.15 94.65 75.82 94.47 76.49 94.32C76.44 94.35 76.4 94.4 76.35 94.43C76.46 94.37 76.56 94.33 76.66 94.27H76.69C80.8189 92.1937 85.3784 91.118 90 91.13C97.5539 91.1214 104.829 93.9849 110.35 99.14C110.38 99.17 110.41 99.19 110.42 99.22C112.129 100.819 113.643 102.615 114.93 104.57L114.94 104.58C115.16 104.92 115.38 105.26 115.59 105.61C116.328 106.835 116.976 108.112 117.53 109.43C117.517 109.394 117.507 109.357 117.5 109.32Z" fill="url(#paint6_linear_518_35)"/>
<g style="mix-blend-mode:multiply" opacity="0.08">
<path d="M133 102.57V120.47C130.47 129.218 125.164 136.906 117.882 142.373C110.599 147.841 101.736 150.792 92.6302 150.78H92.2002C97.3306 150.399 102.276 148.7 106.556 145.846C110.836 142.991 114.306 139.08 116.63 134.49C116.64 134.48 116.63 134.48 116.63 134.48C122.83 127.37 128.78 117.18 133 102.57Z" fill="black"/>
</g>
<g style="mix-blend-mode:multiply" opacity="0.08">
<path d="M95.7402 164H84.0902C77.7051 160.705 72.2712 155.829 68.3076 149.836C64.3439 143.844 61.983 136.935 61.4502 129.77C62.9785 134.747 65.7851 139.236 69.5902 142.79C76.2402 152.083 85.2743 159.411 95.7402 164Z" fill="black"/>
</g>
<g style="mix-blend-mode:multiply" opacity="0.08">
<path d="M76.49 94.3203C76.4453 94.3593 76.3986 94.3961 76.35 94.4303C73.1911 96.0631 70.347 98.2436 67.95 100.87C61.69 106.3 53.9 115.01 47 128.49V119.95C47.6159 118.354 48.3375 116.801 49.16 115.3C49.33 114.98 49.51 114.66 49.68 114.34C50.04 113.74 50.39 113.15 50.77 112.57C51.13 112.01 51.49 111.46 51.88 110.91C52.27 110.36 52.68 109.83 53.09 109.3C53.5 108.77 53.93 108.26 54.36 107.76C54.79 107.26 55.24 106.76 55.71 106.27C56.18 105.78 56.64 105.31 57.13 104.85C58.09 103.93 59.1 103.05 60.15 102.22C61.18 101.4 62.25 100.64 63.35 99.9203C63.3788 99.9015 63.4089 99.8848 63.44 99.8703C63.99 99.5103 64.56 99.1703 65.12 98.8303C65.153 98.8197 65.1836 98.8027 65.21 98.7803L66.02 98.3303C66.72 97.9503 67.42 97.5903 68.14 97.2503C68.48 97.0803 68.83 96.9303 69.18 96.7703C69.61 96.5803 70.05 96.3903 70.48 96.2203C71.16 95.9503 71.85 95.6903 72.54 95.4503C72.91 95.3303 73.3 95.2003 73.68 95.0903C73.9456 94.9933 74.216 94.9099 74.49 94.8403C75.148 94.6503 75.82 94.4703 76.49 94.3203Z" fill="black"/>
</g>
<g style="mix-blend-mode:multiply" opacity="0.08">
<path d="M117.53 109.43C116.976 108.112 116.328 106.835 115.59 105.61C115.418 105.24 115.2 104.894 114.94 104.58L114.93 104.57C113.643 102.615 112.129 100.819 110.42 99.22C110.41 99.19 110.38 99.17 110.35 99.14C103.8 92.24 91.8099 83.45 70.6699 78H88.3599C88.7799 78.13 89.2099 78.25 89.6299 78.4C89.8899 78.48 90.1399 78.56 90.3799 78.65C90.3899 78.65 90.3999 78.67 90.4099 78.67C90.6699 78.75 90.9099 78.84 91.1499 78.93C91.4099 79.02 91.6599 79.12 91.9099 79.23C91.983 79.2478 92.0535 79.2747 92.1199 79.31C92.4799 79.44 92.8299 79.59 93.1899 79.75C93.3399 79.81 93.4899 79.88 93.6299 79.95C94.1299 80.17 94.6099 80.4 95.0799 80.64C95.2924 80.7312 95.4994 80.8347 95.6999 80.95C95.9199 81.06 96.1199 81.16 96.3299 81.28C96.5499 81.38 96.7499 81.5 96.9599 81.62C97.4999 81.92 98.0299 82.23 98.5499 82.56C98.9999 82.84 99.4499 83.13 99.8799 83.42C99.9799 83.49 100.08 83.55 100.18 83.62C100.41 83.79 100.65 83.95 100.89 84.12C101.13 84.29 101.36 84.47 101.59 84.64C102.04 84.97 102.49 85.32 102.91 85.67L103.57 86.21C103.78 86.38 103.99 86.57 104.2 86.75L104.26 86.81C104.67 87.16 105.06 87.52 105.43 87.88C105.85 88.27 106.24 88.66 106.62 89.07C107 89.48 107.38 89.87 107.76 90.29C108.11 90.67 108.44 91.06 108.78 91.46C108.795 91.4957 108.819 91.5267 108.85 91.55C109.21 91.99 109.55 92.43 109.89 92.87C110.23 93.31 110.56 93.77 110.88 94.23C111.2 94.69 111.51 95.14 111.82 95.61C111.83 95.64 111.83 95.65 111.86 95.66C112.14 96.12 112.43 96.58 112.7 97.05C112.9 97.39 113.11 97.73 113.29 98.09C113.43 98.33 113.55 98.57 113.68 98.81C113.81 99.05 113.92 99.28 114.03 99.51C114.16 99.75 114.27 99.98 114.39 100.22C114.6 100.66 114.8 101.11 115 101.56C115.17 101.97 115.34 102.38 115.5 102.78C115.59 103 115.67 103.22 115.75 103.43C115.88 103.73 115.98 104.04 116.09 104.34C116.18 104.59 116.27 104.85 116.35 105.11C116.37 105.16 116.4 105.26 116.44 105.4C116.5 105.62 116.59 105.95 116.69 106.32C116.98 107.4 117.37 108.85 117.5 109.32C117.507 109.357 117.517 109.394 117.53 109.43Z" fill="black"/>
</g>
<g style="mix-blend-mode:multiply" opacity="0.25">
<path d="M82.4695 163.12C82.4595 163.11 82.4595 163.11 82.4495 163.11C73.1079 157.722 66.1785 148.969 63.0795 138.64C62.4936 136.689 62.0557 134.696 61.7695 132.68C61.8095 132.79 61.9595 133.35 62.2295 134.24C62.5195 135.24 62.9695 136.66 63.5795 138.31C63.9095 139.14 64.2395 140.03 64.6395 140.95C64.8295 141.42 65.0495 141.89 65.2795 142.37C65.5095 142.85 65.7195 143.33 65.9695 143.82C66.4495 144.81 67.0095 145.79 67.5795 146.78C68.1495 147.77 68.7795 148.76 69.4395 149.71C70.0795 150.68 70.7695 151.62 71.4795 152.52C72.1895 153.42 72.9095 154.29 73.6495 155.1C74.3895 155.91 75.0995 156.68 75.8195 157.39C76.5395 158.1 77.2095 158.74 77.8895 159.34C78.5695 159.94 79.1495 160.46 79.7195 160.93C80.2895 161.4 80.7695 161.78 81.1795 162.11C81.9475 162.706 82.4195 163.07 82.4695 163.12Z" fill="black"/>
</g>
<g style="mix-blend-mode:multiply" opacity="0.25">
<path d="M132.49 122.1C130.383 128.365 126.832 134.046 122.125 138.686C117.417 143.326 111.684 146.794 105.39 148.81C104.32 149.15 103.24 149.45 102.14 149.7C102.28 149.63 102.88 149.39 103.83 149.03C104.36 148.81 105.09 148.6 105.78 148.27C106.52 147.92 107.41 147.59 108.28 147.14C108.72 146.92 109.18 146.69 109.66 146.46C110.13 146.2 110.61 145.93 111.11 145.66C111.625 145.393 112.125 145.099 112.61 144.78C113.11 144.46 113.64 144.17 114.15 143.82C114.66 143.47 115.18 143.12 115.7 142.76C116.22 142.4 116.71 141.99 117.23 141.61C117.75 141.23 118.25 140.81 118.75 140.39C119.25 139.97 119.76 139.56 120.22 139.09C120.7 138.64 121.2 138.22 121.66 137.76C122.12 137.3 122.57 136.82 123.02 136.36C123.86 135.38 124.75 134.47 125.49 133.48C126.28 132.54 126.95 131.55 127.63 130.64C127.94 130.17 128.24 129.7 128.53 129.26C128.829 128.838 129.106 128.4 129.36 127.95C129.86 127.09 130.34 126.31 130.71 125.59C131.08 124.87 131.45 124.25 131.68 123.71C132.1 122.84 132.4 122.27 132.49 122.1Z" fill="black"/>
</g>
<g style="mix-blend-mode:multiply" opacity="0.25">
<path d="M71.7299 95.7402L69.6898 96.9002C68.9998 97.2702 68.3399 97.6902 67.6699 98.0902C66.9999 98.4902 66.3499 98.9202 65.6999 99.3302L65.4499 99.4902L65.2399 99.6402L64.7498 99.9802L64.2699 100.32L64.0298 100.49L63.9199 100.57C63.9299 100.56 63.9398 100.55 63.9398 100.54L63.8398 100.63L61.5598 102.38L60.9899 102.81L60.8398 102.91L60.7899 102.95H60.7798V102.96L60.7699 102.97L60.7399 102.99L60.4998 103.2L59.4299 104.16C59.0699 104.48 58.7199 104.8 58.3499 105.1L57.8098 105.57L57.3398 106.02L56.3499 107C56.0299 107.35 55.6899 107.69 55.3599 108.03L55.1099 108.29L55.0598 108.34L55.0499 108.35H55.0399L55.0299 108.37L55.0099 108.38L54.8999 108.52L54.4199 109.06L53.9499 109.59L53.7299 109.83L53.4999 110.1L52.5699 111.2L51.7099 112.3L51.2599 112.86L50.8398 113.42C50.5598 113.74 50.2899 114.19 50.0199 114.57C49.4799 115.35 48.9198 116.13 48.3398 116.89C48.5998 116.35 48.8699 115.82 49.1599 115.3C49.3299 114.98 49.5099 114.66 49.6799 114.34C50.0399 113.74 50.3899 113.15 50.7699 112.57C51.1299 112.01 51.4899 111.46 51.8799 110.91C52.2699 110.36 52.6798 109.83 53.0898 109.3C53.4998 108.77 53.9299 108.26 54.3599 107.76C54.7899 107.26 55.2399 106.76 55.7099 106.27C56.1799 105.78 56.6399 105.31 57.1299 104.85C58.0899 103.93 59.0999 103.05 60.1499 102.22C61.1799 101.4 62.2499 100.64 63.3499 99.9202C63.3786 99.9014 63.4087 99.8847 63.4398 99.8702C63.9899 99.5102 64.5598 99.1702 65.1198 98.8302C65.1528 98.8196 65.1835 98.8026 65.2099 98.7802L66.0199 98.3302C66.7199 97.9502 67.4199 97.5902 68.1399 97.2502C68.4799 97.0802 68.8299 96.9302 69.1799 96.7702C69.6099 96.5802 70.0499 96.3902 70.4799 96.2202C70.8899 96.0602 71.3099 95.9002 71.7299 95.7402Z" fill="black"/>
</g>
<g style="mix-blend-mode:multiply" opacity="0.25">
<path d="M115.5 102.78C115.16 102.19 114.84 101.62 114.49 101.04L114.23 100.61C114.14 100.45 114.08 100.34 113.98 100.19L113.45 99.34L112.92 98.51L112.36 97.67L111.34 96.18L111.32 96.16C111.281 96.1211 111.248 96.0775 111.22 96.03C111.219 96.0224 111.216 96.0154 111.21 96.01V96L110.46 95.03C110.33 94.86 110.22 94.7 110.08 94.54L109.69 94.05L109.3 93.55L109.13 93.34L108.93 93.09L108.19 92.21L108.17 92.19C108.153 92.1675 108.133 92.1473 108.11 92.13C108.078 92.0949 108.048 92.0582 108.02 92.02C107.67 91.65 107.34 91.26 107.01 90.9L105.91 89.75L104.748 88.606L103.598 87.536L103.568 87.506V87.496H103.558C103.268 87.236 102.978 86.976 102.668 86.716L102.218 86.356L101.758 85.976L100.838 85.216L100.368 84.846L99.9082 84.496C99.7382 84.376 99.6082 84.276 99.4282 84.156L98.9682 83.826L98.4782 83.476L98.2382 83.296C98.2082 83.276 98.1382 83.236 98.1382 83.226L98.0082 83.146L97.0082 82.476L96.0382 81.846L96.0082 81.836C95.6982 81.636 95.3882 81.436 95.0482 81.246L94.0482 80.656L93.0482 80.076L92.0282 79.526L91.9982 79.506L91.8482 79.426L91.8282 79.416C91.3682 79.176 90.8882 78.906 90.4082 78.666C90.6682 78.746 90.9082 78.836 91.1482 78.926C91.4082 79.016 91.6582 79.116 91.9082 79.226C91.9813 79.2438 92.0518 79.2707 92.1182 79.306C92.4782 79.436 92.8282 79.586 93.1882 79.746C93.3382 79.806 93.4882 79.876 93.6282 79.946C94.1282 80.166 94.6082 80.396 95.0782 80.636C95.2907 80.7273 95.4977 80.8308 95.6982 80.946C95.9182 81.056 96.1182 81.156 96.3282 81.276C96.5482 81.376 96.7482 81.496 96.9582 81.616C97.4982 81.916 98.0282 82.226 98.5482 82.556C98.9982 82.836 99.4482 83.126 99.8782 83.416C99.9782 83.486 100.078 83.546 100.178 83.616C100.408 83.786 100.648 83.946 100.888 84.116C101.128 84.286 101.358 84.466 101.588 84.636C102.038 84.966 102.488 85.316 102.908 85.666L103.568 86.206C103.778 86.376 103.988 86.566 104.198 86.746L104.258 86.806C104.668 87.156 105.058 87.516 105.428 87.876C105.848 88.266 106.238 88.656 106.618 89.066C106.998 89.476 107.378 89.866 107.758 90.286C108.108 90.666 108.438 91.056 108.778 91.456C108.793 91.4917 108.817 91.5228 108.848 91.546C109.208 91.986 109.548 92.426 109.888 92.866C110.228 93.306 110.558 93.766 110.878 94.226C111.198 94.686 111.508 95.136 111.818 95.606C111.828 95.636 111.828 95.646 111.858 95.656C112.138 96.116 112.428 96.576 112.698 97.046C112.898 97.386 113.108 97.726 113.288 98.086C113.428 98.326 113.548 98.566 113.678 98.806C113.808 99.046 113.918 99.276 114.028 99.506C114.158 99.746 114.268 99.976 114.388 100.216C114.598 100.656 114.798 101.106 114.998 101.556C115.17 101.97 115.34 102.38 115.5 102.78Z" fill="black"/>
</g>
<g style="mix-blend-mode:screen" opacity="0.4">
<path d="M82.4476 163.106C82.3276 163.056 81.7876 162.836 80.9676 162.436C80.4876 162.206 79.9176 161.926 79.2776 161.556C78.6376 161.186 77.9176 160.746 77.1876 160.236C76.3708 159.698 75.583 159.117 74.8276 158.496C73.9742 157.808 73.1564 157.077 72.3776 156.306C71.533 155.491 70.7351 154.63 69.9876 153.726C69.2176 152.806 68.4776 151.836 67.7876 150.836C67.1076 149.816 66.4676 148.776 65.8976 147.726C65.5999 147.21 65.3295 146.68 65.0876 146.136C64.8276 145.606 64.5876 145.076 64.3676 144.556C63.9331 143.548 63.5558 142.516 63.2376 141.466C62.9076 140.476 62.6876 139.516 62.4776 138.636C62.1533 137.211 61.9393 135.763 61.8376 134.306C61.7676 133.376 61.7676 132.796 61.7676 132.676C62.0537 134.693 62.4916 136.685 63.0776 138.636C66.1765 148.965 73.1059 157.719 82.4476 163.106Z" fill="white"/>
</g>
<g style="mix-blend-mode:screen" opacity="0.4">
<path d="M132.49 122.1C132.46 122.26 132.31 122.89 132.06 123.86C131.92 124.44 131.68 125.12 131.41 125.9C131.112 126.777 130.768 127.638 130.38 128.48C129.99 129.43 129.44 130.39 128.9 131.43C127.615 133.642 126.125 135.727 124.45 137.66C123.98 138.15 123.52 138.65 123.05 139.14C122.58 139.63 122.06 140.1 121.57 140.57C121.08 141.04 120.53 141.47 120 141.9C119.47 142.33 118.95 142.77 118.39 143.15C117.325 143.935 116.217 144.66 115.07 145.32C114.004 145.935 112.906 146.493 111.78 146.99C111.23 147.22 110.72 147.47 110.21 147.67C109.68 147.85 109.18 148.03 108.69 148.2C107.821 148.509 106.936 148.772 106.04 148.99C105.345 149.169 104.64 149.31 103.93 149.41C102.93 149.58 102.3 149.68 102.14 149.7C103.24 149.45 104.32 149.15 105.39 148.81C111.684 146.794 117.417 143.326 122.125 138.686C126.832 134.046 130.383 128.365 132.49 122.1Z" fill="white"/>
</g>
<g style="mix-blend-mode:screen" opacity="0.4">
<path d="M60.7402 102.991C60.7502 102.971 60.7702 102.971 60.7702 102.961V102.971L60.7402 102.991Z" fill="white"/>
</g>
<g style="mix-blend-mode:screen" opacity="0.4">
<path d="M71.7303 95.7402C71.3103 95.9002 70.8903 96.0602 70.4803 96.2202C68.6117 96.978 66.7974 97.8634 65.0503 98.8702C64.5003 99.1902 63.9703 99.5202 63.4403 99.8702C63.4047 99.8901 63.3712 99.9135 63.3403 99.9402C62.2381 100.644 61.1734 101.405 60.1503 102.22C59.1001 103.046 58.0922 103.923 57.1303 104.85C56.6403 105.3 56.1603 105.78 55.7103 106.27C55.2403 106.75 54.8003 107.25 54.3603 107.76C53.9203 108.27 53.4903 108.78 53.0903 109.3C52.6603 109.83 52.2603 110.37 51.8803 110.91C51.5003 111.45 51.1303 112.01 50.7703 112.57C50.5803 112.86 50.3903 113.15 50.2203 113.44C49.5503 114.55 48.9203 115.69 48.3503 116.87C48.3403 116.88 48.3303 116.9 48.3203 116.91C48.6503 116 49.0003 115.1 49.3703 114.22C49.5803 113.77 49.7103 113.35 49.9703 112.88L50.3203 112.22L50.6703 111.6C50.9103 111.16 51.1103 110.79 51.4103 110.32L52.2103 109.13L52.4103 108.83L52.6403 108.51L53.5203 107.37L53.6303 107.23L53.7703 107.06L54.0003 106.78C54.3103 106.42 54.6103 106.05 54.9303 105.69L55.9603 104.64L56.2103 104.38L56.4003 104.19L56.5203 104.08L57.0503 103.6C57.4003 103.28 57.7703 102.97 58.1403 102.66L59.2303 101.73L59.5003 101.5L59.6003 101.42L59.6403 101.4L59.7103 101.34L59.8603 101.24L60.4503 100.83L62.8403 99.2502L62.7403 99.3402C62.827 99.2647 62.9208 99.1977 63.0203 99.1402L63.1403 99.0602L63.4003 98.9202L63.9203 98.6402L64.4403 98.3602L64.7203 98.2102L64.9903 98.0702C65.7103 97.7102 66.4403 97.4102 67.1803 97.1102C67.9203 96.8102 68.6803 96.5602 69.4403 96.3102C70.1903 96.0802 70.9703 95.9002 71.7303 95.7402Z" fill="white"/>
</g>
<g style="mix-blend-mode:screen" opacity="0.4">
<path d="M107.87 91.6895L108.07 92.0695L108.02 92.0195C107.951 91.9193 107.9 91.8076 107.87 91.6895Z" fill="white"/>
</g>
<g style="mix-blend-mode:screen" opacity="0.4">
<path d="M111.13 95.8398L111.17 95.9398C111.153 95.9079 111.14 95.8744 111.13 95.8398Z" fill="white"/>
</g>
<g style="mix-blend-mode:screen" opacity="0.4">
<path d="M111.23 96.0293L111.63 96.3493C111.577 96.3335 111.527 96.31 111.48 96.2793C111.429 96.2539 111.381 96.2201 111.34 96.1793L111.32 96.1593L111.23 96.0293Z" fill="white"/>
</g>
<g style="mix-blend-mode:screen" opacity="0.4">
<path d="M115.5 102.78C115.34 102.38 115.17 101.97 115 101.56C114.8 101.11 114.61 100.66 114.39 100.22C114.27 99.9799 114.16 99.7499 114.03 99.5099C113.93 99.2799 113.8 99.0399 113.68 98.8099C113.56 98.5799 113.43 98.3299 113.29 98.0899C113.11 97.7299 112.9 97.3899 112.7 97.0499C112.43 96.5799 112.14 96.1199 111.86 95.6599C111.83 95.6499 111.83 95.6399 111.82 95.6099C111.52 95.1399 111.21 94.6699 110.88 94.2299C110.57 93.7699 110.24 93.3099 109.89 92.8699C109.56 92.4299 109.22 91.9799 108.85 91.5499C108.819 91.5267 108.795 91.4956 108.78 91.4599C108.45 91.0599 108.12 90.6699 107.76 90.2899C107.39 89.8699 107.02 89.4699 106.62 89.0699C106.24 88.6599 105.85 88.2699 105.43 87.8799C105.06 87.5199 104.67 87.1599 104.26 86.8099L104.2 86.7499C103.99 86.5699 103.78 86.3799 103.57 86.2099C103.35 86.0199 103.13 85.8399 102.91 85.6699C102.49 85.3199 102.04 84.9699 101.59 84.6399C101.36 84.4599 101.13 84.2799 100.89 84.1199C100.65 83.9599 100.41 83.7899 100.18 83.6199C100.08 83.5499 99.9801 83.4899 99.8801 83.4199C99.4501 83.1299 99.0001 82.8399 98.5501 82.5599C98.0301 82.2299 97.5001 81.9199 96.9601 81.6199C96.7501 81.4999 96.5501 81.3799 96.3301 81.2799C96.1201 81.1599 95.9201 81.0599 95.7001 80.9499C95.4996 80.8347 95.2926 80.7312 95.0801 80.6399C94.6101 80.3999 94.1201 80.1699 93.6301 79.9499C93.4901 79.8799 93.3401 79.8099 93.1901 79.7499C92.8401 79.5899 92.4801 79.4599 92.1201 79.3099C92.0537 79.2746 91.9832 79.2478 91.9102 79.2299C91.6602 79.1199 91.4101 79.0199 91.1501 78.9299C90.9101 78.8399 90.6702 78.7499 90.4102 78.6699C90.9302 78.7699 91.4602 78.8799 91.9702 79.0299L92.2401 79.1099L92.2101 79.0899L92.7701 79.2499L93.3401 79.4299L94.4501 79.8299L94.9901 80.0299L95.5402 80.2499C95.8902 80.3899 96.2501 80.5499 96.6201 80.7099L97.1701 80.9599L97.7401 81.2499L98.8101 81.8099L98.9401 81.8799L99.1002 81.9699L99.3601 82.1199L99.8801 82.4199L100.42 82.7499C100.58 82.8399 100.77 82.9699 100.94 83.0799L101.46 83.4199L101.95 83.7599L102.93 84.4799L103.41 84.8399L103.9 85.2299C104.21 85.4699 104.52 85.7399 104.84 85.9999L104.86 86.0199L104.89 86.0599L104.95 86.1199L104.92 86.0799L106.16 87.1999L107.3 88.3599L108.42 89.5799C108.79 90.0099 109.14 90.4199 109.49 90.8499L109.51 90.8899L109.69 91.2299C109.66 91.1261 109.613 91.028 109.55 90.9399L109.58 90.9699L110.33 91.9799L110.51 92.2399L110.72 92.5199L111.07 93.0399L111.42 93.5699C111.54 93.7399 111.66 93.9399 111.76 94.1099L112.43 95.2099L112.45 95.2499C112.386 95.1584 112.304 95.0803 112.21 95.0199C112.14 94.9899 112.11 94.9799 112.09 94.9699L112.45 95.2499L112.46 95.2699L112.49 95.2899L112.96 96.1699L113.18 96.6199C113.28 96.8099 113.34 96.9299 113.41 97.0899L113.84 97.9899L114.04 98.4499L114.24 98.9399L114.61 99.8699C114.67 100.02 114.74 100.21 114.79 100.36L114.94 100.83C115.04 101.15 115.17 101.48 115.24 101.8L115.5 102.78Z" fill="white"/>
</g>
</g>
</g>
<g filter="url(#filter3_d_518_35)">
<mask id="mask1_518_35" style="mask-type:luminance" maskUnits="userSpaceOnUse" x="71" y="99" width="39" height="44">
<path d="M110 99H71V142.624H110V99Z" fill="white"/>
</mask>
<g mask="url(#mask1_518_35)">
<path d="M109.905 111.578C109.835 111.83 109.76 112.082 109.685 112.329C109.681 112.348 109.674 112.367 109.665 112.384C109.66 112.404 109.655 112.424 109.649 112.439C109.64 112.467 109.631 112.496 109.624 112.525C109.584 112.651 109.544 112.772 109.504 112.888C109.474 112.978 109.444 113.069 109.414 113.154C109.4 113.204 109.384 113.253 109.364 113.301C109.357 113.333 109.347 113.365 109.334 113.396V113.401C109.334 113.406 109.329 113.411 109.324 113.421C109.318 113.433 109.313 113.445 109.309 113.457C109.304 113.467 109.299 113.482 109.294 113.492C109.239 113.648 109.184 113.809 109.124 113.965C109.064 114.121 109.003 114.288 108.938 114.444C108.828 114.731 108.708 115.018 108.588 115.3C108.533 115.436 108.473 115.572 108.407 115.703C108.352 115.839 108.292 115.975 108.227 116.106C108.217 116.126 108.207 116.151 108.197 116.171C108.057 116.478 107.907 116.78 107.751 117.078C107.731 117.126 107.708 117.173 107.681 117.219C107.516 117.541 107.346 117.853 107.165 118.165C107.16 118.186 107.15 118.205 107.135 118.221C107.05 118.382 106.955 118.538 106.865 118.689C106.745 118.896 106.624 119.097 106.494 119.298C106.464 119.349 106.434 119.399 106.399 119.45C106.294 119.621 106.179 119.797 106.064 119.968C105.838 120.311 105.608 120.648 105.362 120.98C105.351 121.003 105.335 121.023 105.317 121.041C105.281 121.099 105.24 121.154 105.197 121.207C105.192 121.217 105.182 121.227 105.177 121.237C105.142 121.288 105.102 121.338 105.067 121.383C105.032 121.429 105.002 121.474 104.967 121.519C104.962 121.529 104.952 121.539 104.947 121.55C104.917 121.59 104.887 121.625 104.852 121.665C104.781 121.761 104.711 121.852 104.636 121.942C104.597 121.998 104.555 122.052 104.511 122.103C104.481 122.144 104.451 122.184 104.416 122.224C104.381 122.265 104.346 122.31 104.311 122.35C104.286 122.386 104.256 122.421 104.23 122.451L104.22 122.461C104.17 122.521 104.125 122.582 104.075 122.637C103.965 122.768 103.855 122.899 103.74 123.03C103.715 123.06 103.695 123.086 103.67 123.111C103.649 123.137 103.628 123.162 103.604 123.186C103.484 123.327 103.359 123.463 103.229 123.604C103.199 123.639 103.169 123.675 103.134 123.71C103.099 123.745 103.064 123.786 103.028 123.821C102.958 123.896 102.888 123.972 102.813 124.047C102.781 124.087 102.746 124.124 102.708 124.158C102.538 124.339 102.357 124.521 102.172 124.702C102.092 124.783 102.007 124.868 101.917 124.954C101.451 125.407 100.97 125.84 100.469 126.263C100.455 126.277 100.44 126.288 100.424 126.298C100.344 126.369 100.259 126.44 100.174 126.51C100.104 126.57 100.028 126.631 99.9533 126.691C99.9333 126.706 99.9133 126.722 99.8982 126.732C99.773 126.837 99.6428 126.938 99.5176 127.034C99.3323 127.18 99.147 127.321 98.9617 127.457C98.9116 127.497 98.8565 127.532 98.8064 127.568C98.7876 127.584 98.7676 127.599 98.7463 127.613C98.7369 127.624 98.7248 127.633 98.7113 127.638C98.6712 127.668 98.6311 127.699 98.5911 127.724C98.4659 127.814 98.3457 127.9 98.2205 127.986C98.1644 128.029 98.1059 128.07 98.0452 128.106C97.895 128.207 97.7497 128.308 97.5994 128.404C97.5344 128.449 97.4742 128.489 97.4091 128.529C97.344 128.57 97.2789 128.615 97.2138 128.655C97.1236 128.711 97.0335 128.771 96.9433 128.822C96.893 128.86 96.8393 128.894 96.7831 128.922L96.7079 128.968C96.6779 128.988 96.6428 129.008 96.6128 129.028C96.2071 129.27 95.7964 129.501 95.3807 129.728C95.2104 129.819 95.0351 129.909 94.8598 130C94.8292 130.019 94.7974 130.036 94.7647 130.05C94.7597 130.05 94.7597 130.055 94.7547 130.055C94.8098 129.844 94.8599 129.627 94.9099 129.411C94.95 129.24 94.9901 129.068 95.0251 128.897C95.1103 128.519 95.1804 128.137 95.2455 127.749V127.734C95.2474 127.732 95.2488 127.729 95.2497 127.727C95.2506 127.724 95.2509 127.721 95.2505 127.719C95.2605 127.668 95.2705 127.613 95.2755 127.563C95.2906 127.477 95.3056 127.396 95.3156 127.311C95.3607 127.039 95.4008 126.762 95.4359 126.485C95.4359 126.47 95.4408 126.455 95.4408 126.44C95.4709 126.198 95.5009 125.956 95.526 125.714C95.531 125.684 95.531 125.649 95.536 125.619L95.551 125.422C95.576 125.15 95.5961 124.873 95.6161 124.601V124.576C95.6361 124.264 95.6512 123.947 95.6612 123.634C95.6712 123.322 95.6762 123 95.6762 122.683C95.6762 122.421 95.6712 122.164 95.6662 121.907C95.6612 121.791 95.6612 121.68 95.6512 121.565C95.6462 121.358 95.6361 121.152 95.6261 120.945C95.6161 120.829 95.6111 120.709 95.6011 120.593C95.5961 120.517 95.5911 120.447 95.5861 120.371C95.576 120.23 95.566 120.094 95.551 119.958L95.536 119.807C95.531 119.721 95.521 119.631 95.5109 119.54C95.5084 119.495 95.5034 119.449 95.4959 119.404C95.4809 119.223 95.4558 119.037 95.4308 118.855C95.4008 118.608 95.3657 118.357 95.3256 118.11C95.3006 117.934 95.2705 117.762 95.2405 117.586C95.2154 117.43 95.1904 117.279 95.1604 117.123C95.1303 116.967 95.0952 116.801 95.0602 116.639V116.629C95.0402 116.534 95.0201 116.433 95.0001 116.337C94.9951 116.312 94.9901 116.292 94.9851 116.267C94.965 116.176 94.945 116.08 94.92 115.99C94.9157 115.959 94.909 115.929 94.8999 115.899C94.8599 115.733 94.8248 115.572 94.7847 115.411C94.7747 115.375 94.7697 115.345 94.7597 115.315C94.7196 115.159 94.6795 115.003 94.6345 114.842C94.6144 114.771 94.5944 114.696 94.5744 114.62L94.4993 114.363C94.4792 114.288 94.4592 114.212 94.4342 114.142C94.4298 114.117 94.4231 114.094 94.4141 114.071C94.3991 114.021 94.3841 113.975 94.369 113.925C94.364 113.915 94.364 113.9 94.359 113.89C94.3189 113.759 94.2839 113.633 94.2388 113.507C94.2288 113.477 94.2188 113.452 94.2088 113.421C94.1987 113.391 94.1887 113.351 94.1737 113.311C94.1236 113.144 94.0685 112.978 94.0034 112.817C93.9884 112.762 93.9634 112.706 93.9433 112.651C93.9377 112.64 93.9343 112.628 93.9334 112.616C93.8733 112.439 93.8081 112.263 93.738 112.092V112.087C93.7029 111.991 93.6679 111.895 93.6278 111.8C93.5977 111.714 93.5627 111.624 93.5226 111.538C93.4525 111.357 93.3774 111.18 93.3023 111.004L93.2722 110.929C93.2121 110.788 93.147 110.642 93.0819 110.495L93.0518 110.435C93.0368 110.4 93.0218 110.37 93.0068 110.334C93.0018 110.329 93.0018 110.319 92.9967 110.314C92.9316 110.158 92.8565 110.002 92.7814 109.846C92.7737 109.833 92.767 109.819 92.7614 109.806C92.7413 109.765 92.7163 109.72 92.6962 109.675C92.4859 109.236 92.2655 108.808 92.0301 108.385C91.96 108.254 91.8899 108.124 91.8148 107.998C91.7847 107.937 91.7497 107.877 91.7146 107.816C91.6495 107.706 91.5844 107.6 91.5193 107.489C91.4892 107.434 91.4542 107.378 91.4191 107.323C91.2839 107.091 91.1437 106.865 90.9984 106.638C90.8231 106.366 90.6478 106.104 90.4675 105.837C90.4124 105.762 90.3573 105.686 90.3023 105.605C90.2756 105.561 90.2455 105.519 90.2121 105.48C90.112 105.334 90.0068 105.193 89.9016 105.047C89.8615 104.986 89.8164 104.931 89.7714 104.87L89.6812 104.749C89.536 104.558 89.3907 104.367 89.2405 104.18L89.0602 103.954C89.0001 103.878 88.94 103.803 88.8749 103.727C88.8348 103.677 88.7947 103.631 88.7547 103.581C88.6144 103.41 88.4692 103.244 88.3189 103.077C88.1637 102.896 88.0034 102.715 87.8381 102.539C87.6829 102.362 87.5176 102.191 87.3473 102.02C87.1871 101.844 87.0168 101.677 86.8465 101.511C86.8415 101.506 86.8415 101.506 86.8415 101.501L86.8365 101.496C86.6712 101.33 86.5009 101.169 86.3256 101.008C86.2355 100.917 86.1453 100.836 86.0552 100.751L87.8361 99.7139C88.6462 99.2461 89.564 99 90.4981 99C91.4322 99 92.35 99.2461 93.16 99.7139L96.3804 101.582C96.3861 101.584 96.3913 101.588 96.3954 101.592H96.4004L96.4054 101.597L106.157 107.258L107.339 107.943C108 108.329 108.572 108.853 109.015 109.48C109.457 110.107 109.761 110.823 109.905 111.578Z" fill="url(#paint7_linear_518_35)"/>
<path d="M95.6762 122.682C95.6762 122.999 95.6712 123.316 95.6612 123.634C95.6511 123.946 95.6361 124.263 95.6161 124.575V124.601C95.596 124.873 95.576 125.15 95.551 125.421L95.5359 125.618C95.5309 125.648 95.5309 125.683 95.5259 125.714C95.5009 125.955 95.4708 126.197 95.4408 126.439C95.4408 126.454 95.4358 126.469 95.4358 126.484C95.4007 126.761 95.3607 127.038 95.3156 127.31C95.3056 127.396 95.2905 127.476 95.2755 127.562C95.2705 127.612 95.2605 127.668 95.2505 127.718C95.2508 127.721 95.2505 127.723 95.2497 127.726C95.2488 127.729 95.2474 127.731 95.2455 127.733V127.748C95.1804 128.136 95.1102 128.519 95.0251 128.896C94.99 129.068 94.95 129.239 94.9099 129.41C94.8598 129.627 94.8097 129.843 94.7546 130.055C90.6364 132.152 86.0837 133.241 81.4675 133.232C81.197 133.232 80.9316 133.227 80.6612 133.222C80.571 133.217 80.4758 133.217 80.3807 133.212H80.3356L79.7496 133.182C79.6545 133.177 79.5543 133.172 79.4592 133.162C79.344 133.157 79.2338 133.147 79.1186 133.137C78.9383 133.127 78.753 133.106 78.5727 133.091C78.5176 133.086 78.4625 133.081 78.4074 133.071C78.3523 133.071 78.2972 133.061 78.2371 133.056C78.177 133.051 78.1069 133.041 78.0468 133.031C78.0316 133.034 78.0158 133.032 78.0017 133.026C77.8865 133.016 77.7713 133.001 77.6561 132.986L77.3356 132.94C77.1854 132.925 77.0401 132.9 76.8949 132.875C76.7246 132.85 76.5593 132.824 76.394 132.789C76.389 132.791 76.3836 132.791 76.3784 132.79C76.3732 132.789 76.3683 132.787 76.364 132.784C76.1386 132.749 75.9182 132.709 75.7029 132.663C75.6773 132.659 75.6521 132.652 75.6278 132.643C75.5951 132.642 75.563 132.635 75.5326 132.623C75.2972 132.578 75.0618 132.527 74.8314 132.477C74.797 132.466 74.7618 132.458 74.7263 132.452C74.6265 132.432 74.5278 132.407 74.4308 132.376C74.2204 132.326 74.0101 132.27 73.8047 132.215C73.5643 132.155 73.3289 132.089 73.0935 132.019V132.014C73.0857 132.01 73.0771 132.008 73.0685 132.009H73.0615L73.0565 132.004H73.0515C73.0436 132 73.0351 131.998 73.0264 131.999L73.0214 131.993C72.5456 131.852 72.0798 131.701 71.6141 131.535C71.2102 130.765 70.9988 129.908 70.998 129.037V112.585C70.9983 111.644 71.2446 110.719 71.7122 109.904C72.1799 109.089 72.8525 108.413 73.6625 107.941L86.0531 100.75C86.1433 100.836 86.2334 100.916 86.3236 101.007C86.4989 101.168 86.6692 101.329 86.8344 101.495L86.8395 101.5C86.8395 101.505 86.8395 101.505 86.8445 101.51C87.0147 101.677 87.18 101.848 87.3453 102.019C87.5106 102.19 87.6758 102.362 87.8361 102.538C87.9964 102.714 88.1617 102.895 88.3169 103.077C88.4672 103.243 88.6124 103.409 88.7526 103.58C88.7927 103.631 88.8328 103.676 88.8728 103.726C88.9379 103.802 88.998 103.877 89.0581 103.953L89.2384 104.18C89.3887 104.366 89.5339 104.557 89.6792 104.749L89.7693 104.869C89.8144 104.93 89.8595 104.985 89.8996 105.046C90.0047 105.192 90.1099 105.333 90.2101 105.479C90.2434 105.518 90.2735 105.56 90.3002 105.605C90.3553 105.68 90.4104 105.756 90.4655 105.836C90.6458 106.103 90.8211 106.365 90.9964 106.637C91.1366 106.864 91.2819 107.09 91.4171 107.322C91.4521 107.377 91.4872 107.433 91.5172 107.488C91.5723 107.574 91.6224 107.664 91.6725 107.755C91.6875 107.775 91.6975 107.795 91.7126 107.816C91.7476 107.876 91.7827 107.936 91.8127 107.997C91.8879 108.123 91.958 108.254 92.0281 108.385C92.2635 108.808 92.4839 109.236 92.6942 109.674C92.7142 109.719 92.7393 109.764 92.7593 109.805C92.765 109.819 92.7717 109.832 92.7794 109.845C92.8545 109.996 92.9246 110.157 92.9947 110.313C92.9997 110.318 92.9997 110.328 93.0047 110.334C93.0198 110.369 93.0348 110.399 93.0498 110.434C93.1249 110.6 93.195 110.762 93.2702 110.928L93.3002 111.003C93.3753 111.18 93.4505 111.356 93.5206 111.537C93.5556 111.623 93.5907 111.713 93.6258 111.799C93.6608 111.895 93.7009 111.99 93.7359 112.086V112.091C93.8061 112.267 93.8662 112.439 93.9313 112.615C93.9323 112.627 93.9357 112.639 93.9413 112.65C93.9613 112.706 93.9864 112.761 94.0014 112.816C94.0665 112.977 94.1216 113.144 94.1717 113.31C94.1867 113.35 94.1967 113.385 94.2067 113.421C94.2167 113.456 94.2268 113.476 94.2368 113.506C94.2819 113.632 94.3169 113.758 94.357 113.889C94.362 113.899 94.362 113.914 94.367 113.924C94.382 113.975 94.397 114.02 94.4121 114.07C94.421 114.093 94.4277 114.117 94.4321 114.141C94.4571 114.211 94.4772 114.287 94.4972 114.362L94.5723 114.619C94.5924 114.695 94.6124 114.77 94.6324 114.841C94.6775 115.002 94.7176 115.158 94.7576 115.314C94.7677 115.344 94.7727 115.375 94.7827 115.41C94.8228 115.571 94.8578 115.732 94.8979 115.898C94.9069 115.928 94.9136 115.958 94.9179 115.989C94.943 116.08 94.963 116.175 94.983 116.266C94.983 116.276 94.988 116.286 94.988 116.301C94.992 116.313 94.9954 116.325 94.998 116.337C95.0181 116.432 95.0381 116.533 95.0581 116.629V116.639C95.0932 116.8 95.1283 116.961 95.1583 117.122C95.1884 117.283 95.2134 117.429 95.2384 117.585C95.2685 117.762 95.2986 117.933 95.3236 118.109C95.3637 118.356 95.3987 118.608 95.4288 118.855C95.4538 119.036 95.4789 119.222 95.4939 119.403C95.5013 119.448 95.5063 119.494 95.5089 119.539C95.5189 119.63 95.5289 119.716 95.5339 119.806L95.549 119.957C95.564 120.093 95.574 120.229 95.584 120.37C95.589 120.446 95.594 120.516 95.5991 120.592C95.6091 120.708 95.6141 120.829 95.6241 120.944C95.6341 121.151 95.6441 121.357 95.6491 121.564C95.6592 121.675 95.6592 121.791 95.6642 121.906C95.6712 122.163 95.6762 122.42 95.6762 122.682Z" fill="url(#paint8_linear_518_35)"/>
<path d="M110 112.585V129.038C110.001 129.978 109.756 130.903 109.289 131.718C108.822 132.533 108.15 133.21 107.341 133.681L93.1622 141.905C92.446 142.322 91.6427 142.565 90.8165 142.614C89.9903 142.663 89.1641 142.517 88.4043 142.187C88.2089 142.107 88.0197 142.013 87.8383 141.905L86.9969 141.417H86.9919L73.6627 133.681C72.7949 133.171 72.0856 132.428 71.6143 131.536C72.08 131.702 72.5458 131.853 73.0216 131.994L73.0266 131.999C73.0352 131.999 73.0438 132.001 73.0517 132.004C73.0555 132.005 73.0591 132.006 73.0617 132.009H73.0667C73.0753 132.009 73.0839 132.011 73.0917 132.014V132.019C73.3271 132.09 73.5625 132.155 73.8029 132.216C74.0383 132.286 74.2737 132.347 74.5141 132.397C74.6193 132.427 74.7244 132.452 74.8296 132.478C75.0951 132.538 75.3555 132.598 75.6259 132.644C75.6503 132.653 75.6755 132.66 75.7011 132.664C75.9264 132.714 76.1568 132.755 76.3922 132.79C76.5976 132.83 76.8079 132.865 77.0183 132.896C77.0984 132.911 77.1836 132.921 77.2687 132.931C77.5241 132.971 77.7846 133.006 78.045 133.032C78.1452 133.047 78.2453 133.057 78.3405 133.067C78.626 133.097 78.9164 133.127 79.2019 133.142C79.2431 133.151 79.2851 133.154 79.3271 133.152C79.6777 133.183 80.0283 133.203 80.3789 133.213C80.7395 133.228 81.1001 133.233 81.4657 133.233C86.0818 133.241 90.6346 132.152 94.7528 130.055C94.7579 130.055 94.7579 130.05 94.7629 130.05C95.454 129.703 96.1268 129.327 96.7812 128.922C96.9265 128.837 97.0717 128.746 97.2119 128.655C97.2771 128.615 97.3422 128.575 97.4073 128.529C97.4724 128.484 97.5325 128.449 97.5976 128.403C97.7478 128.308 97.8931 128.207 98.0433 128.106C98.0544 128.101 98.0646 128.095 98.0734 128.086C98.2487 127.97 98.419 127.849 98.5892 127.724C98.6221 127.704 98.6538 127.682 98.6844 127.658C98.7245 127.628 98.7645 127.603 98.8046 127.567C99.045 127.396 99.2804 127.22 99.5158 127.034C99.641 126.938 99.7712 126.837 99.8964 126.731C99.9866 126.661 100.082 126.585 100.172 126.51C100.237 126.455 100.302 126.404 100.367 126.344C100.407 126.314 100.447 126.283 100.487 126.248C100.888 125.906 101.274 125.558 101.654 125.206C101.83 125.039 102.005 124.868 102.17 124.702C102.691 124.188 103.19 123.658 103.668 123.111C103.753 123.015 103.833 122.919 103.913 122.824C104.023 122.703 104.123 122.577 104.229 122.451C104.289 122.375 104.354 122.3 104.414 122.224C104.449 122.184 104.479 122.144 104.509 122.103C104.589 122.003 104.669 121.902 104.744 121.801C104.82 121.711 104.89 121.615 104.965 121.519C104.995 121.474 105.03 121.429 105.065 121.383C105.14 121.288 105.21 121.192 105.28 121.091C105.551 120.724 105.811 120.351 106.062 119.968C106.177 119.797 106.287 119.626 106.397 119.449C106.558 119.198 106.713 118.946 106.863 118.689C106.963 118.523 107.063 118.352 107.159 118.18C107.539 117.506 107.895 116.814 108.225 116.106C108.285 115.975 108.351 115.839 108.406 115.703C108.591 115.3 108.761 114.897 108.921 114.484L109.132 113.94C109.187 113.789 109.242 113.643 109.292 113.492C109.297 113.482 109.302 113.467 109.307 113.457C109.311 113.444 109.316 113.433 109.322 113.421C109.327 113.411 109.332 113.406 109.332 113.401V113.396C109.348 113.355 109.362 113.313 109.372 113.27C109.382 113.25 109.387 113.23 109.397 113.205C109.442 113.079 109.482 112.953 109.522 112.822C109.558 112.726 109.588 112.626 109.623 112.525C109.638 112.48 109.653 112.429 109.663 112.384C109.672 112.367 109.679 112.348 109.683 112.328C109.758 112.082 109.833 111.83 109.903 111.578C109.968 111.91 110.001 112.247 110 112.585Z" fill="url(#paint9_linear_518_35)"/>
<g style="mix-blend-mode:multiply" opacity="0.15">
<path d="M95.6756 122.684C95.6795 125.171 95.3698 127.648 94.7541 130.057C88.2726 133.342 80.8141 134.112 73.8042 132.217C81.6623 132.756 101.671 131.406 86.0546 100.752C89.09 103.531 91.514 106.918 93.1708 110.695C94.8277 114.472 95.6809 118.556 95.6756 122.684Z" fill="black"/>
</g>
<g style="mix-blend-mode:multiply" opacity="0.15">
<path d="M109.905 111.577C108.79 115.542 106.869 119.231 104.263 122.41C101.657 125.59 98.4223 128.191 94.7646 130.049C95.1002 129.782 105.483 121.457 106.159 107.256L107.341 107.941C108.002 108.327 108.573 108.851 109.016 109.479C109.458 110.106 109.761 110.821 109.905 111.577Z" fill="black"/>
</g>
<g style="mix-blend-mode:multiply" opacity="0.25">
<path d="M109.309 113.457C106.761 120.662 101.552 126.604 94.7645 130.051C94.7619 130.054 94.7584 130.055 94.7545 130.056C88.2729 133.342 80.8145 134.111 73.8046 132.216C73.5642 132.151 73.3288 132.085 73.0934 132.02C73.0834 132.015 73.0734 132.015 73.0684 132.01C73.077 132.009 73.0856 132.011 73.0934 132.015C73.2987 132.06 73.9298 132.211 74.9114 132.392C76.5725 132.701 78.256 132.871 79.9448 132.901C80.4657 132.916 81.0116 132.911 81.5675 132.896C82.1385 132.876 82.7195 132.846 83.3104 132.8C84.5534 132.69 85.7891 132.508 87.0116 132.256C88.318 131.985 89.6047 131.625 90.863 131.179C92.1583 130.727 93.4202 130.183 94.6393 129.552C94.7295 129.507 94.8196 129.456 94.9098 129.411C96.0398 128.814 97.1335 128.15 98.1852 127.422C99.2745 126.647 100.32 125.812 101.315 124.919C102.235 124.071 103.106 123.171 103.925 122.225C104.711 121.318 105.387 120.412 105.993 119.556C106.579 118.684 107.09 117.869 107.521 117.128C107.721 116.751 107.916 116.398 108.092 116.076C108.262 115.743 108.402 115.436 108.537 115.159C108.813 114.605 108.993 114.157 109.133 113.855C109.214 113.669 109.272 113.533 109.309 113.457Z" fill="black"/>
</g>
<g style="mix-blend-mode:multiply" opacity="0.25">
<path d="M95.3305 126.54C95.3755 125.754 95.4156 124.636 95.3855 123.302C95.3705 122.637 95.3004 121.922 95.2653 121.141C95.1802 120.391 95.1051 119.6 94.9699 118.779C94.9148 118.366 94.8446 117.954 94.7545 117.536C94.6643 117.118 94.5892 116.695 94.484 116.271C94.2937 115.42 94.0483 114.574 93.7829 113.733L93.3622 112.479C93.2019 112.071 93.0416 111.663 92.8864 111.261C92.7111 110.863 92.5408 110.465 92.3705 110.077C92.2002 109.689 91.9999 109.317 91.8246 108.939C91.6493 108.561 91.439 108.214 91.2537 107.861C91.0684 107.509 90.878 107.166 90.6777 106.844C90.2921 106.184 89.8964 105.585 89.5308 105.026C89.1451 104.487 88.7996 103.979 88.469 103.545C88.1335 103.122 87.858 102.735 87.6026 102.432C87.1819 101.919 86.9114 101.591 86.8413 101.506C90.2432 104.868 92.785 109.008 94.2493 113.573C95.7137 118.138 96.0572 122.991 95.2503 127.718C95.2603 127.582 95.2954 127.169 95.3305 126.54Z" fill="black"/>
</g>
<g style="mix-blend-mode:screen" opacity="0.4">
<path d="M96.3973 101.592C96.3222 101.557 95.8114 101.3 94.9649 100.857C94.5042 100.615 93.9533 100.313 93.3122 100.005C92.6116 99.652 91.8591 99.414 91.0835 99.3004C90.1818 99.2069 89.2719 99.3654 88.4541 99.7587C87.7176 100.127 87.0064 100.544 86.3255 101.008C86.2894 101.028 86.2543 101.049 86.2204 101.073C86.0651 101.169 85.9048 101.269 85.7446 101.365C83.8464 102.508 81.808 103.702 79.7696 104.895C78.7429 105.485 77.7212 106.069 76.7145 106.648C75.7179 107.242 74.6761 107.766 73.7796 108.345C72.9131 108.86 72.2124 109.616 71.7613 110.521C71.4122 111.368 71.2335 112.277 71.2354 113.195C71.2154 114.076 71.1903 114.902 71.1603 115.622C71.1302 116.342 71.1052 116.977 71.0851 117.496C71.0401 118.533 71 119.122 71 119.122V112.585C71.0002 111.645 71.2465 110.72 71.7142 109.905C72.1818 109.09 72.8544 108.413 73.6644 107.942L86.0551 100.751L87.8361 99.7139C88.6461 99.2461 89.5639 99 90.498 99C91.4321 99 92.3499 99.2461 93.1599 99.7139L96.3803 101.582C96.3867 101.584 96.3926 101.587 96.3973 101.592Z" fill="white"/>
</g>
<g style="mix-blend-mode:multiply" opacity="0.25">
<path d="M110 117.193V129.038C110.001 129.979 109.756 130.903 109.289 131.718C108.822 132.533 108.15 133.21 107.341 133.681L93.1623 141.905C92.4463 142.322 91.6429 142.565 90.8167 142.614C89.9905 142.663 89.1643 142.517 88.4044 142.187C88.2091 142.107 88.0199 142.013 87.8385 141.905L86.9971 141.417C87.0472 141.442 87.1022 141.472 87.1674 141.507C87.4328 141.643 87.8234 141.84 88.3293 142.046C88.9329 142.3 89.5784 142.438 90.2325 142.454C91.0689 142.446 91.8919 142.243 92.6365 141.86C93.4628 141.457 94.3193 140.878 95.2608 140.324C96.1924 139.76 97.174 139.165 98.1957 138.551C100.229 137.327 102.418 136.053 104.606 134.769C105.704 134.195 106.766 133.554 107.787 132.85C108.685 132.147 109.29 131.133 109.485 130.005C109.636 128.889 109.703 127.762 109.685 126.636C109.71 125.543 109.735 124.511 109.755 123.554C109.805 121.645 109.88 120.059 109.915 118.941C109.97 117.828 110 117.193 110 117.193Z" fill="black"/>
</g>
<g style="mix-blend-mode:screen" opacity="0.4">
<path d="M73.0933 132.016V132.021C73.0796 132.017 73.0662 132.012 73.0532 132.006C73.067 132.007 73.0804 132.011 73.0933 132.016Z" fill="white"/>
</g>
<g style="mix-blend-mode:screen" opacity="0.4">
<path d="M109.334 113.4C109.324 113.436 109.274 113.597 109.183 113.874C109.073 114.186 108.958 114.664 108.718 115.234C108.602 115.521 108.487 115.848 108.342 116.19C108.197 116.533 108.026 116.905 107.851 117.298C107.666 117.691 107.451 118.099 107.235 118.537C107.01 118.97 106.739 119.403 106.474 119.867C106.193 120.32 105.893 120.793 105.567 121.267C105.227 121.735 104.896 122.229 104.501 122.702C103.705 123.715 102.842 124.673 101.916 125.567C100.918 126.521 99.8576 127.406 98.741 128.216C97.5804 129.036 96.3674 129.778 95.11 130.437C93.8389 131.085 92.5234 131.64 91.1734 132.099C89.87 132.539 88.5358 132.881 87.1817 133.121C85.918 133.354 84.6392 133.496 83.3554 133.544C82.7393 133.57 82.1433 133.58 81.5774 133.565C80.9964 133.549 80.4455 133.519 79.9146 133.479C78.208 133.337 76.518 133.037 74.8662 132.583C74.2702 132.426 73.8145 132.265 73.4989 132.16C73.3036 132.094 73.1684 132.044 73.0933 132.019C80.3456 134.17 88.1419 133.444 94.8784 129.991C101.615 126.538 106.779 120.621 109.309 113.456C109.313 113.444 109.318 113.432 109.324 113.421C109.329 113.411 109.334 113.405 109.334 113.4Z" fill="white"/>
</g>
<g style="mix-blend-mode:screen" opacity="0.4">
<path d="M96.0067 121.126C96.0017 121.892 96.0067 122.632 95.9566 123.312C95.8869 124.405 95.743 125.492 95.5259 126.565C95.3656 127.336 95.2454 127.769 95.2454 127.769V127.734C95.2473 127.732 95.2488 127.729 95.2496 127.727C95.2505 127.724 95.2508 127.721 95.2504 127.719C95.2755 127.583 95.2955 127.447 95.3156 127.311C95.3606 127.039 95.4007 126.762 95.4358 126.485C95.4358 126.47 95.4408 126.455 95.4408 126.439C95.4758 126.168 95.5059 125.891 95.5359 125.619L95.5509 125.422C95.576 125.15 95.596 124.873 95.6161 124.601V124.576C95.6361 124.264 95.6511 123.947 95.6611 123.634C95.6712 123.322 95.6762 123 95.6762 122.683C95.6762 121.907 95.6461 121.137 95.586 120.371C95.571 120.18 95.556 119.993 95.5359 119.807C95.5109 119.49 95.4758 119.172 95.4308 118.855C95.4007 118.608 95.3656 118.357 95.3256 118.11C95.3005 117.934 95.2705 117.762 95.2404 117.586C95.1903 117.269 95.1302 116.947 95.0601 116.629C95.01 116.383 94.96 116.141 94.8999 115.899C94.8548 115.703 94.8097 115.506 94.7596 115.315C94.6795 114.998 94.5944 114.68 94.4992 114.363C94.4591 114.212 94.4141 114.071 94.369 113.925C94.3189 113.754 94.2688 113.588 94.2087 113.421C94.1987 113.386 94.1887 113.351 94.1737 113.311C94.1035 113.089 94.0284 112.867 93.9433 112.651C93.8131 112.278 93.6728 111.906 93.5226 111.538C93.4525 111.357 93.3773 111.18 93.3022 111.004C93.2121 110.782 93.1119 110.556 93.0067 110.334C92.9116 110.113 92.8064 109.896 92.6962 109.675C92.4858 109.236 92.2655 108.808 92.0301 108.385C91.8348 108.023 91.6344 107.67 91.4191 107.323C90.7627 106.228 90.0349 105.178 89.2404 104.18C89.1252 104.029 89 103.878 88.8748 103.727C88.8348 103.677 88.7947 103.631 88.7546 103.581C88.6144 103.41 88.4691 103.244 88.3189 103.077C88.1636 102.896 88.0034 102.715 87.8381 102.539C87.6828 102.362 87.5176 102.191 87.3473 102.02C87.187 101.844 87.0167 101.677 86.8464 101.511C86.8414 101.506 86.8364 101.501 86.8364 101.496C86.9116 101.557 87.2321 101.844 87.7479 102.297C88.5444 103.043 89.2938 103.839 89.9917 104.679C90.4124 105.213 90.8732 105.787 91.3039 106.436C91.5343 106.754 91.7546 107.091 91.965 107.444C92.1753 107.796 92.4057 108.144 92.601 108.521C93.0167 109.267 93.4174 110.057 93.778 110.878C93.9433 111.296 94.1136 111.714 94.2838 112.137C94.4341 112.565 94.5843 112.993 94.7346 113.426C95 114.298 95.2404 115.179 95.4257 116.06C95.5276 116.492 95.6078 116.929 95.6661 117.37C95.7463 117.803 95.8014 118.236 95.8414 118.659C95.9566 119.505 95.9717 120.341 96.0067 121.126Z" fill="white"/>
</g>
</g>
</g>
</g>
<defs>
<filter id="filter0_d_518_35" x="104.293" y="20.4512" width="268.891" height="134.893" filterUnits="userSpaceOnUse" color-interpolation-filters="sRGB">
<feFlood flood-opacity="0" result="BackgroundImageFix"/>
<feColorMatrix in="SourceAlpha" type="matrix" values="0 0 0 0 0 0 0 0 0 0 0 0 0 0 0 0 0 0 127 0" result="hardAlpha"/>
<feOffset dx="-3" dy="3"/>
<feGaussianBlur stdDeviation="1.5"/>
<feComposite in2="hardAlpha" operator="out"/>
<feColorMatrix type="matrix" values="0 0 0 0 0 0 0 0 0 0 0 0 0 0 0 0 0 0 0.28 0"/>
<feBlend mode="normal" in2="BackgroundImageFix" result="effect1_dropShadow_518_35"/>
<feBlend mode="normal" in="SourceGraphic" in2="effect1_dropShadow_518_35" result="shape"/>
</filter>
<filter id="filter1_d_518_35" x="-6" y="0" width="102.099" height="98.5527" filterUnits="userSpaceOnUse" color-interpolation-filters="sRGB">
<feFlood flood-opacity="0" result="BackgroundImageFix"/>
<feColorMatrix in="SourceAlpha" type="matrix" values="0 0 0 0 0 0 0 0 0 0 0 0 0 0 0 0 0 0 127 0" result="hardAlpha"/>
<feOffset dx="-2" dy="4"/>
<feGaussianBlur stdDeviation="2"/>
<feComposite in2="hardAlpha" operator="out"/>
<feColorMatrix type="matrix" values="0 0 0 0 0 0 0 0 0 0 0 0 0 0 0 0 0 0 0.5 0"/>
<feBlend mode="normal" in2="BackgroundImageFix" result="effect1_dropShadow_518_35"/>
<feBlend mode="normal" in="SourceGraphic" in2="effect1_dropShadow_518_35" result="shape"/>
</filter>
<filter id="filter2_d_518_35" x="41" y="78" width="94" height="94" filterUnits="userSpaceOnUse" color-interpolation-filters="sRGB">
<feFlood flood-opacity="0" result="BackgroundImageFix"/>
<feColorMatrix in="SourceAlpha" type="matrix" values="0 0 0 0 0 0 0 0 0 0 0 0 0 0 0 0 0 0 127 0" result="hardAlpha"/>
<feOffset dx="-2" dy="4"/>
<feGaussianBlur stdDeviation="2"/>
<feComposite in2="hardAlpha" operator="out"/>
<feColorMatrix type="matrix" values="0 0 0 0 0 0 0 0 0 0 0 0 0 0 0 0 0 0 0.5 0"/>
<feBlend mode="normal" in2="BackgroundImageFix" result="effect1_dropShadow_518_35"/>
<feBlend mode="normal" in="SourceGraphic" in2="effect1_dropShadow_518_35" result="shape"/>
</filter>
<filter id="filter3_d_518_35" x="65" y="99" width="47" height="51.623" filterUnits="userSpaceOnUse" color-interpolation-filters="sRGB">
<feFlood flood-opacity="0" result="BackgroundImageFix"/>
<feColorMatrix in="SourceAlpha" type="matrix" values="0 0 0 0 0 0 0 0 0 0 0 0 0 0 0 0 0 0 127 0" result="hardAlpha"/>
<feOffset dx="-2" dy="4"/>
<feGaussianBlur stdDeviation="2"/>
<feComposite in2="hardAlpha" operator="out"/>
<feColorMatrix type="matrix" values="0 0 0 0 0 0 0 0 0 0 0 0 0 0 0 0 0 0 0.5 0"/>
<feBlend mode="normal" in2="BackgroundImageFix" result="effect1_dropShadow_518_35"/>
<feBlend mode="normal" in="SourceGraphic" in2="effect1_dropShadow_518_35" result="shape"/>
</filter>
<linearGradient id="paint0_linear_518_35" x1="374.822" y1="56.418" x2="316.876" y2="185.226" gradientUnits="userSpaceOnUse">
<stop stop-color="#F80300"/>
<stop offset="0.033" stop-color="#F81000"/>
<stop offset="0.158" stop-color="#F93F00"/>
<stop offset="0.288" stop-color="#FA6800"/>
<stop offset="0.419" stop-color="#FA8900"/>
<stop offset="0.554" stop-color="#FBA300"/>
<stop offset="0.693" stop-color="#FBB500"/>
<stop offset="0.838" stop-color="#FBC000"/>
<stop offset="1" stop-color="#FCC400"/>
</linearGradient>
<linearGradient id="paint1_linear_518_35" x1="66.867" y1="17.7127" x2="51.1945" y2="67.2389" gradientUnits="userSpaceOnUse">
<stop stop-color="#F80300"/>
<stop offset="0.033" stop-color="#F81000"/>
<stop offset="0.158" stop-color="#F93F00"/>
<stop offset="0.288" stop-color="#FA6800"/>
<stop offset="0.419" stop-color="#FA8900"/>
<stop offset="0.554" stop-color="#FBA300"/>
<stop offset="0.693" stop-color="#FBB500"/>
<stop offset="0.838" stop-color="#FBC000"/>
<stop offset="1" stop-color="#FCC400"/>
</linearGradient>
<linearGradient id="paint2_linear_518_35" x1="75.1378" y1="80.5875" x2="41.1255" y2="80.5875" gradientUnits="userSpaceOnUse">
<stop stop-color="#F80300"/>
<stop offset="1" stop-color="#FCC400"/>
</linearGradient>
<linearGradient id="paint3_linear_518_35" x1="110.68" y1="149.979" x2="110.68" y2="86.2969" gradientUnits="userSpaceOnUse">
<stop stop-color="#F80300"/>
<stop offset="1" stop-color="#FCC400"/>
</linearGradient>
<linearGradient id="paint4_linear_518_35" x1="63.8113" y1="142.236" x2="130.639" y2="142.236" gradientUnits="userSpaceOnUse">
<stop stop-color="#F80300"/>
<stop offset="1" stop-color="#FCC400"/>
</linearGradient>
<linearGradient id="paint5_linear_518_35" x1="65.545" y1="98.9888" x2="65.545" y2="163.095" gradientUnits="userSpaceOnUse">
<stop stop-color="#F80300"/>
<stop offset="1" stop-color="#FCC400"/>
</linearGradient>
<linearGradient id="paint6_linear_518_35" x1="115.908" y1="98.975" x2="50.5265" y2="98.975" gradientUnits="userSpaceOnUse">
<stop stop-color="#F80300"/>
<stop offset="1" stop-color="#FCC400"/>
</linearGradient>
<linearGradient id="paint7_linear_518_35" x1="97.98" y1="128.844" x2="97.98" y2="103.658" gradientUnits="userSpaceOnUse">
<stop stop-color="#F8A700"/>
<stop offset="1" stop-color="#FCFC53"/>
</linearGradient>
<linearGradient id="paint8_linear_518_35" x1="93.2084" y1="125.729" x2="70.9243" y2="117.151" gradientUnits="userSpaceOnUse">
<stop stop-color="#F80300"/>
<stop offset="0.033" stop-color="#F81000"/>
<stop offset="0.158" stop-color="#F93F00"/>
<stop offset="0.288" stop-color="#FA6800"/>
<stop offset="0.419" stop-color="#FA8900"/>
<stop offset="0.554" stop-color="#FBA300"/>
<stop offset="0.693" stop-color="#FBB500"/>
<stop offset="0.838" stop-color="#FBC000"/>
<stop offset="1" stop-color="#FCC400"/>
</linearGradient>
<linearGradient id="paint9_linear_518_35" x1="105.164" y1="119.712" x2="88.3226" y2="140.946" gradientUnits="userSpaceOnUse">
<stop stop-color="#F80300"/>
<stop offset="0.033" stop-color="#F81000"/>
<stop offset="0.158" stop-color="#F93F00"/>
<stop offset="0.288" stop-color="#FA6800"/>
<stop offset="0.419" stop-color="#FA8900"/>
<stop offset="0.554" stop-color="#FBA300"/>
<stop offset="0.693" stop-color="#FBB500"/>
<stop offset="0.838" stop-color="#FBC000"/>
<stop offset="1" stop-color="#FCC400"/>
</linearGradient>
<clipPath id="clip0_518_35">
<rect width="382" height="179" fill="white"/>
</clipPath>
</defs>
</svg>
