<svg width="382" height="179" viewBox="0 0 382 179" fill="none" xmlns="http://www.w3.org/2000/svg">
<g clip-path="url(#clip0_518_35)">
<g clip-path="url(#clip1_518_35)">
<ellipse cx="47.7754" cy="96.644" rx="25.3486" ry="54.8706" fill="#31D0F2"/>
<ellipse cx="47.7754" cy="96.4487" rx="25.3486" ry="54.8706" fill="url(#paint0_linear_518_35)"/>
<g filter="url(#filter0_d_518_35)">
<path d="M125.252 66.523C128.88 66.9736 132.507 68.5598 134.925 70.7466C137.002 72.6236 138.16 74.7448 138.48 77.2226C138.542 77.7388 138.707 78.4802 138.853 78.865C139.101 79.5408 139.411 80.9299 139.411 81.3522C139.411 81.5211 139.617 81.6901 140.362 82.1218C144.464 84.4682 146.975 87.1337 148.144 90.3623C148.743 92.0423 148.898 94.2291 148.505 95.6088C147.957 97.5516 146.5 99.0814 143.72 100.611C140.899 102.179 136.434 103.493 132.9 103.812L132.125 103.877L131.494 107.322C131.143 109.218 130.781 111.433 130.688 112.249C130.46 114.258 130.316 117.89 130.389 119.683C130.439 121.081 130.471 121.222 130.987 122.93C131.287 123.906 131.608 125.023 131.7 125.407C132.052 126.815 132.104 126.844 133.985 126.356C135.153 126.056 137.096 125.745 137.695 125.764L138.088 125.774L138.026 125.436C137.994 125.239 137.963 124.76 137.963 124.356C137.963 123.672 137.953 123.634 137.726 123.634C137.085 123.624 136.124 122.902 135.649 122.067C135.442 121.7 135.431 121.081 135.628 120.743C135.897 120.264 136.765 119.626 137.354 119.466C138.098 119.26 138.542 119.279 139.153 119.542C139.731 119.785 140.475 120.442 140.641 120.846C140.795 121.203 140.785 121.757 140.62 122.001C140.558 122.113 140.393 122.376 140.258 122.583C139.999 123.015 139.441 123.399 138.894 123.54L138.532 123.624L138.563 124.732C138.605 126.008 138.573 125.971 139.649 126.28C140.775 126.618 141.023 126.928 141.291 128.345C141.425 129.106 141.333 129.265 140.754 129.265H140.372L140.31 129.744C140.216 130.429 140.103 130.513 139.451 130.438L138.905 130.382L138.873 130.926C138.842 131.433 138.822 131.471 138.584 131.471C138.336 131.471 138.325 131.433 138.274 130.861C138.222 130.298 138.211 130.279 138.098 130.504C138.036 130.635 137.892 130.776 137.788 130.805C137.684 130.832 136.91 130.654 136.072 130.401C135.235 130.148 134.553 129.96 134.553 129.978C134.553 130.007 134.832 130.335 135.183 130.701C135.525 131.077 136.083 131.753 136.434 132.203C136.775 132.663 137.167 133.067 137.302 133.113C137.436 133.16 137.654 133.347 137.778 133.526C137.912 133.705 138.449 134.155 138.976 134.521C140.764 135.77 143.544 138.463 143.544 138.951C143.544 139.007 143.4 139.166 143.234 139.307C143.028 139.477 142.945 139.626 142.986 139.73C143.028 139.824 142.965 139.964 142.821 140.105C142.604 140.312 142.604 140.331 142.769 140.565L142.945 140.81H142.615C142.387 140.81 142.221 140.884 142.077 141.044C141.756 141.41 139.607 142.761 138.17 143.503C135.245 145.004 133.447 145.727 130.471 146.6C129.499 146.882 128.672 147.145 128.632 147.182C128.59 147.22 128.693 147.548 128.869 147.895C129.685 149.556 130.161 151.349 130.419 153.855C130.491 154.446 130.574 157.084 130.626 159.721C130.719 164.808 130.791 165.616 131.35 167.285C131.669 168.253 132.507 169.153 133.096 169.153C133.199 169.153 133.344 169.257 133.416 169.389C133.488 169.52 133.592 169.623 133.644 169.623C133.685 169.623 133.726 169.688 133.726 169.764C133.726 169.848 133.83 170.092 133.953 170.308C134.068 170.523 134.212 170.824 134.253 170.983C134.295 171.134 134.399 171.435 134.491 171.641C134.574 171.847 134.647 172.204 134.657 172.429C134.657 172.654 134.729 173.03 134.832 173.274C135.06 173.865 134.956 174.175 134.357 174.7C133.757 175.226 132.765 175.602 130.781 176.052C127.371 176.84 126.068 176.578 126.017 175.123C126.006 174.86 125.923 174.391 125.831 174.081C125.645 173.452 125.614 172.636 125.768 172.157C125.831 171.978 125.944 171.444 126.037 170.983C126.141 170.421 126.296 169.97 126.513 169.623C126.833 169.107 126.833 169.107 126.833 167.652C126.844 165.249 126.182 161.204 125.293 158.238C124.177 154.503 123.505 151.978 123.195 150.336C123.03 149.425 122.865 148.656 122.844 148.637C122.813 148.599 119.568 148.881 119.495 148.928C119.474 148.937 119.568 149.51 119.691 150.205C119.939 151.594 119.95 152.504 119.868 161.974C119.826 166.948 119.909 168.224 120.364 169.905C120.508 170.449 120.715 170.975 120.818 171.087C120.931 171.19 121.087 171.566 121.169 171.932C121.263 172.289 121.408 172.814 121.5 173.096C121.717 173.799 121.779 174.634 121.656 175.254C121.594 175.573 121.583 175.808 121.645 175.855C121.8 176.005 121.748 176.437 121.552 176.653C121.304 176.943 120.633 177.056 119.155 177.047C115.899 177.037 113.047 176.653 112.913 176.211C112.892 176.127 112.871 175.629 112.871 175.113C112.871 174.372 112.913 174.081 113.078 173.753C113.191 173.518 113.378 173.067 113.48 172.739C113.728 172.035 114.059 171.5 114.245 171.5C114.545 171.5 115.433 170.796 115.589 170.43C115.858 169.82 115.981 168.553 115.919 166.995C115.837 165.23 115.733 164.573 114.762 159.928C114.339 157.929 113.915 155.798 113.822 155.188C113.543 153.433 113.594 150.655 113.945 149.096C113.987 148.918 113.935 148.89 113.553 148.843C110.36 148.505 108.922 148.233 106.619 147.52C105.12 147.06 104.996 147.041 104.996 147.22C104.996 147.286 104.933 147.427 104.851 147.52C104.716 147.698 104.696 147.698 104.293 147.529C103.88 147.361 103.87 147.351 104.014 147.098C104.159 146.844 104.149 146.844 103.776 146.741C103.569 146.685 103.177 146.666 102.898 146.694C102.35 146.751 102.309 146.685 102.619 146.318L102.836 146.075L102.391 145.868C101.74 145.578 101.678 145.512 101.792 145.315C101.875 145.174 101.833 145.099 101.554 144.929C101.379 144.817 101.203 144.705 101.182 144.686C101.162 144.676 101.213 144.517 101.296 144.357C101.389 144.189 101.627 143.719 101.823 143.325C102.278 142.452 103.89 140.584 105.099 139.561C105.564 139.166 105.988 138.838 106.039 138.838C106.091 138.838 106.133 138.772 106.133 138.689C106.133 138.604 106.288 138.407 106.473 138.237C106.701 138.05 106.938 137.665 107.166 137.149C107.352 136.708 107.993 135.422 108.592 134.286C111.196 129.312 112.044 127.594 112.499 126.412C112.881 125.407 113.098 123.399 112.871 123.005C112.767 122.836 112.809 122.621 113.119 121.738C113.46 120.753 113.48 120.612 113.439 119.785C113.378 118.622 113.078 117.843 112.665 117.796C112.396 117.768 112.385 117.739 112.323 117.064C112.251 116.201 111.558 114.642 110.825 113.713C110.566 113.385 110.246 112.944 110.112 112.737L109.884 112.362L109.522 112.859C109.326 113.132 108.933 113.732 108.655 114.202C108.003 115.29 107.021 116.219 106.298 116.435C105.606 116.651 104.727 116.642 104.272 116.416C104.076 116.323 103.776 116.041 103.6 115.797C103.332 115.403 103.301 115.272 103.311 114.681C103.311 114.314 103.373 113.892 103.435 113.742C103.559 113.45 103.901 110.485 104.014 108.702C104.055 108.016 104.035 107.388 103.952 106.984C103.838 106.355 103.818 106.337 102.619 105.098C101.192 103.633 100.18 102.451 99.973 102C99.8903 101.822 99.8284 101.475 99.8284 101.231C99.818 100.987 99.7559 100.527 99.6733 100.217C99.5906 99.9073 99.5183 99.4286 99.5183 99.1565C99.5183 98.706 99.4666 98.6027 98.9291 97.9551C98.4331 97.3451 98.3401 97.1762 98.2988 96.7538C98.2574 96.2657 98.2574 96.2658 99.0118 95.3835C99.4356 94.8955 99.9007 94.4356 100.045 94.3605C100.438 94.1634 100.841 94.3042 101.368 94.8016L101.823 95.2427L101.751 94.9236C101.72 94.7453 101.658 94.2479 101.616 93.8067L101.554 93.009L99.57 91.2164C98.4848 90.2309 97.3273 89.1046 97.0173 88.7198C94.1649 85.2002 93.1521 80.7139 94.5886 77.9265C95.0433 77.0442 96.0975 76.1151 97.2446 75.6082C99.4046 74.6415 102.546 74.1723 106.918 74.1723H109.099L109.388 73.4402C109.874 72.1826 110.349 71.4693 111.248 70.6434C111.94 70.0051 112.23 69.808 113.057 69.4514C113.594 69.2167 114.339 68.9539 114.7 68.8695C115.093 68.7756 115.61 68.5598 115.981 68.3345C118.513 66.7672 121.914 66.1101 125.252 66.523ZM106.587 101.184C107.011 101.709 107.197 102.329 107.052 102.695C106.99 102.826 106.825 103.108 106.669 103.305C106.402 103.662 106.391 103.699 106.421 104.854C106.442 105.501 106.504 106.289 106.556 106.599C106.66 107.181 107.269 109.677 107.311 109.716C107.321 109.734 107.559 109.415 107.838 109.011C108.117 108.617 108.541 108.035 108.799 107.726C109.047 107.415 109.501 106.712 109.812 106.158C110.628 104.675 111.217 104.168 112.385 103.924C112.665 103.859 113.026 103.774 113.17 103.727C113.336 103.662 113.728 103.671 114.256 103.727C114.7 103.774 115.093 103.802 115.114 103.784C115.185 103.718 115.433 102.31 115.383 102.235C115.331 102.15 114.173 101.972 112.995 101.869C112.375 101.813 111.91 101.709 111.61 101.569C111.217 101.381 110.938 101.343 109.501 101.287C108.086 101.231 107.724 101.193 107.115 100.987C106.711 100.855 106.35 100.743 106.308 100.743C106.256 100.733 106.381 100.94 106.587 101.184ZM122.565 113.657C121.852 115.168 121.428 116.464 121.428 117.148C121.428 118.134 121.779 118.5 123.505 119.317C123.97 119.532 124.363 119.785 124.394 119.87C124.415 119.964 124.591 120.114 124.766 120.208C124.952 120.311 125.531 120.79 126.058 121.278L127.019 122.179L126.792 121.71C126.667 121.447 126.348 120.715 126.079 120.077C125.593 118.922 125.572 118.904 124.539 117.899C123.96 117.336 123.422 116.736 123.33 116.547C123.216 116.294 123.174 115.797 123.184 114.418C123.184 113.188 123.144 112.653 123.071 112.718C123.019 112.766 122.792 113.188 122.565 113.657ZM138.067 129.491C138.222 129.632 138.242 129.537 138.191 129.031L138.14 128.562L138.046 128.983C138.005 129.237 138.005 129.435 138.067 129.491Z" fill="url(#paint1_radial_518_35)" shape-rendering="crispEdges"/>
</g>
<mask id="mask0_518_35" style="mask-type:luminance" maskUnits="userSpaceOnUse" x="26" y="41" width="44" height="111">
<path d="M69.438 41.7734H26.1113V151.219H69.438V41.7734Z" fill="white"/>
</mask>
<g mask="url(#mask0_518_35)">
<mask id="mask1_518_35" style="mask-type:luminance" maskUnits="userSpaceOnUse" x="24" y="42" width="48" height="110">
<path d="M24.2188 42.0684H71.2307V125.113C71.2307 139.694 60.7067 151.514 47.7247 151.514C34.7427 151.514 24.2188 139.694 24.2188 125.113V42.0684Z" fill="white"/>
</mask>
<g mask="url(#mask1_518_35)">
<path d="M47.2529 68.5692C47.0345 68.8416 47.0345 69.2626 47.2529 69.535L47.4069 69.7414L46.8291 71.9867C46.508 73.2249 46.2384 74.2237 46.2256 74.2073C46.2126 74.1907 45.7568 73.1836 45.2046 71.9619C44.2416 69.8322 44.203 69.7331 44.3122 69.5845C44.569 69.2213 44.3315 68.4454 43.9655 68.4454C43.7665 68.4454 43.4968 68.7921 43.4968 69.0562C43.4968 69.3534 43.6188 69.6505 43.7793 69.7496C43.9077 69.8239 43.9398 69.9477 44.0297 70.765C44.2095 72.3747 44.8451 77.8063 44.8837 78.0292C44.9158 78.2356 44.8964 78.2521 44.6075 78.3098C43.8242 78.4502 42.7455 78.7804 42.4438 78.9537C42.1805 79.1105 42.0008 79.3169 41.6541 79.8452C41.1212 80.6625 40.8899 80.8441 39.7793 81.3146C38.8675 81.7026 38.4117 82.0163 38.02 82.5198C37.6605 82.9821 37.5577 83.2545 37.4293 84.1707C37.2496 85.376 37.0248 85.7722 36.1773 86.317C35.593 86.6968 35.3426 86.9939 35.0986 87.5883C34.8547 88.166 34.8418 88.4963 35.0215 89.2475C35.2784 90.2958 35.2527 91.2451 34.9702 91.6827C34.7006 92.0954 34.5015 92.2192 34.1163 92.2192H33.7439L33.6412 91.79C33.5256 91.2947 33.5192 91.0305 33.6091 90.8076C33.7503 90.4774 33.3266 90.6921 32.9285 91.1625C32.4084 91.7817 32.1901 92.6402 32.3185 93.5813C32.4919 94.869 32.9669 95.5046 33.9879 95.8431C34.4501 95.9916 34.4566 95.9916 34.2639 96.0907C33.7888 96.3466 33.6733 96.7676 33.6733 98.2205C33.6733 99.4916 33.6155 99.7558 33.2495 100.111C33.0505 100.309 32.9413 100.35 32.5561 100.375C32.158 100.4 32.0552 100.375 31.7535 100.169C31.5031 100.004 31.3682 99.8467 31.2784 99.6155L31.1435 99.2935L30.9381 99.6072C30.3281 100.54 30.1676 101.25 30.3667 102.084C30.5657 102.876 31.2206 103.57 31.9526 103.735L32.1965 103.792L31.9205 103.974C31.4453 104.279 31.304 104.948 31.5481 105.741C31.7535 106.401 31.6186 106.756 31.0344 107.161C30.2447 107.697 30.0328 108.085 30.1034 108.878C30.1227 109.133 30.1613 109.628 30.1805 109.975C30.219 110.595 30.219 110.595 30.0135 110.859C29.5834 111.411 28.9027 111.131 28.3698 110.182L28.2351 109.943L28.0938 110.339C27.6572 111.527 27.8305 112.625 28.601 113.591C28.7422 113.764 28.9798 113.988 29.121 114.078C29.3457 114.227 29.3651 114.252 29.2494 114.301C29.1789 114.325 28.9285 114.573 28.6909 114.853C28.1644 115.464 28.0168 115.547 27.2719 115.622L26.6748 115.679L26.7198 115.903C26.8739 116.736 27.6315 117.842 28.3763 118.312C28.7743 118.56 28.8835 118.593 29.3394 118.593H29.853L29.6925 118.998C29.4549 119.625 29.4742 120.426 29.7503 121.144C30.0777 122.002 30.5978 122.456 31.4774 122.662L31.8048 122.737L31.7022 122.481C31.4646 121.895 31.6508 120.69 32.0746 120.121L32.2286 119.914L32.2479 120.285C32.2735 120.888 32.3121 121.012 32.646 121.482C33.1211 122.159 33.166 122.275 33.2623 123.183C33.3266 123.778 33.4036 124.149 33.5256 124.43C33.7311 124.916 34.2447 125.536 34.7327 125.898C34.9252 126.039 35.0858 126.204 35.0858 126.254C35.0858 126.311 35.1179 126.658 35.15 127.029L35.2142 127.698L34.8739 128.145C34.2768 128.937 33.9879 129.869 33.7696 131.735C33.6219 133.014 33.6412 133.658 33.8338 133.658C33.9622 133.658 34.0714 133.436 34.1612 133.014C34.2383 132.659 34.2383 132.709 34.2062 133.575C34.1741 134.418 34.1805 134.542 34.2832 134.649C34.3795 134.757 34.4052 134.748 34.5143 134.583C34.5785 134.476 34.662 134.186 34.7006 133.922C34.7391 133.666 34.7905 133.336 34.8226 133.204C34.8739 132.974 34.8803 132.981 34.8868 133.345C34.8931 133.824 34.9894 134.154 35.1115 134.154C35.2784 134.154 35.3234 133.905 35.4004 132.709C35.4454 132.082 35.4902 131.545 35.5031 131.528C35.5352 131.487 35.5738 131.685 35.6958 132.561C35.8884 133.898 36.0746 133.773 36.2157 132.205C36.325 130.991 36.4405 130.439 36.6845 130.034C36.7744 129.877 36.8643 129.721 36.89 129.679C36.9093 129.647 37.0376 129.687 37.1725 129.779C37.3138 129.869 37.455 129.943 37.4935 129.943C37.5321 129.943 37.6989 130.109 37.8594 130.315C38.187 130.72 38.3666 130.778 38.508 130.513C38.6364 130.29 38.5915 130.117 38.187 129.225C38.0008 128.812 37.8467 128.441 37.8467 128.392C37.8467 128.35 37.776 128.177 37.6862 128.012L37.5256 127.706L37.6926 127.278C37.7889 127.038 37.8659 126.84 37.8723 126.831C37.8788 126.823 38.0585 126.897 38.264 127.005C38.4759 127.112 38.7584 127.22 38.8932 127.244L39.1436 127.293L38.9703 127.095C38.4886 126.518 38.4438 125.255 38.8483 123.727C39.0088 123.125 39.3298 122.332 39.3619 122.473C39.3747 122.522 39.4133 122.713 39.4518 122.902C39.5353 123.315 39.9526 123.942 40.4534 124.379L40.8193 124.702L40.7745 126.064C40.7488 126.815 40.7038 128.128 40.6717 128.995C40.6204 130.629 40.5176 131.43 40.1517 133.204C38.7584 139.882 34.7263 151.662 28.8835 166.117C28.4084 167.289 28.0231 168.271 28.0231 168.312C28.0231 168.518 30.2126 169.617 31.8884 170.26C36.8643 172.167 43.362 173.372 51.2656 173.875C53.4037 174.008 61.1278 174.008 63.529 173.875C65.3846 173.769 68.749 173.529 68.7746 173.496C68.8003 173.462 67.6639 168.857 67.0667 166.595C63.6959 153.75 60.2738 143.457 57.1213 136.713C55.9528 134.212 54.9062 132.321 53.8019 130.736L53.1726 129.836L52.9029 128.714C52.7488 128.094 52.5947 127.286 52.5499 126.914C52.4856 126.311 52.492 126.213 52.5883 126.023L52.6975 125.808L52.9029 126.377C53.3395 127.583 53.9238 128.128 56.0041 129.25L56.6719 129.613L56.4471 129.283C56.1902 128.929 56.0812 128.524 56.0812 127.938V127.542L56.4406 127.872C57.4295 128.788 58.9254 129.085 60.3702 128.664C60.9415 128.499 61.6092 128.152 61.4745 128.103C61.423 128.078 61.1341 127.987 60.8323 127.888C59.6446 127.5 58.7456 126.716 58.5595 125.907C58.4761 125.544 58.5017 124.908 58.6045 124.776C58.6237 124.752 58.7456 124.792 58.8806 124.867C59.6574 125.297 60.5177 125.47 61.147 125.321C61.6092 125.214 61.9367 125.024 62.3862 124.603C62.5531 124.445 62.7264 124.347 62.765 124.379C62.8548 124.445 62.8035 125.024 62.6237 125.915C62.476 126.683 62.4696 127.005 62.6045 127.17C62.7971 127.418 62.9768 127.302 63.1694 126.815C63.2529 126.609 63.4648 126.287 63.6317 126.096L63.9463 125.759L64.2353 126.023C64.5691 126.32 64.9158 127.014 65.2048 127.938C65.4873 128.854 65.5708 129.036 65.712 129.036C65.8661 129.036 65.8661 128.995 65.7698 127.913C65.7314 127.476 65.7184 127.104 65.7314 127.08C65.7505 127.063 65.911 127.542 66.0972 128.145C66.4311 129.25 66.5403 129.473 66.72 129.391C66.7971 129.349 66.8099 129.25 66.7842 128.92C66.765 128.689 66.7329 128.424 66.7073 128.334C66.6815 128.243 66.7842 128.45 66.9255 128.788C67.2273 129.498 67.3942 129.737 67.5354 129.671C67.7216 129.581 67.6703 129.275 67.2273 127.838C67.1695 127.657 67.1631 127.574 67.208 127.665C67.2466 127.748 67.3428 127.93 67.4135 128.07C67.5868 128.409 67.7409 128.524 67.8372 128.4C67.9014 128.317 67.895 128.194 67.8116 127.822C67.6767 127.178 67.131 125.693 66.8163 125.098C66.5211 124.537 65.9046 123.778 65.5194 123.497C65.3011 123.34 65.2241 123.208 65.102 122.82C64.9287 122.266 64.3829 121.062 63.8179 119.997C63.5996 119.584 63.4327 119.204 63.4455 119.147C63.4648 119.096 63.4391 119.047 63.3877 119.047C63.3428 119.047 63.0219 118.568 62.6815 117.982L62.0651 116.917L62.3862 116.868C62.8099 116.794 63.3556 116.521 63.5869 116.274C64.0747 115.754 64.2096 114.466 63.8821 113.525C63.5804 112.674 63.2081 112.352 62.2513 112.146C61.2754 111.932 60.7681 111.568 60.7681 111.065C60.7681 110.957 60.8259 110.569 60.9031 110.198C61.0315 109.579 61.0315 109.504 60.9415 109.257L60.8389 108.993L61.3332 108.96C61.9624 108.927 62.3733 108.679 62.6173 108.209C62.7585 107.936 62.7971 107.763 62.8099 107.242C62.842 106.434 62.72 106.096 62.1229 105.262L61.6734 104.643L61.712 104.948C61.7376 105.196 61.7184 105.287 61.5836 105.452C61.3782 105.724 60.9736 105.881 60.6718 105.806C60.5434 105.774 60.3316 105.625 60.2031 105.468C59.9913 105.221 59.9656 105.154 59.972 104.791C59.9784 104.527 60.0555 104.172 60.2161 103.718C60.4792 102.959 60.5049 102.612 60.3251 102.24L60.2031 101.976L60.98 101.943C61.6221 101.919 61.8212 101.877 62.0844 101.729C62.7393 101.341 62.964 100.87 63.0025 99.7558C63.0539 98.3113 62.6301 97.4032 61.7376 97.0483L61.5836 96.9905L61.7184 97.2134C61.9111 97.527 61.9111 98.0801 61.712 98.3773C61.3075 98.9799 59.7987 98.5094 59.4712 97.6673C59.3107 97.2711 59.33 96.6768 59.5162 95.6697C59.85 93.8537 59.8436 92.7062 59.4841 91.7651C59.2658 91.1874 59.1053 90.9727 58.3412 90.238C57.4937 89.4208 57.3974 89.1649 57.3332 87.5966C57.2497 85.5989 57.025 85.054 55.8692 84.0056C55.3171 83.5104 55.0924 83.1389 54.6493 82.0245C54.4503 81.521 54.155 80.9184 53.9881 80.679C53.1726 79.482 51.9463 78.7969 50.7521 78.863C50.4567 78.8794 50.277 78.8547 50.277 78.8051C51.1437 70.5421 51.2271 69.8569 51.3749 69.8075C51.7729 69.6836 51.9142 69.0232 51.6188 68.6517C51.4197 68.3876 51.2014 68.3876 51.0088 68.6517C50.842 68.8828 50.8163 69.246 50.9383 69.5515C51.0152 69.7331 50.951 69.8982 50.0137 71.9289C48.8773 74.3641 48.9671 74.1824 48.9222 74.1247C48.9029 74.1081 48.6269 73.1176 48.3057 71.9372L47.7216 69.7826L47.8692 69.5268C48.0554 69.1966 48.0554 68.8334 47.8627 68.5692C47.6701 68.3051 47.4518 68.3051 47.2529 68.5692ZM61.3782 115.374C61.4681 115.481 61.5387 115.671 61.5387 115.786C61.5387 115.903 61.5258 115.993 61.5193 115.993C61.5066 115.993 61.3717 115.803 61.224 115.58C60.9864 115.217 60.9673 115.168 61.0893 115.168C61.1599 115.168 61.2946 115.258 61.3782 115.374ZM60.6654 121.408C60.7296 121.524 61.0185 122.002 61.3203 122.481C61.8533 123.34 61.8596 123.356 61.6542 123.299C61.3588 123.216 60.7811 122.877 60.5307 122.63C60.2673 122.374 60.0619 121.87 60.0619 121.482C60.0619 121.201 60.0683 121.194 60.3123 121.194C60.5049 121.194 60.5819 121.235 60.6654 121.408Z" fill="url(#paint2_linear_518_35)"/>
</g>
</g>
<g filter="url(#filter1_d_518_35)">
<path d="M45.8526 37.5251C41.9619 38.0768 38.7622 39.8372 34.897 43.5551C33.6001 44.8032 33.3527 45.0922 32.3544 46.6424C29.7862 50.6099 29.2828 51.4507 28.5746 52.8169C28.1651 53.6052 27.7981 54.2883 27.7469 54.3015C27.491 54.4591 24.9911 60.8044 24.0269 63.7603C23.1395 66.4535 21.9961 70.5786 21.3307 73.4425C20.6822 76.2803 20.0167 80.6812 19.6498 84.6356C19.3853 87.4339 18.916 94.7907 18.9928 94.7907C19.0269 94.7907 19.0611 94.725 19.0611 94.6594C19.0611 94.5805 19.1037 94.528 19.1463 94.528C19.1975 94.528 19.2743 94.7907 19.3341 95.1192C19.4109 95.5396 19.4621 95.6709 19.5389 95.5658C19.6157 95.4739 19.6498 95.5527 19.6839 95.8681C19.8546 97.3525 19.9143 98.3378 19.9996 101.097C20.23 108.769 20.9467 114.667 22.5337 122.051C23.549 126.807 24.1975 129.067 25.5968 132.718C28.5746 140.496 31.049 144.91 34.7179 149.009C36.9704 151.518 37.781 152.201 40.1359 153.554C42.9089 155.157 44.0011 155.472 46.9191 155.577C49.1802 155.657 50.4345 155.525 51.9276 155.078C56.0061 153.83 60.1698 150.322 63.907 144.949C65.3831 142.847 66.2364 141.297 67.6186 138.209C68.796 135.596 69.2824 134.373 70.1015 132.035C72.2858 125.782 73.6509 119.844 74.598 112.592C75.4428 106.102 75.4598 105.879 75.511 99.5203C75.5366 96.7351 75.5963 94.1339 75.6475 93.7397L75.7414 93.0173L75.8523 93.477C75.912 93.7266 75.9632 93.858 75.9632 93.766C75.9717 93.5427 76.1424 93.569 76.1424 93.8054C76.1424 93.9106 76.2191 94.0551 76.3131 94.1339C76.5263 94.3178 76.5263 94.3966 76.3131 91.0466C75.9717 85.6341 75.8352 84.097 75.383 80.7994C75.2038 79.4989 74.9734 77.7516 74.871 76.9239C74.5383 74.2308 73.3182 68.989 72.1322 65.1661C70.9035 61.1854 68.5401 55.3393 67.2431 53.0534C67.0469 52.7118 66.7398 52.0944 66.5606 51.6871C66.2704 51.0171 65.6476 50.0581 63.7705 47.3912C61.8337 44.6455 58.4719 41.4006 56.0914 39.9686C52.5676 37.8403 49.2314 37.0521 45.8526 37.5251ZM50.6221 44.5404C51.6972 44.7769 53.1819 45.3418 54.3764 45.9724C55.4344 46.5373 57.3371 47.8379 57.5931 48.1794C57.687 48.3108 57.7978 48.416 57.832 48.416C57.943 48.416 59.6067 50.2946 60.6136 51.5557C61.7995 53.0403 63.9752 56.4165 64.8797 58.177C66.4838 61.3036 67.7721 64.4172 68.8984 67.8724C69.8711 70.8283 69.965 71.1829 70.5025 73.771C71.6629 79.3807 72.0468 81.7453 72.5502 86.3171C73.0451 90.7839 73.0281 90.4292 73.011 97.7598L72.994 104.591L72.6441 107.81C71.9444 114.142 71.1509 118.596 69.7772 123.89C69.2824 125.808 67.8233 130.288 67.1664 131.904C66.3728 133.861 64.6408 137.658 64.3422 138.078C64.1886 138.288 63.8984 138.8 63.7022 139.221C63.0111 140.627 60.477 143.911 58.6937 145.711C56.6887 147.734 54.53 149.206 52.4652 149.98C49.803 150.966 45.7331 151.11 43.7024 150.309C42.4738 149.81 39.9994 148.549 39.2997 148.062C38.5148 147.498 36.0063 144.949 34.8458 143.53C32.8579 141.087 30.3152 136.66 28.7452 132.889C26.6719 127.923 26.1088 126.162 25.0679 121.447C23.3272 113.537 22.6702 108.086 22.3887 99.4151C22.2692 95.7629 22.2777 94.1996 22.4313 92.0714C22.619 89.5096 22.9433 86.0807 23.1992 84.0838C23.5662 81.1936 24.8715 73.5346 25.1446 72.6675C25.2214 72.4441 25.5371 71.38 25.8614 70.2896C26.4586 68.2665 27.1668 66.2433 28.6856 62.2101C29.4449 60.2001 29.6924 59.6615 30.7247 57.8748C32.6616 54.4985 34.4363 51.9236 35.9977 50.1894C37.508 48.521 39.6155 46.6556 40.6734 46.0512C41.7315 45.4468 44.0182 44.6587 45.5113 44.3959C46.7314 44.1857 49.385 44.2514 50.6221 44.5404Z" fill="#FBC506"/>
</g>
<path d="M46.3672 96.6626L47.8672 96.662L48.8672 95.6621L48.5451 98.0038L49.5 100.341L52 102.504L51.7553 104.667L51.0451 106.618L49.9389 108.167L48.5451 109.161L47 109.504L45.4549 109.161L44.0611 108.167L42.9549 106.618L42.2447 104.667L42 102.504L44.5 100.341L45 98.0038L44.8672 96.6617L45.8672 96.6626H46.3672Z" fill="#F6D9D9"/>
<path d="M47.1989 88.3539L48.3625 88.0239C49.3102 87.7552 50.3142 88.2046 50.7451 89.0904C50.8799 89.3675 50.95 89.6716 50.95 89.9798V93.3047C50.95 93.8629 50.8317 94.4147 50.6029 94.9238L49.9465 96.3845C49.633 97.0822 49.088 97.65 48.4038 97.9919C47.2471 98.5699 45.8599 98.423 44.8499 97.6155L44.7051 97.4998C44.268 97.1503 43.9182 96.7038 43.6834 96.1958L42.9723 94.657C42.8175 94.3221 42.7283 93.9606 42.7093 93.5921L42.6078 91.6211C42.5778 91.0387 43.042 90.55 43.6252 90.55C43.8792 90.55 44.1256 90.4636 44.324 90.3049L45.9755 88.9838C46.3373 88.6944 46.7532 88.4802 47.1989 88.3539Z" fill="#F6D9D9" stroke="black" stroke-width="0.1"/>
<path d="M49.5001 90.9984C49.5001 91.1917 49.2762 91.3484 49.0001 91.3484C48.724 91.3484 48.5001 91.1917 48.5001 90.9984C48.5001 90.8051 48.724 90.6484 49.0001 90.6484C49.2762 90.6484 49.5001 90.8051 49.5001 90.9984Z" fill="black"/>
<path d="M45.5 90.9984C45.5 91.1917 45.2761 91.3484 45 91.3484C44.7239 91.3484 44.5 91.1917 44.5 90.9984C44.5 90.8051 44.7239 90.6484 45 90.6484C45.2761 90.6484 45.5 90.8051 45.5 90.9984Z" fill="black"/>
<path d="M47.7613 93.4576C47.7613 93.6509 47.5374 93.8076 47.2613 93.8076C46.9851 93.8076 46.7613 93.6509 46.7613 93.4576C46.7613 93.2643 47.5226 93.7152 47.2613 93.1076C47 92.5 47.7613 93.2643 47.7613 93.4576Z" fill="#AC9595"/>
<path d="M46.9775 95.5293L47.1622 95.4695C47.5451 95.3456 47.9566 95.3401 48.3427 95.4537L48.5 95.5L48.2957 95.7123C47.9554 96.0659 47.4592 96.2228 46.9775 96.1293V96.1293V96.1293C46.5327 96.2573 46.0539 96.1194 45.7453 95.7744L45.5 95.5L45.6384 95.4593C46.0363 95.3422 46.4607 95.3517 46.8529 95.4865L46.9775 95.5293Z" fill="#F96161"/>
<path fill-rule="evenodd" clip-rule="evenodd" d="M36.5372 40L38.3782 38.5L42.3448 36.863L45.237 36.4132L44.4387 23.2957C44.6097 23.2729 44.7748 23.2161 44.9259 23.1263C45.7234 22.6526 45.8646 21.4132 45.237 20.3567C44.6111 19.303 43.4556 18.8302 42.656 19.3052C41.8584 19.779 41.7172 21.0183 42.3448 22.0748C42.5919 22.4907 42.92 22.8136 43.2761 23.0259L42.7471 25.5386C42.0053 29.0554 40.0676 28.7809 38.3782 25.0051L37.428 22.8797C37.5193 22.8517 37.6082 22.8102 37.6922 22.7603C38.4897 22.2865 38.6309 21.0472 38.0033 19.9907C37.3774 18.937 36.2219 18.4642 35.4223 18.9392C34.6247 19.413 34.4835 20.6523 35.1111 21.7088C35.4686 22.3105 36.0001 22.7225 36.5372 22.8762L36.6231 23.8381C36.9365 28.3713 34.8454 27.8052 32.2795 24.6664L28.0084 19.5843C28.3538 18.9852 28.3171 18.0917 27.846 17.2986C27.22 16.2449 26.0646 15.772 25.2649 16.2471C24.4674 16.7208 24.3262 17.9602 24.9538 19.0167C25.4776 19.8985 26.3687 20.3708 27.1133 20.2286L28.4206 23.7962C29.6478 27.0475 32.5067 33.2799 26.7197 29.9574L25.7691 29.4041C25.9263 28.8418 25.8275 28.1352 25.4486 27.4975C24.8226 26.4437 23.6672 25.9709 22.8676 26.4459C22.07 26.9197 21.9288 28.159 22.5564 29.2155C23.1824 30.2692 24.3378 30.7421 25.1375 30.2671C25.2487 30.201 25.348 30.1195 25.4331 30.0239L26.3006 31.2643C27.5421 32.924 29.2083 35.1792 27.6002 35.9807C26.8033 36.379 26.3115 36.206 25.4019 36.0036L22.808 35.4323C22.8037 34.9997 22.6761 34.5315 22.4159 34.0934C21.7899 33.0397 20.6345 32.5668 19.8348 33.0419C19.0373 33.5156 18.8961 34.755 19.5237 35.8115C20.1513 36.868 21.3051 37.338 22.1047 36.863C22.2936 36.7508 22.444 36.5977 22.5588 36.4132L34 42.5L36.5372 40Z" fill="#FFC803"/>
</g>
<g filter="url(#filter2_d_518_35)">
<path d="M125.941 8.89453H125.355C122.393 8.89453 120.163 9.56999 118.666 10.9209C116.859 12.5485 115.956 15.2422 115.956 19.002C115.956 20.0436 116.07 20.8737 116.298 21.4922C116.363 21.7038 116.444 21.891 116.542 22.0537C116.607 22.1676 116.64 22.2816 116.64 22.3955C114.833 22.3955 113.515 22.0374 112.685 21.3213C111.757 20.54 111.293 19.2868 111.293 17.5615C111.293 15.8363 111.61 14.2005 112.245 12.6543C112.896 11.0918 113.881 9.72461 115.199 8.55273C116.615 7.2832 118.414 6.2985 120.595 5.59863C122.792 4.89876 125.38 4.54883 128.358 4.54883C130.067 4.54883 131.703 4.64648 133.266 4.8418C133.754 4.89062 134.389 4.98014 135.17 5.11035C136.472 5.35449 137.725 5.51725 138.93 5.59863C139.516 5.66374 140.256 5.69629 141.151 5.69629C142.258 5.69629 143.316 5.59863 144.325 5.40332C145.334 5.20801 146.213 4.95573 146.962 4.64648C146.881 6.82747 146.319 8.43066 145.277 9.45605C144.252 10.4814 142.73 10.9941 140.712 10.9941C139.621 10.9941 138.523 10.9046 137.416 10.7256C136.309 10.5465 134.82 10.2699 132.948 9.89551L126.039 42H118.861L125.941 8.89453ZM144.862 42.1953C142.128 42.1953 140.028 41.349 138.563 39.6562C137.229 38.11 136.562 35.9616 136.562 33.2109C136.562 32.3158 136.667 31.2171 136.879 29.915C137.074 28.5967 137.359 27.1807 137.733 25.667C138.547 22.4118 139.63 19.2298 140.98 16.1211C142.478 12.7031 144.122 9.96875 145.912 7.91797C147.93 5.60677 149.981 4.45117 152.064 4.45117C153.806 4.45117 155.141 4.97201 156.068 6.01367C157.061 7.15299 157.558 8.91895 157.558 11.3115C157.558 13.1995 157.094 15.3398 156.166 17.7324C155.466 19.5391 154.571 21.3945 153.48 23.2988C154.18 23.6406 154.807 24.137 155.36 24.7881C156.809 24.7881 158.453 24.4463 160.292 23.7627C161.936 23.1768 163.344 22.4688 164.516 21.6387L164.979 23.0059C164.052 23.9824 162.855 24.8288 161.391 25.5449C159.926 26.2448 158.298 26.7493 156.508 27.0586C156.687 27.6771 156.776 28.5072 156.776 29.5488C156.776 31.209 156.508 32.7959 155.971 34.3096C155.434 35.8232 154.652 37.166 153.627 38.3379C152.569 39.5586 151.291 40.5107 149.794 41.1943C148.313 41.8617 146.669 42.1953 144.862 42.1953ZM147.06 37.7031C147.841 37.7031 148.557 37.4997 149.208 37.0928C149.859 36.6859 150.412 36.1243 150.868 35.4082C151.308 34.7409 151.641 34.0003 151.869 33.1865C152.097 32.3564 152.211 31.5264 152.211 30.6963C152.211 29.4593 152.064 28.5479 151.771 27.9619C151.446 28.0758 151.169 28.1572 150.941 28.2061C150.73 28.2386 150.404 28.2549 149.965 28.2549C149.167 28.2549 148.533 28.0352 148.061 27.5957C147.605 27.1562 147.377 26.554 147.377 25.7891C147.377 24.7962 147.711 24.0475 148.378 23.543C148.915 23.1361 149.745 22.8919 150.868 22.8105C151.763 21.1992 152.569 19.3031 153.285 17.1221C154.001 14.8923 154.359 12.8822 154.359 11.0918C154.359 10.0827 154.229 9.37467 153.969 8.96777C153.725 8.56087 153.31 8.35742 152.724 8.35742C152.203 8.35742 151.674 8.63411 151.137 9.1875C150.6 9.74089 150.071 10.514 149.55 11.5068C148.606 13.346 147.678 15.7956 146.767 18.8555C145.985 21.4434 145.318 24.2266 144.765 27.2051C144.26 29.8743 144.008 31.9251 144.008 33.3574C144.008 34.7083 144.244 35.75 144.716 36.4824C145.22 37.2962 146.002 37.7031 147.06 37.7031ZM168.08 14.29C167.543 14.29 167.03 14.1924 166.542 13.9971C166.054 13.7855 165.631 13.5007 165.272 13.1426C164.914 12.8008 164.63 12.3857 164.418 11.8975C164.223 11.4092 164.125 10.8965 164.125 10.3594C164.125 9.82227 164.223 9.30957 164.418 8.82129C164.63 8.33301 164.914 7.90169 165.272 7.52734C165.631 7.15299 166.054 6.86816 166.542 6.67285C167.03 6.46126 167.543 6.35547 168.08 6.35547C168.617 6.35547 169.13 6.46126 169.618 6.67285C170.106 6.86816 170.538 7.15299 170.912 7.52734C171.286 7.90169 171.571 8.33301 171.767 8.82129C171.978 9.30957 172.084 9.82227 172.084 10.3594C172.084 10.8965 171.978 11.4092 171.767 11.8975C171.571 12.3857 171.286 12.8008 170.912 13.1426C170.538 13.5007 170.106 13.7855 169.618 13.9971C169.13 14.1924 168.617 14.29 168.08 14.29ZM164.687 42.293C163.091 42.293 161.83 41.821 160.902 40.877C159.861 39.8353 159.34 38.3135 159.34 36.3115C159.34 35.3675 159.47 34.277 159.73 33.04L163.124 17H170.326L166.737 33.9922C166.607 34.4154 166.542 34.9525 166.542 35.6035C166.542 36.2871 166.697 36.7673 167.006 37.0439C167.331 37.3206 167.852 37.459 168.568 37.459C169.057 37.459 169.529 37.3532 169.984 37.1416C170.456 36.9137 170.888 36.6045 171.278 36.2139C172.076 35.4163 172.678 34.3584 173.085 33.04H175.185C174.289 35.5628 173.166 37.5729 171.815 39.0703C170.676 40.291 169.39 41.1699 167.958 41.707C166.916 42.0977 165.826 42.293 164.687 42.293ZM186.098 14.5586C184.031 14.5586 182.427 14.1761 181.288 13.4111C180.165 12.6462 179.604 11.5964 179.604 10.2617C179.604 9.17122 179.905 8.29232 180.507 7.625C181.109 6.94141 181.923 6.59961 182.948 6.59961C183.925 6.59961 184.682 6.83561 185.219 7.30762C185.772 7.76335 186.049 8.43066 186.049 9.30957C186.049 9.7002 185.992 10.0501 185.878 10.3594C185.666 10.9453 185.325 11.3929 184.853 11.7021C185.243 11.8324 185.91 11.8975 186.854 11.8975C188.45 11.8975 189.866 11.4906 191.103 10.6768C192.584 9.71647 193.739 8.17025 194.569 6.03809H196.669C195.578 9.17936 194.122 11.4255 192.299 12.7764C190.688 13.9645 188.62 14.5586 186.098 14.5586ZM178.065 42.293C176.47 42.293 175.209 41.821 174.281 40.877C173.24 39.8353 172.719 38.3135 172.719 36.3115C172.719 35.3675 172.849 34.277 173.109 33.04L176.503 17H183.705L180.116 33.9922C180.019 34.4967 179.97 34.9688 179.97 35.4082C179.97 36.7754 180.466 37.459 181.459 37.459C182.37 37.459 183.192 37.0439 183.925 36.2139C184.511 35.514 185.023 34.4561 185.463 33.04L188.856 17H196.059L192.47 33.9922C192.323 34.4805 192.25 35.0176 192.25 35.6035C192.25 36.2871 192.413 36.7673 192.738 37.0439C193.064 37.3206 193.585 37.459 194.301 37.459C195.229 37.459 196.059 37.0439 196.791 36.2139C197.442 35.4814 197.963 34.4235 198.354 33.04H200.453C199.558 35.5791 198.476 37.5892 197.206 39.0703C196.132 40.291 194.919 41.1699 193.568 41.707C192.576 42.0977 191.526 42.293 190.419 42.293C188.987 42.293 187.847 41.8942 187.001 41.0967C186.155 40.2992 185.642 39.1191 185.463 37.5566C184.324 39.3796 183.038 40.6816 181.605 41.4629C180.58 42.0163 179.4 42.293 178.065 42.293Z" fill="url(#paint3_linear_518_35)"/>
<path d="M195.863 95.3984C194.74 95.3984 193.438 95.2113 191.957 94.8369C190.476 94.4626 188.743 93.9255 186.757 93.2256C185.194 92.6885 183.339 92.013 181.19 91.1992C176.78 89.5391 172.873 88.3428 169.472 87.6104C167.551 87.2035 165.679 87 163.856 87C162.799 87 161.83 87.0163 160.951 87.0488C160.3 87.0977 159.82 87.1628 159.511 87.2441L159.315 87.293V87.1953C159.315 87.0977 159.332 87.0326 159.364 87L166.615 52.9912C164.369 53.9189 162.636 55.3105 161.415 57.166C160.211 59.0052 159.608 61.2513 159.608 63.9043C159.608 65.0111 159.73 65.8574 159.975 66.4434C160.023 66.6224 160.105 66.8014 160.219 66.9805C160.284 67.0944 160.316 67.2165 160.316 67.3467C158.542 67.3467 157.208 66.9967 156.312 66.2969C155.417 65.5807 154.97 64.4007 154.97 62.7568C154.97 61.6175 155.206 60.4863 155.678 59.3633C156.15 58.2402 156.817 57.1742 157.68 56.165C158.493 55.2048 159.462 54.3177 160.585 53.5039C161.724 52.6738 162.953 51.9577 164.271 51.3555C167.006 50.1185 169.732 49.5 172.45 49.5C173.231 49.5 173.915 49.5326 174.501 49.5977L167.299 83.3379C167.673 83.3379 167.95 83.3298 168.129 83.3135C168.308 83.2972 168.601 83.2891 169.008 83.2891C170.049 83.2891 171.4 83.46 173.061 83.8018L180.36 49.5977H187.562L179.97 85.291C182.444 85.877 184.454 86.3815 186 86.8047L193.91 49.5977H201.112L192.86 88.3428C195.188 88.8148 196.807 89.0508 197.719 89.0508C198.663 89.0508 199.485 88.9857 200.185 88.8555C200.884 88.7253 201.511 88.5055 202.064 88.1963C201.837 90.654 201.251 92.4525 200.307 93.5918C199.33 94.7962 197.849 95.3984 195.863 95.3984ZM207.094 87.293C205.189 87.293 203.651 86.6989 202.479 85.5107C201.112 84.111 200.429 82.0277 200.429 79.2607C200.429 78.0889 200.551 76.8519 200.795 75.5498C201.023 74.2477 201.365 72.9619 201.82 71.6924C202.862 68.8278 204.286 66.5166 206.093 64.7588C208.176 62.7568 210.577 61.7559 213.295 61.7559C214.646 61.7559 215.655 61.9919 216.322 62.4639C217.006 62.9196 217.348 63.5299 217.348 64.2949V64.6611L217.885 62H225.087L221.498 78.9922C221.352 79.4805 221.278 80.0176 221.278 80.6035C221.278 82.0358 221.962 82.752 223.329 82.752C224.241 82.752 225.071 82.2881 225.819 81.3604C226.454 80.5791 226.975 79.4723 227.382 78.04H229.481C228.586 80.5791 227.504 82.5892 226.234 84.0703C225.16 85.291 223.948 86.1699 222.597 86.707C221.604 87.0977 220.554 87.293 219.447 87.293C218.031 87.293 216.9 86.9105 216.054 86.1455C215.224 85.3643 214.719 84.2168 214.54 82.7031C213.596 84.0378 212.603 85.0794 211.562 85.8281C210.227 86.8047 208.738 87.293 207.094 87.293ZM210.341 82.459C210.715 82.459 211.106 82.3613 211.513 82.166C211.936 81.9707 212.343 81.694 212.733 81.3359C213.612 80.4896 214.198 79.391 214.491 78.04L216.884 66.7607C216.884 66.598 216.843 66.4108 216.762 66.1992C216.697 65.9714 216.599 65.7598 216.469 65.5645C216.078 65.0924 215.533 64.8564 214.833 64.8564C214.166 64.8564 213.515 65.0762 212.88 65.5156C212.261 65.9551 211.675 66.5654 211.122 67.3467C210.146 68.7627 209.34 70.61 208.705 72.8887C208.412 73.8978 208.192 74.8988 208.046 75.8916C207.899 76.8682 207.826 77.7552 207.826 78.5527C207.826 80.2129 208.135 81.3359 208.754 81.9219C208.965 82.1497 209.201 82.2962 209.462 82.3613C209.722 82.4264 210.015 82.459 210.341 82.459ZM234.56 87.293C232.102 87.293 230.206 86.6745 228.871 85.4375C227.455 84.1191 226.747 82.0928 226.747 79.3584C226.747 78.333 226.853 77.1937 227.064 75.9404C227.26 74.6709 227.569 73.4095 227.992 72.1562C228.985 69.1126 230.393 66.6875 232.216 64.8809C234.462 62.6673 237.123 61.5605 240.199 61.5605C242.201 61.5605 243.682 62.0407 244.643 63.001C245.391 63.766 245.766 64.8158 245.766 66.1504C245.766 67.3223 245.505 68.2337 244.984 68.8848C244.496 69.487 243.869 69.7881 243.104 69.7881C242.551 69.7881 241.965 69.5928 241.347 69.2021C241.754 68.1442 241.957 67.1595 241.957 66.248C241.957 65.6133 241.835 65.1169 241.591 64.7588C241.363 64.3844 241.021 64.1973 240.565 64.1973C239.589 64.1973 238.572 65.0599 237.514 66.7852C236.553 68.3151 235.756 70.2601 235.121 72.6201C234.47 74.9313 234.145 77.0228 234.145 78.8945C234.145 80.5221 234.454 81.6452 235.072 82.2637C235.609 82.8171 236.505 83.0938 237.758 83.0938C239.564 83.0938 241.216 82.6055 242.714 81.6289C243.349 81.222 243.959 80.7419 244.545 80.1885C245.131 79.6188 245.814 78.9027 246.596 78.04H248.305C246.726 80.7093 244.911 82.8333 242.86 84.4121C240.338 86.3327 237.571 87.293 234.56 87.293ZM250.185 87.293C248.362 87.293 246.962 86.6989 245.985 85.5107C245.562 85.0062 245.245 84.4202 245.033 83.7529C244.805 83.0693 244.691 82.3695 244.691 81.6533C244.691 80.4652 244.968 79.5049 245.521 78.7725C246.075 78.0238 246.832 77.6494 247.792 77.6494C248.573 77.6494 249.2 77.8936 249.672 78.3818C250.16 78.8538 250.404 79.4805 250.404 80.2617C250.404 80.9779 250.233 81.5475 249.892 81.9707C249.566 82.3776 249.159 82.5811 248.671 82.5811C248.557 82.5811 248.467 82.5729 248.402 82.5566C248.435 83.0124 248.573 83.3623 248.817 83.6064C249.143 83.9645 249.656 84.1436 250.355 84.1436C251.137 84.1436 251.78 83.8913 252.284 83.3867C252.789 82.8822 253.22 82.1497 253.578 81.1895C253.92 80.2129 254.205 79.1712 254.433 78.0645C254.595 77.1367 254.791 76.1846 255.019 75.208L255.189 74.4023C255.71 71.847 256.288 69.7555 256.923 68.1279C257.574 66.5003 258.306 65.2227 259.12 64.2949C259.853 63.4323 260.674 62.8382 261.586 62.5127C262.514 62.1709 263.58 62 264.784 62H272.157L269.496 74.4023L268.617 78.2598C268.406 79.2038 268.3 79.9036 268.3 80.3594C268.3 81.7591 268.967 82.459 270.302 82.459C270.79 82.459 271.221 82.3776 271.596 82.2148C271.97 82.0358 272.32 81.7591 272.646 81.3848C272.938 81.043 273.223 80.6117 273.5 80.0908C273.793 79.57 274.127 78.8864 274.501 78.04H276.601C274.501 84.2087 271.4 87.293 267.299 87.293C265.395 87.293 263.905 86.7559 262.831 85.6816C262.359 85.2096 262.001 84.6562 261.757 84.0215C261.513 83.3704 261.391 82.695 261.391 81.9951C261.391 80.5954 261.757 78.333 262.489 75.208L264.687 65.2959C263.808 65.2959 263.059 65.4749 262.44 65.833C261.822 66.1911 261.277 66.7526 260.805 67.5176C260.349 68.25 259.934 69.2021 259.56 70.374C259.185 71.5459 258.795 73.0514 258.388 74.8906L258.29 75.3789C257.785 77.7389 257.354 79.5537 256.996 80.8232C256.654 82.0928 256.239 83.1751 255.751 84.0703C255.149 85.1608 254.4 85.9746 253.505 86.5117C252.626 87.0326 251.519 87.293 250.185 87.293ZM279.481 87.293C277.886 87.293 276.625 86.821 275.697 85.877C274.656 84.8353 274.135 83.3135 274.135 81.3115C274.135 80.3675 274.265 79.277 274.525 78.04L277.919 62H285.121L281.532 78.9922C281.435 79.4967 281.386 79.9688 281.386 80.4082C281.386 81.7754 281.882 82.459 282.875 82.459C283.786 82.459 284.608 82.0439 285.341 81.2139C285.927 80.514 286.439 79.4561 286.879 78.04L290.272 62H297.475L293.886 78.9922C293.739 79.4805 293.666 80.0176 293.666 80.6035C293.666 81.2871 293.829 81.7673 294.154 82.0439C294.48 82.3206 295.001 82.459 295.717 82.459C296.645 82.459 297.475 82.0439 298.207 81.2139C298.858 80.4814 299.379 79.4235 299.77 78.04H301.869C300.974 80.5791 299.892 82.5892 298.622 84.0703C297.548 85.291 296.335 86.1699 294.984 86.707C293.992 87.0977 292.942 87.293 291.835 87.293C290.403 87.293 289.263 86.8942 288.417 86.0967C287.571 85.2992 287.058 84.1191 286.879 82.5566C285.74 84.3796 284.454 85.6816 283.021 86.4629C281.996 87.0163 280.816 87.293 279.481 87.293ZM307.362 87.1953C304.628 87.1953 302.528 86.349 301.063 84.6562C299.729 83.11 299.062 80.9616 299.062 78.2109C299.062 77.3158 299.167 76.2171 299.379 74.915C299.574 73.5967 299.859 72.1807 300.233 70.667C301.047 67.4118 302.13 64.2298 303.48 61.1211C304.978 57.7031 306.622 54.9688 308.412 52.918C310.43 50.6068 312.481 49.4512 314.564 49.4512C316.306 49.4512 317.641 49.972 318.568 51.0137C319.561 52.153 320.058 53.9189 320.058 56.3115C320.058 58.1995 319.594 60.3398 318.666 62.7324C317.966 64.5391 317.071 66.3945 315.98 68.2988C316.68 68.6406 317.307 69.137 317.86 69.7881C319.309 69.7881 320.953 69.4463 322.792 68.7627C324.436 68.1768 325.844 67.4688 327.016 66.6387L327.479 68.0059C326.552 68.9824 325.355 69.8288 323.891 70.5449C322.426 71.2448 320.798 71.7493 319.008 72.0586C319.187 72.6771 319.276 73.5072 319.276 74.5488C319.276 76.209 319.008 77.7959 318.471 79.3096C317.934 80.8232 317.152 82.166 316.127 83.3379C315.069 84.5586 313.791 85.5107 312.294 86.1943C310.813 86.8617 309.169 87.1953 307.362 87.1953ZM309.56 82.7031C310.341 82.7031 311.057 82.4997 311.708 82.0928C312.359 81.6859 312.912 81.1243 313.368 80.4082C313.808 79.7409 314.141 79.0003 314.369 78.1865C314.597 77.3564 314.711 76.5264 314.711 75.6963C314.711 74.4593 314.564 73.5479 314.271 72.9619C313.946 73.0758 313.669 73.1572 313.441 73.2061C313.23 73.2386 312.904 73.2549 312.465 73.2549C311.667 73.2549 311.033 73.0352 310.561 72.5957C310.105 72.1562 309.877 71.554 309.877 70.7891C309.877 69.7962 310.211 69.0475 310.878 68.543C311.415 68.1361 312.245 67.8919 313.368 67.8105C314.263 66.1992 315.069 64.3031 315.785 62.1221C316.501 59.8923 316.859 57.8822 316.859 56.0918C316.859 55.0827 316.729 54.3747 316.469 53.9678C316.225 53.5609 315.81 53.3574 315.224 53.3574C314.703 53.3574 314.174 53.6341 313.637 54.1875C313.1 54.7409 312.571 55.514 312.05 56.5068C311.106 58.346 310.178 60.7956 309.267 63.8555C308.485 66.4434 307.818 69.2266 307.265 72.2051C306.76 74.8743 306.508 76.9251 306.508 78.3574C306.508 79.7083 306.744 80.75 307.216 81.4824C307.72 82.2962 308.502 82.7031 309.56 82.7031ZM327.187 87.293C325.591 87.293 324.33 86.821 323.402 85.877C322.361 84.8353 321.84 83.3135 321.84 81.3115C321.84 80.3675 321.97 79.277 322.23 78.04L325.624 62H332.826L329.237 78.9922C329.14 79.4967 329.091 79.9688 329.091 80.4082C329.091 81.7754 329.587 82.459 330.58 82.459C331.492 82.459 332.313 82.0439 333.046 81.2139C333.632 80.514 334.145 79.4561 334.584 78.04L337.978 62H345.18L341.591 78.9922C341.444 79.4805 341.371 80.0176 341.371 80.6035C341.371 81.2871 341.534 81.7673 341.859 82.0439C342.185 82.3206 342.706 82.459 343.422 82.459C344.35 82.459 345.18 82.0439 345.912 81.2139C346.563 80.4814 347.084 79.4235 347.475 78.04H349.574C348.679 80.5791 347.597 82.5892 346.327 84.0703C345.253 85.291 344.04 86.1699 342.689 86.707C341.697 87.0977 340.647 87.293 339.54 87.293C338.108 87.293 336.968 86.8942 336.122 86.0967C335.276 85.2992 334.763 84.1191 334.584 82.5566C333.445 84.3796 332.159 85.6816 330.727 86.4629C329.701 87.0163 328.521 87.293 327.187 87.293ZM360.463 59.5586C358.396 59.5586 356.793 59.1761 355.653 58.4111C354.53 57.6462 353.969 56.5964 353.969 55.2617C353.969 54.1712 354.27 53.2923 354.872 52.625C355.474 51.9414 356.288 51.5996 357.313 51.5996C358.29 51.5996 359.047 51.8356 359.584 52.3076C360.137 52.7633 360.414 53.4307 360.414 54.3096C360.414 54.7002 360.357 55.0501 360.243 55.3594C360.032 55.9453 359.69 56.3929 359.218 56.7021C359.608 56.8324 360.276 56.8975 361.22 56.8975C362.815 56.8975 364.231 56.4906 365.468 55.6768C366.949 54.7165 368.104 53.1702 368.935 51.0381H371.034C369.944 54.1794 368.487 56.4255 366.664 57.7764C365.053 58.9645 362.986 59.5586 360.463 59.5586ZM352.431 87.293C350.836 87.293 349.574 86.821 348.646 85.877C347.605 84.8353 347.084 83.3135 347.084 81.3115C347.084 80.3675 347.214 79.277 347.475 78.04L350.868 62H358.07L354.481 78.9922C354.384 79.4967 354.335 79.9688 354.335 80.4082C354.335 81.7754 354.831 82.459 355.824 82.459C356.736 82.459 357.558 82.0439 358.29 81.2139C358.876 80.514 359.389 79.4561 359.828 78.04L363.222 62H370.424L366.835 78.9922C366.688 79.4805 366.615 80.0176 366.615 80.6035C366.615 81.2871 366.778 81.7673 367.104 82.0439C367.429 82.3206 367.95 82.459 368.666 82.459C369.594 82.459 370.424 82.0439 371.156 81.2139C371.807 80.4814 372.328 79.4235 372.719 78.04H374.818C373.923 80.5791 372.841 82.5892 371.571 84.0703C370.497 85.291 369.285 86.1699 367.934 86.707C366.941 87.0977 365.891 87.293 364.784 87.293C363.352 87.293 362.213 86.8942 361.366 86.0967C360.52 85.2992 360.007 84.1191 359.828 82.5566C358.689 84.3796 357.403 85.6816 355.971 86.4629C354.945 87.0163 353.765 87.293 352.431 87.293Z" fill="url(#paint4_linear_518_35)"/>
<path d="M202.357 133.343C201.609 133.343 200.876 133.213 200.16 132.952C199.46 132.692 198.842 132.326 198.305 131.854C197.735 131.349 197.287 130.771 196.962 130.12C196.636 129.453 196.474 128.729 196.474 127.947C196.474 126.987 196.645 126.1 196.986 125.286C197.328 124.456 197.808 123.756 198.427 123.187C199.029 122.633 199.721 122.21 200.502 121.917C201.283 121.608 202.105 121.453 202.968 121.453C203.668 121.453 204.286 121.583 204.823 121.844L205.019 120.843L209.511 100.188L216.908 99.2119L211.464 124.847C211.22 125.888 211.008 126.67 210.829 127.19C211.659 127.89 212.636 128.24 213.759 128.24C214.719 128.24 215.631 127.939 216.493 127.337C217.372 126.735 218.178 125.88 218.91 124.773C220.294 122.706 221.4 119.923 222.23 116.424C222.995 113.12 223.378 109.726 223.378 106.243C223.378 102.988 222.711 100.563 221.376 98.9678C220.139 97.5192 218.373 96.7949 216.078 96.7949C214.206 96.7949 212.473 97.0716 210.878 97.625C209.283 98.1784 207.899 98.9759 206.728 100.018C205.523 101.092 204.595 102.386 203.944 103.899C203.293 105.413 202.968 107.098 202.968 108.953C202.968 110.027 203.09 110.857 203.334 111.443C203.399 111.655 203.48 111.842 203.578 112.005C203.643 112.119 203.676 112.233 203.676 112.347C201.918 112.347 200.583 111.989 199.672 111.272C198.777 110.54 198.329 109.352 198.329 107.708C198.329 106.585 198.549 105.478 198.988 104.388C199.428 103.281 200.062 102.231 200.893 101.238C201.706 100.262 202.683 99.3665 203.822 98.5527C204.978 97.7227 206.239 97.0065 207.606 96.4043C210.504 95.1348 213.604 94.5 216.908 94.5C221.449 94.5 224.892 95.9404 227.235 98.8213C228.261 100.091 229.018 101.588 229.506 103.313C230.01 105.039 230.263 106.902 230.263 108.904C230.263 110.776 230.092 112.672 229.75 114.593C229.424 116.513 228.952 118.369 228.334 120.159C227.715 121.917 226.975 123.561 226.112 125.091C225.266 126.604 224.33 127.923 223.305 129.046C222.247 130.201 221.132 131.097 219.96 131.731C218.804 132.35 217.624 132.659 216.42 132.659C215.264 132.659 214.149 132.431 213.075 131.976C211.822 131.455 210.683 130.633 209.657 129.51C208.762 130.91 207.598 131.927 206.166 132.562C205.043 133.082 203.773 133.343 202.357 133.343ZM201.21 128.899C201.812 128.899 202.357 128.623 202.846 128.069C203.448 127.402 203.887 126.377 204.164 124.993L204.408 123.748C203.904 123.423 203.407 123.26 202.919 123.26C202.479 123.26 202.032 123.366 201.576 123.577C201.137 123.772 200.746 124.049 200.404 124.407C200.046 124.765 199.753 125.197 199.525 125.701C199.314 126.189 199.208 126.702 199.208 127.239C199.208 127.728 199.395 128.126 199.77 128.436C200.144 128.745 200.624 128.899 201.21 128.899ZM238.319 132.293C235.862 132.293 233.965 131.674 232.631 130.438C231.215 129.119 230.507 127.093 230.507 124.358C230.507 123.333 230.613 122.194 230.824 120.94C231.02 119.687 231.321 118.434 231.728 117.181C232.183 115.781 232.761 114.454 233.461 113.201C234.177 111.948 235.007 110.841 235.951 109.881C238.132 107.667 240.818 106.561 244.008 106.561C246.042 106.561 247.523 107.049 248.451 108.025C249.167 108.79 249.525 109.897 249.525 111.346C249.525 112.762 249.216 114.096 248.598 115.35C247.979 116.587 247.125 117.685 246.034 118.646C244.944 119.59 243.707 120.346 242.323 120.916C240.94 121.469 239.507 121.795 238.026 121.893C237.945 122.739 237.904 123.406 237.904 123.895C237.904 125.522 238.214 126.645 238.832 127.264C239.369 127.817 240.264 128.094 241.518 128.094C243.324 128.094 244.976 127.605 246.474 126.629C247.108 126.222 247.719 125.742 248.305 125.188C248.891 124.619 249.574 123.903 250.355 123.04H252.064C250.486 125.709 248.671 127.833 246.62 129.412C244.097 131.333 241.33 132.293 238.319 132.293ZM238.417 119.5C239.345 119.435 240.248 119.166 241.127 118.694C242.006 118.222 242.787 117.604 243.471 116.839C244.154 116.058 244.691 115.187 245.082 114.227C245.473 113.25 245.668 112.257 245.668 111.248C245.668 110.581 245.57 110.076 245.375 109.734C245.196 109.376 244.879 109.197 244.423 109.197C243.821 109.197 243.21 109.49 242.592 110.076C241.99 110.662 241.404 111.468 240.834 112.493C240.313 113.453 239.841 114.544 239.418 115.765C238.995 116.985 238.661 118.23 238.417 119.5ZM268.495 132.293C266.575 132.293 265.093 131.756 264.052 130.682C263.58 130.21 263.222 129.656 262.978 129.021C262.733 128.37 262.611 127.695 262.611 126.995C262.611 126.377 262.701 125.538 262.88 124.48C263.075 123.423 263.368 121.925 263.759 119.988H258.217L255.653 132H248.451L253.749 107H260.951L258.803 117.01H264.394L266.664 107H273.354L270.717 119.402L269.838 123.26C269.61 124.269 269.496 124.969 269.496 125.359C269.496 126.759 270.163 127.459 271.498 127.459C272.003 127.459 272.442 127.378 272.816 127.215C273.191 127.036 273.541 126.759 273.866 126.385C274.159 126.043 274.436 125.62 274.696 125.115C274.973 124.611 275.307 123.919 275.697 123.04H277.797C275.697 129.209 272.597 132.293 268.495 132.293ZM282.899 132.293C281.744 132.293 280.702 132.146 279.774 131.854C278.847 131.561 278.065 131.137 277.431 130.584C276.78 130.047 276.275 129.38 275.917 128.582C275.575 127.785 275.404 126.889 275.404 125.896C275.404 124.806 275.518 123.854 275.746 123.04L279.14 107H286.342L284.657 115.105C285.699 114.666 286.651 114.381 287.514 114.251C288.132 114.153 288.84 114.104 289.638 114.104C290.631 114.104 291.526 114.251 292.323 114.544C293.137 114.837 293.821 115.268 294.374 115.838C294.927 116.408 295.351 117.116 295.644 117.962C295.953 118.792 296.107 119.72 296.107 120.745C296.107 121.461 295.993 122.243 295.766 123.089C295.554 123.935 295.237 124.773 294.813 125.604C293.804 127.524 292.388 129.062 290.565 130.218C288.433 131.601 285.878 132.293 282.899 132.293ZM284.657 128.045C285.276 128.045 285.878 127.833 286.464 127.41C287.066 126.971 287.603 126.385 288.075 125.652C288.515 124.952 288.865 124.196 289.125 123.382C289.402 122.552 289.54 121.771 289.54 121.038C289.54 120.029 289.312 119.24 288.856 118.67C288.401 118.084 287.733 117.791 286.854 117.791C286.48 117.791 285.976 117.889 285.341 118.084C284.657 118.279 284.177 118.483 283.9 118.694L282.655 124.603C282.558 124.83 282.509 125.115 282.509 125.457C282.509 125.783 282.509 125.962 282.509 125.994C282.509 127.361 283.225 128.045 284.657 128.045Z" fill="url(#paint5_linear_518_35)"/>
</g>
</g>
<defs>
<filter id="filter0_d_518_35" x="85.9404" y="64.4023" width="64.7812" height="120.645" filterUnits="userSpaceOnUse" color-interpolation-filters="sRGB">
<feFlood flood-opacity="0" result="BackgroundImageFix"/>
<feColorMatrix in="SourceAlpha" type="matrix" values="0 0 0 0 0 0 0 0 0 0 0 0 0 0 0 0 0 0 127 0" result="hardAlpha"/>
<feOffset dx="-3" dy="3"/>
<feGaussianBlur stdDeviation="2.5"/>
<feComposite in2="hardAlpha" operator="out"/>
<feColorMatrix type="matrix" values="0 0 0 0 0 0 0 0 0 0 0 0 0 0 0 0 0 0 0.31 0"/>
<feBlend mode="normal" in2="BackgroundImageFix" result="effect1_dropShadow_518_35"/>
<feBlend mode="normal" in="SourceGraphic" in2="effect1_dropShadow_518_35" result="shape"/>
</filter>
<filter id="filter1_d_518_35" x="13.9844" y="37.3926" width="62.4883" height="123.207" filterUnits="userSpaceOnUse" color-interpolation-filters="sRGB">
<feFlood flood-opacity="0" result="BackgroundImageFix"/>
<feColorMatrix in="SourceAlpha" type="matrix" values="0 0 0 0 0 0 0 0 0 0 0 0 0 0 0 0 0 0 127 0" result="hardAlpha"/>
<feOffset dx="-3" dy="3"/>
<feGaussianBlur stdDeviation="1"/>
<feComposite in2="hardAlpha" operator="out"/>
<feColorMatrix type="matrix" values="0 0 0 0 0 0 0 0 0 0 0 0 0 0 0 0 0 0 0.25 0"/>
<feBlend mode="normal" in2="BackgroundImageFix" result="effect1_dropShadow_518_35"/>
<feBlend mode="normal" in="SourceGraphic" in2="effect1_dropShadow_518_35" result="shape"/>
</filter>
<filter id="filter2_d_518_35" x="105.293" y="4.45117" width="269.525" height="134.893" filterUnits="userSpaceOnUse" color-interpolation-filters="sRGB">
<feFlood flood-opacity="0" result="BackgroundImageFix"/>
<feColorMatrix in="SourceAlpha" type="matrix" values="0 0 0 0 0 0 0 0 0 0 0 0 0 0 0 0 0 0 127 0" result="hardAlpha"/>
<feOffset dx="-3" dy="3"/>
<feGaussianBlur stdDeviation="1.5"/>
<feComposite in2="hardAlpha" operator="out"/>
<feColorMatrix type="matrix" values="0 0 0 0 0 0 0 0 0 0 0 0 0 0 0 0 0 0 0.28 0"/>
<feBlend mode="normal" in2="BackgroundImageFix" result="effect1_dropShadow_518_35"/>
<feBlend mode="normal" in="SourceGraphic" in2="effect1_dropShadow_518_35" result="shape"/>
</filter>
<linearGradient id="paint0_linear_518_35" x1="13.4128" y1="44.4349" x2="79.6646" y2="138.562" gradientUnits="userSpaceOnUse">
<stop offset="0.201532" stop-color="#EBEBEB" stop-opacity="0.27"/>
<stop offset="0.316985" stop-color="#F5F5F5"/>
<stop offset="0.534929" stop-color="#F5F5F5" stop-opacity="0.494792"/>
<stop offset="0.758429" stop-color="#F5F5F5" stop-opacity="0.9"/>
<stop offset="0.917347" stop-color="#EBEBEB" stop-opacity="0.13"/>
</linearGradient>
<radialGradient id="paint1_radial_518_35" cx="0" cy="0" r="1" gradientUnits="userSpaceOnUse" gradientTransform="translate(127.5 77) rotate(17.2925) scale(55.509 27.4828)">
<stop stop-color="#FFC803"/>
<stop offset="0.265625" stop-color="#FFC803" stop-opacity="0.42"/>
<stop offset="0.40625" stop-color="#FFC803" stop-opacity="0.550256"/>
<stop offset="0.40635" stop-color="#FFC803" stop-opacity="0.58"/>
<stop offset="0.572917" stop-color="#FFC803"/>
<stop offset="0.838542" stop-color="#FFC803" stop-opacity="0.18"/>
<stop offset="1" stop-color="#31D0F2"/>
</radialGradient>
<linearGradient id="paint2_linear_518_35" x1="47.7249" y1="68.3711" x2="47.7249" y2="173.975" gradientUnits="userSpaceOnUse">
<stop stop-color="#FBC506"/>
<stop offset="0.0833333" stop-color="#FBC506"/>
<stop offset="0.130208" stop-color="#5E3F04"/>
<stop offset="0.192708" stop-color="#5E3F04"/>
<stop offset="0.260417" stop-color="#5E3F04"/>
<stop offset="0.338542" stop-color="#5E3F04"/>
<stop offset="0.385417" stop-color="#5E3F04"/>
<stop offset="0.59375" stop-color="#117EFF"/>
<stop offset="0.791667" stop-color="#11D4FF" stop-opacity="0.732394"/>
<stop offset="1" stop-color="#11C6FF" stop-opacity="0"/>
</linearGradient>
<linearGradient id="paint3_linear_518_35" x1="152.5" y1="-9" x2="171.5" y2="51.5" gradientUnits="userSpaceOnUse">
<stop offset="0.0806125" stop-color="#31D0F2"/>
<stop offset="0.385417" stop-color="#31D0F2" stop-opacity="0.572586"/>
<stop offset="0.515625" stop-color="white"/>
<stop offset="0.635417" stop-color="#31D0F2" stop-opacity="0.54086"/>
<stop offset="1" stop-color="#31D0F2"/>
</linearGradient>
<linearGradient id="paint4_linear_518_35" x1="226" y1="42" x2="231" y2="114.5" gradientUnits="userSpaceOnUse">
<stop stop-color="#FFC803"/>
<stop offset="0.401042" stop-color="#FFC803" stop-opacity="0.51"/>
<stop offset="0.5" stop-color="white"/>
<stop offset="0.578125" stop-color="#FFC803" stop-opacity="0.5"/>
<stop offset="1" stop-color="#FFC803"/>
</linearGradient>
<linearGradient id="paint5_linear_518_35" x1="229" y1="93" x2="239" y2="148" gradientUnits="userSpaceOnUse">
<stop stop-color="#31D0F2"/>
<stop offset="0.346556" stop-color="#31D0F2" stop-opacity="0.49"/>
<stop offset="0.346656" stop-color="#31D0F2" stop-opacity="0.49"/>
<stop offset="0.489583" stop-color="white"/>
<stop offset="0.588542" stop-color="#31D0F2" stop-opacity="0.49"/>
<stop offset="1" stop-color="#31D0F2"/>
</linearGradient>
<clipPath id="clip0_518_35">
<rect width="382" height="179" fill="white"/>
</clipPath>
<clipPath id="clip1_518_35">
<rect width="150" height="172" fill="white" transform="translate(4 7)"/>
</clipPath>
</defs>
</svg>
