<svg width="386" height="187" viewBox="0 0 386 187" fill="none" xmlns="http://www.w3.org/2000/svg">
<g clip-path="url(#clip0_541_2)" filter="url(#filter0_d_541_2)">
<g filter="url(#filter1_d_541_2)">
<path fill-rule="evenodd" clip-rule="evenodd" d="M116.735 132.486L133.881 79.9528C134.664 79.9985 135.462 79.9035 136.241 79.6654C140.352 78.4087 142.525 73.565 141.08 68.8372C139.638 64.1219 135.135 61.3062 131.013 62.5662C126.903 63.8228 124.729 68.6666 126.175 73.3943C126.744 75.2556 127.786 76.8093 129.091 77.9436L123.613 87.5697C115.939 101.042 107.737 98.3934 105.014 81.9399L103.483 72.6791C103.921 72.6403 104.365 72.5452 104.798 72.4129C108.908 71.1563 111.082 66.3125 109.636 61.5848C108.195 56.8695 103.691 54.0538 99.5698 55.3137C95.4595 56.5704 93.2856 61.4141 94.731 66.1418C95.5542 68.8345 97.3827 70.9078 99.5589 71.9521L98.7336 75.868C94.4417 94.2494 85.9284 90.3121 78.5411 75.7049L66.0658 51.9612C68.3392 49.8415 69.2957 46.2383 68.2107 42.6894C66.7691 37.9741 62.2653 35.1584 58.1441 36.4183C54.0337 37.675 51.8599 42.5188 53.3053 47.2465C54.5117 51.1924 57.8502 53.7946 61.3121 53.8216L62.6117 69.1367C63.9543 83.1225 68.7617 110.337 47.3986 92.4175L43.8992 89.4439C45.2963 87.3207 45.7446 84.4156 44.8721 81.5616C43.4305 76.8463 38.9267 74.0306 34.8055 75.2906C30.6951 76.5472 28.5213 81.391 29.9667 86.1187C31.4083 90.834 35.9121 93.6497 40.0332 92.3898C40.6065 92.2145 41.1462 91.9681 41.6415 91.6538L43.9146 97.309C47.3123 104.941 51.8378 115.294 43.7428 117.212C39.7296 118.168 37.7773 117.082 34.0191 115.545L23.2948 111.184C23.8174 109.451 23.8406 107.476 23.2412 105.515C21.7996 100.8 17.2958 97.9844 13.1746 99.2444C9.06426 100.501 6.89036 105.345 8.33577 110.073C9.78118 114.8 14.2812 117.604 18.4024 116.344C19.3759 116.046 20.2308 115.554 20.9677 114.908L63.8066 148.408L116.735 132.486Z" fill="url(#paint0_linear_541_2)"/>
<rect x="59.7578" y="155.135" width="68" height="14" rx="7" transform="rotate(-17 59.7578 155.135)" fill="url(#paint1_linear_541_2)"/>
</g>
<g filter="url(#filter2_d_541_2)">
<path d="M130.941 13.8945H130.355C127.393 13.8945 125.163 14.57 123.666 15.9209C121.859 17.5485 120.956 20.2422 120.956 24.002C120.956 25.0436 121.07 25.8737 121.298 26.4922C121.363 26.7038 121.444 26.891 121.542 27.0537C121.607 27.1676 121.64 27.2816 121.64 27.3955C119.833 27.3955 118.515 27.0374 117.685 26.3213C116.757 25.54 116.293 24.2868 116.293 22.5615C116.293 20.8363 116.61 19.2005 117.245 17.6543C117.896 16.0918 118.881 14.7246 120.199 13.5527C121.615 12.2832 123.414 11.2985 125.595 10.5986C127.792 9.89876 130.38 9.54883 133.358 9.54883C135.067 9.54883 136.703 9.64648 138.266 9.8418C138.754 9.89062 139.389 9.98014 140.17 10.1104C141.472 10.3545 142.725 10.5173 143.93 10.5986C144.516 10.6637 145.256 10.6963 146.151 10.6963C147.258 10.6963 148.316 10.5986 149.325 10.4033C150.334 10.208 151.213 9.95573 151.962 9.64648C151.881 11.8275 151.319 13.4307 150.277 14.4561C149.252 15.4814 147.73 15.9941 145.712 15.9941C144.621 15.9941 143.523 15.9046 142.416 15.7256C141.309 15.5465 139.82 15.2699 137.948 14.8955L131.039 47H123.861L130.941 13.8945ZM149.862 47.1953C147.128 47.1953 145.028 46.349 143.563 44.6562C142.229 43.11 141.562 40.9616 141.562 38.2109C141.562 37.3158 141.667 36.2171 141.879 34.915C142.074 33.5967 142.359 32.1807 142.733 30.667C143.547 27.4118 144.63 24.2298 145.98 21.1211C147.478 17.7031 149.122 14.9688 150.912 12.918C152.93 10.6068 154.981 9.45117 157.064 9.45117C158.806 9.45117 160.141 9.97201 161.068 11.0137C162.061 12.153 162.558 13.9189 162.558 16.3115C162.558 18.1995 162.094 20.3398 161.166 22.7324C160.466 24.5391 159.571 26.3945 158.48 28.2988C159.18 28.6406 159.807 29.137 160.36 29.7881C161.809 29.7881 163.453 29.4463 165.292 28.7627C166.936 28.1768 168.344 27.4688 169.516 26.6387L169.979 28.0059C169.052 28.9824 167.855 29.8288 166.391 30.5449C164.926 31.2448 163.298 31.7493 161.508 32.0586C161.687 32.6771 161.776 33.5072 161.776 34.5488C161.776 36.209 161.508 37.7959 160.971 39.3096C160.434 40.8232 159.652 42.166 158.627 43.3379C157.569 44.5586 156.291 45.5107 154.794 46.1943C153.313 46.8617 151.669 47.1953 149.862 47.1953ZM152.06 42.7031C152.841 42.7031 153.557 42.4997 154.208 42.0928C154.859 41.6859 155.412 41.1243 155.868 40.4082C156.308 39.7409 156.641 39.0003 156.869 38.1865C157.097 37.3564 157.211 36.5264 157.211 35.6963C157.211 34.4593 157.064 33.5479 156.771 32.9619C156.446 33.0758 156.169 33.1572 155.941 33.2061C155.73 33.2386 155.404 33.2549 154.965 33.2549C154.167 33.2549 153.533 33.0352 153.061 32.5957C152.605 32.1562 152.377 31.554 152.377 30.7891C152.377 29.7962 152.711 29.0475 153.378 28.543C153.915 28.1361 154.745 27.8919 155.868 27.8105C156.763 26.1992 157.569 24.3031 158.285 22.1221C159.001 19.8923 159.359 17.8822 159.359 16.0918C159.359 15.0827 159.229 14.3747 158.969 13.9678C158.725 13.5609 158.31 13.3574 157.724 13.3574C157.203 13.3574 156.674 13.6341 156.137 14.1875C155.6 14.7409 155.071 15.514 154.55 16.5068C153.606 18.346 152.678 20.7956 151.767 23.8555C150.985 26.4434 150.318 29.2266 149.765 32.2051C149.26 34.8743 149.008 36.9251 149.008 38.3574C149.008 39.7083 149.244 40.75 149.716 41.4824C150.22 42.2962 151.002 42.7031 152.06 42.7031ZM173.08 19.29C172.543 19.29 172.03 19.1924 171.542 18.9971C171.054 18.7855 170.631 18.5007 170.272 18.1426C169.914 17.8008 169.63 17.3857 169.418 16.8975C169.223 16.4092 169.125 15.8965 169.125 15.3594C169.125 14.8223 169.223 14.3096 169.418 13.8213C169.63 13.333 169.914 12.9017 170.272 12.5273C170.631 12.153 171.054 11.8682 171.542 11.6729C172.03 11.4613 172.543 11.3555 173.08 11.3555C173.617 11.3555 174.13 11.4613 174.618 11.6729C175.106 11.8682 175.538 12.153 175.912 12.5273C176.286 12.9017 176.571 13.333 176.767 13.8213C176.978 14.3096 177.084 14.8223 177.084 15.3594C177.084 15.8965 176.978 16.4092 176.767 16.8975C176.571 17.3857 176.286 17.8008 175.912 18.1426C175.538 18.5007 175.106 18.7855 174.618 18.9971C174.13 19.1924 173.617 19.29 173.08 19.29ZM169.687 47.293C168.091 47.293 166.83 46.821 165.902 45.877C164.861 44.8353 164.34 43.3135 164.34 41.3115C164.34 40.3675 164.47 39.277 164.73 38.04L168.124 22H175.326L171.737 38.9922C171.607 39.4154 171.542 39.9525 171.542 40.6035C171.542 41.2871 171.697 41.7673 172.006 42.0439C172.331 42.3206 172.852 42.459 173.568 42.459C174.057 42.459 174.529 42.3532 174.984 42.1416C175.456 41.9137 175.888 41.6045 176.278 41.2139C177.076 40.4163 177.678 39.3584 178.085 38.04H180.185C179.289 40.5628 178.166 42.5729 176.815 44.0703C175.676 45.291 174.39 46.1699 172.958 46.707C171.916 47.0977 170.826 47.293 169.687 47.293ZM191.098 19.5586C189.031 19.5586 187.427 19.1761 186.288 18.4111C185.165 17.6462 184.604 16.5964 184.604 15.2617C184.604 14.1712 184.905 13.2923 185.507 12.625C186.109 11.9414 186.923 11.5996 187.948 11.5996C188.925 11.5996 189.682 11.8356 190.219 12.3076C190.772 12.7633 191.049 13.4307 191.049 14.3096C191.049 14.7002 190.992 15.0501 190.878 15.3594C190.666 15.9453 190.325 16.3929 189.853 16.7021C190.243 16.8324 190.91 16.8975 191.854 16.8975C193.45 16.8975 194.866 16.4906 196.103 15.6768C197.584 14.7165 198.739 13.1702 199.569 11.0381H201.669C200.578 14.1794 199.122 16.4255 197.299 17.7764C195.688 18.9645 193.62 19.5586 191.098 19.5586ZM183.065 47.293C181.47 47.293 180.209 46.821 179.281 45.877C178.24 44.8353 177.719 43.3135 177.719 41.3115C177.719 40.3675 177.849 39.277 178.109 38.04L181.503 22H188.705L185.116 38.9922C185.019 39.4967 184.97 39.9688 184.97 40.4082C184.97 41.7754 185.466 42.459 186.459 42.459C187.37 42.459 188.192 42.0439 188.925 41.2139C189.511 40.514 190.023 39.4561 190.463 38.04L193.856 22H201.059L197.47 38.9922C197.323 39.4805 197.25 40.0176 197.25 40.6035C197.25 41.2871 197.413 41.7673 197.738 42.0439C198.064 42.3206 198.585 42.459 199.301 42.459C200.229 42.459 201.059 42.0439 201.791 41.2139C202.442 40.4814 202.963 39.4235 203.354 38.04H205.453C204.558 40.5791 203.476 42.5892 202.206 44.0703C201.132 45.291 199.919 46.1699 198.568 46.707C197.576 47.0977 196.526 47.293 195.419 47.293C193.987 47.293 192.847 46.8942 192.001 46.0967C191.155 45.2992 190.642 44.1191 190.463 42.5566C189.324 44.3796 188.038 45.6816 186.605 46.4629C185.58 47.0163 184.4 47.293 183.065 47.293ZM200.229 100.398C199.105 100.398 197.803 100.211 196.322 99.8369C194.841 99.4626 193.108 98.9255 191.122 98.2256C189.56 97.6885 187.704 97.013 185.556 96.1992C181.145 94.5391 177.239 93.3428 173.837 92.6104C171.916 92.2035 170.045 92 168.222 92C167.164 92 166.195 92.0163 165.316 92.0488C164.665 92.0977 164.185 92.1628 163.876 92.2441L163.681 92.293V92.1953C163.681 92.0977 163.697 92.0326 163.729 92L170.98 57.9912C168.734 58.9189 167.001 60.3105 165.78 62.166C164.576 64.0052 163.974 66.2513 163.974 68.9043C163.974 70.0111 164.096 70.8574 164.34 71.4434C164.389 71.6224 164.47 71.8014 164.584 71.9805C164.649 72.0944 164.682 72.2165 164.682 72.3467C162.908 72.3467 161.573 71.9967 160.678 71.2969C159.783 70.5807 159.335 69.4007 159.335 67.7568C159.335 66.6175 159.571 65.4863 160.043 64.3633C160.515 63.2402 161.182 62.1742 162.045 61.165C162.859 60.2048 163.827 59.3177 164.95 58.5039C166.09 57.6738 167.318 56.9577 168.637 56.3555C171.371 55.1185 174.097 54.5 176.815 54.5C177.597 54.5 178.28 54.5326 178.866 54.5977L171.664 88.3379C172.038 88.3379 172.315 88.3298 172.494 88.3135C172.673 88.2972 172.966 88.2891 173.373 88.2891C174.415 88.2891 175.766 88.46 177.426 88.8018L184.726 54.5977H191.928L184.335 90.291C186.809 90.877 188.819 91.3815 190.365 91.8047L198.275 54.5977H205.478L197.226 93.3428C199.553 93.8148 201.173 94.0508 202.084 94.0508C203.028 94.0508 203.85 93.9857 204.55 93.8555C205.25 93.7253 205.876 93.5055 206.43 93.1963C206.202 95.654 205.616 97.4525 204.672 98.5918C203.695 99.7962 202.214 100.398 200.229 100.398ZM211.459 92.293C209.555 92.293 208.017 91.6989 206.845 90.5107C205.478 89.111 204.794 87.0277 204.794 84.2607C204.794 83.0889 204.916 81.8519 205.16 80.5498C205.388 79.2477 205.73 77.9619 206.186 76.6924C207.227 73.8278 208.651 71.5166 210.458 69.7588C212.541 67.7568 214.942 66.7559 217.66 66.7559C219.011 66.7559 220.02 66.9919 220.688 67.4639C221.371 67.9196 221.713 68.5299 221.713 69.2949V69.6611L222.25 67H229.452L225.863 83.9922C225.717 84.4805 225.644 85.0176 225.644 85.6035C225.644 87.0358 226.327 87.752 227.694 87.752C228.606 87.752 229.436 87.2881 230.185 86.3604C230.819 85.5791 231.34 84.4723 231.747 83.04H233.847C232.951 85.5791 231.869 87.5892 230.6 89.0703C229.525 90.291 228.313 91.1699 226.962 91.707C225.969 92.0977 224.919 92.293 223.812 92.293C222.396 92.293 221.265 91.9105 220.419 91.1455C219.589 90.3643 219.084 89.2168 218.905 87.7031C217.961 89.0378 216.968 90.0794 215.927 90.8281C214.592 91.8047 213.103 92.293 211.459 92.293ZM214.706 87.459C215.08 87.459 215.471 87.3613 215.878 87.166C216.301 86.9707 216.708 86.694 217.099 86.3359C217.978 85.4896 218.563 84.391 218.856 83.04L221.249 71.7607C221.249 71.598 221.208 71.4108 221.127 71.1992C221.062 70.9714 220.964 70.7598 220.834 70.5645C220.443 70.0924 219.898 69.8564 219.198 69.8564C218.531 69.8564 217.88 70.0762 217.245 70.5156C216.627 70.9551 216.041 71.5654 215.487 72.3467C214.511 73.7627 213.705 75.61 213.07 77.8887C212.777 78.8978 212.558 79.8988 212.411 80.8916C212.265 81.8682 212.191 82.7552 212.191 83.5527C212.191 85.2129 212.501 86.3359 213.119 86.9219C213.331 87.1497 213.567 87.2962 213.827 87.3613C214.088 87.4264 214.381 87.459 214.706 87.459ZM238.925 92.293C236.467 92.293 234.571 91.6745 233.236 90.4375C231.82 89.1191 231.112 87.0928 231.112 84.3584C231.112 83.333 231.218 82.1937 231.43 80.9404C231.625 79.6709 231.934 78.4095 232.357 77.1562C233.35 74.1126 234.758 71.6875 236.581 69.8809C238.827 67.6673 241.488 66.5605 244.564 66.5605C246.566 66.5605 248.048 67.0407 249.008 68.001C249.757 68.766 250.131 69.8158 250.131 71.1504C250.131 72.3223 249.87 73.2337 249.35 73.8848C248.861 74.487 248.235 74.7881 247.47 74.7881C246.916 74.7881 246.33 74.5928 245.712 74.2021C246.119 73.1442 246.322 72.1595 246.322 71.248C246.322 70.6133 246.2 70.1169 245.956 69.7588C245.728 69.3844 245.386 69.1973 244.931 69.1973C243.954 69.1973 242.937 70.0599 241.879 71.7852C240.919 73.3151 240.121 75.2601 239.486 77.6201C238.835 79.9313 238.51 82.0228 238.51 83.8945C238.51 85.5221 238.819 86.6452 239.438 87.2637C239.975 87.8171 240.87 88.0938 242.123 88.0938C243.93 88.0938 245.582 87.6055 247.079 86.6289C247.714 86.222 248.324 85.7419 248.91 85.1885C249.496 84.6188 250.18 83.9027 250.961 83.04H252.67C251.091 85.7093 249.276 87.8333 247.226 89.4121C244.703 91.3327 241.936 92.293 238.925 92.293ZM254.55 92.293C252.727 92.293 251.327 91.6989 250.351 90.5107C249.927 90.0062 249.61 89.4202 249.398 88.7529C249.171 88.0693 249.057 87.3695 249.057 86.6533C249.057 85.4652 249.333 84.5049 249.887 83.7725C250.44 83.0238 251.197 82.6494 252.157 82.6494C252.938 82.6494 253.565 82.8936 254.037 83.3818C254.525 83.8538 254.77 84.4805 254.77 85.2617C254.77 85.9779 254.599 86.5475 254.257 86.9707C253.931 87.3776 253.524 87.5811 253.036 87.5811C252.922 87.5811 252.833 87.5729 252.768 87.5566C252.8 88.0124 252.938 88.3623 253.183 88.6064C253.508 88.9645 254.021 89.1436 254.721 89.1436C255.502 89.1436 256.145 88.8913 256.649 88.3867C257.154 87.8822 257.585 87.1497 257.943 86.1895C258.285 85.2129 258.57 84.1712 258.798 83.0645C258.961 82.1367 259.156 81.1846 259.384 80.208L259.555 79.4023C260.076 76.847 260.653 74.7555 261.288 73.1279C261.939 71.5003 262.672 70.2227 263.485 69.2949C264.218 68.4323 265.04 67.8382 265.951 67.5127C266.879 67.1709 267.945 67 269.149 67H276.522L273.861 79.4023L272.982 83.2598C272.771 84.2038 272.665 84.9036 272.665 85.3594C272.665 86.7591 273.332 87.459 274.667 87.459C275.155 87.459 275.587 87.3776 275.961 87.2148C276.335 87.0358 276.685 86.7591 277.011 86.3848C277.304 86.043 277.589 85.6117 277.865 85.0908C278.158 84.57 278.492 83.8864 278.866 83.04H280.966C278.866 89.2087 275.766 92.293 271.664 92.293C269.76 92.293 268.271 91.7559 267.196 90.6816C266.724 90.2096 266.366 89.6562 266.122 89.0215C265.878 88.3704 265.756 87.695 265.756 86.9951C265.756 85.5954 266.122 83.333 266.854 80.208L269.052 70.2959C268.173 70.2959 267.424 70.4749 266.806 70.833C266.187 71.1911 265.642 71.7526 265.17 72.5176C264.714 73.25 264.299 74.2021 263.925 75.374C263.55 76.5459 263.16 78.0514 262.753 79.8906L262.655 80.3789C262.151 82.7389 261.719 84.5537 261.361 85.8232C261.02 87.0928 260.604 88.1751 260.116 89.0703C259.514 90.1608 258.765 90.9746 257.87 91.5117C256.991 92.0326 255.884 92.293 254.55 92.293ZM283.847 92.293C282.252 92.293 280.99 91.821 280.062 90.877C279.021 89.8353 278.5 88.3135 278.5 86.3115C278.5 85.3675 278.63 84.277 278.891 83.04L282.284 67H289.486L285.897 83.9922C285.8 84.4967 285.751 84.9688 285.751 85.4082C285.751 86.7754 286.247 87.459 287.24 87.459C288.152 87.459 288.974 87.0439 289.706 86.2139C290.292 85.514 290.805 84.4561 291.244 83.04L294.638 67H301.84L298.251 83.9922C298.104 84.4805 298.031 85.0176 298.031 85.6035C298.031 86.2871 298.194 86.7673 298.52 87.0439C298.845 87.3206 299.366 87.459 300.082 87.459C301.01 87.459 301.84 87.0439 302.572 86.2139C303.223 85.4814 303.744 84.4235 304.135 83.04H306.234C305.339 85.5791 304.257 87.5892 302.987 89.0703C301.913 90.291 300.701 91.1699 299.35 91.707C298.357 92.0977 297.307 92.293 296.2 92.293C294.768 92.293 293.629 91.8942 292.782 91.0967C291.936 90.2992 291.423 89.1191 291.244 87.5566C290.105 89.3796 288.819 90.6816 287.387 91.4629C286.361 92.0163 285.181 92.293 283.847 92.293ZM311.728 92.1953C308.993 92.1953 306.894 91.349 305.429 89.6562C304.094 88.11 303.427 85.9616 303.427 83.2109C303.427 82.3158 303.533 81.2171 303.744 79.915C303.939 78.5967 304.224 77.1807 304.599 75.667C305.412 72.4118 306.495 69.2298 307.846 66.1211C309.343 62.7031 310.987 59.9688 312.777 57.918C314.796 55.6068 316.846 54.4512 318.93 54.4512C320.671 54.4512 322.006 54.972 322.934 56.0137C323.926 57.153 324.423 58.9189 324.423 61.3115C324.423 63.1995 323.959 65.3398 323.031 67.7324C322.331 69.5391 321.436 71.3945 320.346 73.2988C321.046 73.6406 321.672 74.137 322.226 74.7881C323.674 74.7881 325.318 74.4463 327.157 73.7627C328.801 73.1768 330.209 72.4688 331.381 71.6387L331.845 73.0059C330.917 73.9824 329.721 74.8288 328.256 75.5449C326.791 76.2448 325.163 76.7493 323.373 77.0586C323.552 77.6771 323.642 78.5072 323.642 79.5488C323.642 81.209 323.373 82.7959 322.836 84.3096C322.299 85.8232 321.518 87.166 320.492 88.3379C319.434 89.5586 318.157 90.5107 316.659 91.1943C315.178 91.8617 313.534 92.1953 311.728 92.1953ZM313.925 87.7031C314.706 87.7031 315.422 87.4997 316.073 87.0928C316.724 86.6859 317.278 86.1243 317.733 85.4082C318.173 84.7409 318.507 84.0003 318.734 83.1865C318.962 82.3564 319.076 81.5264 319.076 80.6963C319.076 79.4593 318.93 78.5479 318.637 77.9619C318.311 78.0758 318.035 78.1572 317.807 78.2061C317.595 78.2386 317.27 78.2549 316.83 78.2549C316.033 78.2549 315.398 78.0352 314.926 77.5957C314.47 77.1562 314.242 76.554 314.242 75.7891C314.242 74.7962 314.576 74.0475 315.243 73.543C315.78 73.1361 316.61 72.8919 317.733 72.8105C318.629 71.1992 319.434 69.3031 320.15 67.1221C320.867 64.8923 321.225 62.8822 321.225 61.0918C321.225 60.0827 321.094 59.3747 320.834 58.9678C320.59 58.5609 320.175 58.3574 319.589 58.3574C319.068 58.3574 318.539 58.6341 318.002 59.1875C317.465 59.7409 316.936 60.514 316.415 61.5068C315.471 63.346 314.543 65.7956 313.632 68.8555C312.851 71.4434 312.183 74.2266 311.63 77.2051C311.125 79.8743 310.873 81.9251 310.873 83.3574C310.873 84.7083 311.109 85.75 311.581 86.4824C312.086 87.2962 312.867 87.7031 313.925 87.7031ZM331.552 92.293C329.957 92.293 328.695 91.821 327.768 90.877C326.726 89.8353 326.205 88.3135 326.205 86.3115C326.205 85.3675 326.335 84.277 326.596 83.04L329.989 67H337.191L333.603 83.9922C333.505 84.4967 333.456 84.9688 333.456 85.4082C333.456 86.7754 333.952 87.459 334.945 87.459C335.857 87.459 336.679 87.0439 337.411 86.2139C337.997 85.514 338.51 84.4561 338.949 83.04L342.343 67H349.545L345.956 83.9922C345.81 84.4805 345.736 85.0176 345.736 85.6035C345.736 86.2871 345.899 86.7673 346.225 87.0439C346.55 87.3206 347.071 87.459 347.787 87.459C348.715 87.459 349.545 87.0439 350.277 86.2139C350.928 85.4814 351.449 84.4235 351.84 83.04H353.939C353.044 85.5791 351.962 87.5892 350.692 89.0703C349.618 90.291 348.406 91.1699 347.055 91.707C346.062 92.0977 345.012 92.293 343.905 92.293C342.473 92.293 341.334 91.8942 340.487 91.0967C339.641 90.2992 339.128 89.1191 338.949 87.5566C337.81 89.3796 336.524 90.6816 335.092 91.4629C334.066 92.0163 332.886 92.293 331.552 92.293ZM364.828 64.5586C362.761 64.5586 361.158 64.1761 360.019 63.4111C358.896 62.6462 358.334 61.5964 358.334 60.2617C358.334 59.1712 358.635 58.2923 359.237 57.625C359.84 56.9414 360.653 56.5996 361.679 56.5996C362.655 56.5996 363.412 56.8356 363.949 57.3076C364.503 57.7633 364.779 58.4307 364.779 59.3096C364.779 59.7002 364.722 60.0501 364.608 60.3594C364.397 60.9453 364.055 61.3929 363.583 61.7021C363.974 61.8324 364.641 61.8975 365.585 61.8975C367.18 61.8975 368.596 61.4906 369.833 60.6768C371.314 59.7165 372.47 58.1702 373.3 56.0381H375.399C374.309 59.1794 372.852 61.4255 371.029 62.7764C369.418 63.9645 367.351 64.5586 364.828 64.5586ZM356.796 92.293C355.201 92.293 353.939 91.821 353.012 90.877C351.97 89.8353 351.449 88.3135 351.449 86.3115C351.449 85.3675 351.579 84.277 351.84 83.04L355.233 67H362.436L358.847 83.9922C358.749 84.4967 358.7 84.9688 358.7 85.4082C358.7 86.7754 359.197 87.459 360.189 87.459C361.101 87.459 361.923 87.0439 362.655 86.2139C363.241 85.514 363.754 84.4561 364.193 83.04L367.587 67H374.789L371.2 83.9922C371.054 84.4805 370.98 85.0176 370.98 85.6035C370.98 86.2871 371.143 86.7673 371.469 87.0439C371.794 87.3206 372.315 87.459 373.031 87.459C373.959 87.459 374.789 87.0439 375.521 86.2139C376.173 85.4814 376.693 84.4235 377.084 83.04H379.184C378.288 85.5791 377.206 87.5892 375.937 89.0703C374.862 90.291 373.65 91.1699 372.299 91.707C371.306 92.0977 370.256 92.293 369.149 92.293C367.717 92.293 366.578 91.8942 365.731 91.0967C364.885 90.2992 364.372 89.1191 364.193 87.5566C363.054 89.3796 361.768 90.6816 360.336 91.4629C359.311 92.0163 358.131 92.293 356.796 92.293ZM196.518 138.343C195.769 138.343 195.036 138.213 194.32 137.952C193.62 137.692 193.002 137.326 192.465 136.854C191.895 136.349 191.448 135.771 191.122 135.12C190.797 134.453 190.634 133.729 190.634 132.947C190.634 131.987 190.805 131.1 191.146 130.286C191.488 129.456 191.968 128.756 192.587 128.187C193.189 127.633 193.881 127.21 194.662 126.917C195.443 126.608 196.265 126.453 197.128 126.453C197.828 126.453 198.446 126.583 198.983 126.844L199.179 125.843L203.671 105.188L211.068 104.212L205.624 129.847C205.38 130.888 205.168 131.67 204.989 132.19C205.819 132.89 206.796 133.24 207.919 133.24C208.879 133.24 209.791 132.939 210.653 132.337C211.532 131.735 212.338 130.88 213.07 129.773C214.454 127.706 215.561 124.923 216.391 121.424C217.156 118.12 217.538 114.726 217.538 111.243C217.538 107.988 216.871 105.563 215.536 103.968C214.299 102.519 212.533 101.795 210.238 101.795C208.367 101.795 206.633 102.072 205.038 102.625C203.443 103.178 202.06 103.976 200.888 105.018C199.683 106.092 198.756 107.386 198.104 108.899C197.453 110.413 197.128 112.098 197.128 113.953C197.128 115.027 197.25 115.857 197.494 116.443C197.559 116.655 197.641 116.842 197.738 117.005C197.803 117.119 197.836 117.233 197.836 117.347C196.078 117.347 194.743 116.989 193.832 116.272C192.937 115.54 192.489 114.352 192.489 112.708C192.489 111.585 192.709 110.478 193.148 109.388C193.588 108.281 194.223 107.231 195.053 106.238C195.867 105.262 196.843 104.367 197.982 103.553C199.138 102.723 200.399 102.007 201.767 101.404C204.664 100.135 207.764 99.5 211.068 99.5C215.609 99.5 219.052 100.94 221.396 103.821C222.421 105.091 223.178 106.588 223.666 108.313C224.171 110.039 224.423 111.902 224.423 113.904C224.423 115.776 224.252 117.672 223.91 119.593C223.585 121.513 223.113 123.369 222.494 125.159C221.876 126.917 221.135 128.561 220.272 130.091C219.426 131.604 218.49 132.923 217.465 134.046C216.407 135.201 215.292 136.097 214.12 136.731C212.965 137.35 211.785 137.659 210.58 137.659C209.424 137.659 208.31 137.431 207.235 136.976C205.982 136.455 204.843 135.633 203.817 134.51C202.922 135.91 201.758 136.927 200.326 137.562C199.203 138.082 197.934 138.343 196.518 138.343ZM195.37 133.899C195.972 133.899 196.518 133.623 197.006 133.069C197.608 132.402 198.048 131.377 198.324 129.993L198.568 128.748C198.064 128.423 197.567 128.26 197.079 128.26C196.64 128.26 196.192 128.366 195.736 128.577C195.297 128.772 194.906 129.049 194.564 129.407C194.206 129.765 193.913 130.197 193.686 130.701C193.474 131.189 193.368 131.702 193.368 132.239C193.368 132.728 193.555 133.126 193.93 133.436C194.304 133.745 194.784 133.899 195.37 133.899ZM232.479 137.293C230.022 137.293 228.126 136.674 226.791 135.438C225.375 134.119 224.667 132.093 224.667 129.358C224.667 128.333 224.773 127.194 224.984 125.94C225.18 124.687 225.481 123.434 225.888 122.181C226.343 120.781 226.921 119.454 227.621 118.201C228.337 116.948 229.167 115.841 230.111 114.881C232.292 112.667 234.978 111.561 238.168 111.561C240.202 111.561 241.684 112.049 242.611 113.025C243.327 113.79 243.686 114.897 243.686 116.346C243.686 117.762 243.376 119.096 242.758 120.35C242.139 121.587 241.285 122.685 240.194 123.646C239.104 124.59 237.867 125.346 236.483 125.916C235.1 126.469 233.668 126.795 232.187 126.893C232.105 127.739 232.064 128.406 232.064 128.895C232.064 130.522 232.374 131.645 232.992 132.264C233.529 132.817 234.424 133.094 235.678 133.094C237.484 133.094 239.136 132.605 240.634 131.629C241.269 131.222 241.879 130.742 242.465 130.188C243.051 129.619 243.734 128.903 244.516 128.04H246.225C244.646 130.709 242.831 132.833 240.78 134.412C238.257 136.333 235.491 137.293 232.479 137.293ZM232.577 124.5C233.505 124.435 234.408 124.166 235.287 123.694C236.166 123.222 236.947 122.604 237.631 121.839C238.314 121.058 238.852 120.187 239.242 119.227C239.633 118.25 239.828 117.257 239.828 116.248C239.828 115.581 239.73 115.076 239.535 114.734C239.356 114.376 239.039 114.197 238.583 114.197C237.981 114.197 237.37 114.49 236.752 115.076C236.15 115.662 235.564 116.468 234.994 117.493C234.473 118.453 234.001 119.544 233.578 120.765C233.155 121.985 232.821 123.23 232.577 124.5ZM262.655 137.293C260.735 137.293 259.254 136.756 258.212 135.682C257.74 135.21 257.382 134.656 257.138 134.021C256.894 133.37 256.771 132.695 256.771 131.995C256.771 131.377 256.861 130.538 257.04 129.48C257.235 128.423 257.528 126.925 257.919 124.988H252.377L249.813 137H242.611L247.909 112H255.111L252.963 122.01H258.554L260.824 112H267.514L264.877 124.402L263.998 128.26C263.77 129.269 263.656 129.969 263.656 130.359C263.656 131.759 264.324 132.459 265.658 132.459C266.163 132.459 266.602 132.378 266.977 132.215C267.351 132.036 267.701 131.759 268.026 131.385C268.319 131.043 268.596 130.62 268.856 130.115C269.133 129.611 269.467 128.919 269.857 128.04H271.957C269.857 134.209 266.757 137.293 262.655 137.293ZM277.06 137.293C275.904 137.293 274.862 137.146 273.935 136.854C273.007 136.561 272.226 136.137 271.591 135.584C270.94 135.047 270.435 134.38 270.077 133.582C269.735 132.785 269.564 131.889 269.564 130.896C269.564 129.806 269.678 128.854 269.906 128.04L273.3 112H280.502L278.817 120.105C279.859 119.666 280.811 119.381 281.674 119.251C282.292 119.153 283 119.104 283.798 119.104C284.791 119.104 285.686 119.251 286.483 119.544C287.297 119.837 287.981 120.268 288.534 120.838C289.088 121.408 289.511 122.116 289.804 122.962C290.113 123.792 290.268 124.72 290.268 125.745C290.268 126.461 290.154 127.243 289.926 128.089C289.714 128.935 289.397 129.773 288.974 130.604C287.965 132.524 286.549 134.062 284.726 135.218C282.593 136.601 280.038 137.293 277.06 137.293ZM278.817 133.045C279.436 133.045 280.038 132.833 280.624 132.41C281.226 131.971 281.763 131.385 282.235 130.652C282.675 129.952 283.025 129.196 283.285 128.382C283.562 127.552 283.7 126.771 283.7 126.038C283.7 125.029 283.472 124.24 283.017 123.67C282.561 123.084 281.894 122.791 281.015 122.791C280.64 122.791 280.136 122.889 279.501 123.084C278.817 123.279 278.337 123.483 278.061 123.694L276.815 129.603C276.718 129.83 276.669 130.115 276.669 130.457C276.669 130.783 276.669 130.962 276.669 130.994C276.669 132.361 277.385 133.045 278.817 133.045Z" fill="url(#paint2_linear_541_2)"/>
</g>
</g>
<defs>
<filter id="filter0_d_541_2" x="0" y="0" width="390" height="187" filterUnits="userSpaceOnUse" color-interpolation-filters="sRGB">
<feFlood flood-opacity="0" result="BackgroundImageFix"/>
<feColorMatrix in="SourceAlpha" type="matrix" values="0 0 0 0 0 0 0 0 0 0 0 0 0 0 0 0 0 0 127 0" result="hardAlpha"/>
<feOffset dy="4"/>
<feGaussianBlur stdDeviation="2"/>
<feComposite in2="hardAlpha" operator="out"/>
<feColorMatrix type="matrix" values="0 0 0 0 0 0 0 0 0 0 0 0 0 0 0 0 0 0 0.25 0"/>
<feBlend mode="normal" in2="BackgroundImageFix" result="effect1_dropShadow_541_2"/>
<feBlend mode="normal" in="SourceGraphic" in2="effect1_dropShadow_541_2" result="shape"/>
</filter>
<filter id="filter1_d_541_2" x="-15" y="16" width="177.35" height="170.047" filterUnits="userSpaceOnUse" color-interpolation-filters="sRGB">
<feFlood flood-opacity="0" result="BackgroundImageFix"/>
<feColorMatrix in="SourceAlpha" type="matrix" values="0 0 0 0 0 0 0 0 0 0 0 0 0 0 0 0 0 0 127 0" result="hardAlpha"/>
<feOffset dx="-4" dy="4"/>
<feGaussianBlur stdDeviation="1.5"/>
<feComposite in2="hardAlpha" operator="out"/>
<feColorMatrix type="matrix" values="0 0 0 0 0.239083 0 0 0 0 0.629167 0 0 0 0 0 0 0 0 0.79 0"/>
<feBlend mode="normal" in2="BackgroundImageFix" result="effect1_dropShadow_541_2"/>
<feBlend mode="normal" in="SourceGraphic" in2="effect1_dropShadow_541_2" result="shape"/>
</filter>
<filter id="filter2_d_541_2" x="111.293" y="9.45117" width="267.891" height="133.893" filterUnits="userSpaceOnUse" color-interpolation-filters="sRGB">
<feFlood flood-opacity="0" result="BackgroundImageFix"/>
<feColorMatrix in="SourceAlpha" type="matrix" values="0 0 0 0 0 0 0 0 0 0 0 0 0 0 0 0 0 0 127 0" result="hardAlpha"/>
<feOffset dx="-3" dy="3"/>
<feGaussianBlur stdDeviation="1"/>
<feComposite in2="hardAlpha" operator="out"/>
<feColorMatrix type="matrix" values="0 0 0 0 0 0 0 0 0 0.475 0 0 0 0 0.0189997 0 0 0 1 0"/>
<feBlend mode="normal" in2="BackgroundImageFix" result="effect1_dropShadow_541_2"/>
<feBlend mode="normal" in="SourceGraphic" in2="effect1_dropShadow_541_2" result="shape"/>
</filter>
<linearGradient id="paint0_linear_541_2" x1="140" y1="83" x2="34" y2="145" gradientUnits="userSpaceOnUse">
<stop stop-color="#FFC803"/>
<stop offset="0.369792" stop-color="#FCC400"/>
<stop offset="0.536458" stop-color="#FFF7DB"/>
<stop offset="0.713542" stop-color="#FBC400"/>
<stop offset="1" stop-color="#FFC803"/>
</linearGradient>
<linearGradient id="paint1_linear_541_2" x1="140.946" y1="158.902" x2="50.079" y2="161.969" gradientUnits="userSpaceOnUse">
<stop stop-color="#FFC803"/>
<stop offset="0.291667" stop-color="#FFC803"/>
<stop offset="0.421875" stop-color="#F8ECC5"/>
<stop offset="0.604167" stop-color="#FFC803"/>
<stop offset="1" stop-color="#FFC803"/>
</linearGradient>
<linearGradient id="paint2_linear_541_2" x1="143" y1="-5" x2="271.31" y2="160.088" gradientUnits="userSpaceOnUse">
<stop stop-color="#B80B0B"/>
<stop stop-color="#B8860B"/>
<stop offset="0.0001" stop-color="#FF0000"/>
<stop offset="0.203125" stop-color="#FF7A00"/>
<stop offset="0.5" stop-color="#FAFF00"/>
<stop offset="0.693382" stop-color="#05FF00"/>
<stop offset="0.848958" stop-color="#00B3FF"/>
<stop offset="1" stop-color="#4A2DFF"/>
</linearGradient>
<clipPath id="clip0_541_2">
<rect width="382" height="179" fill="white" transform="translate(4)"/>
</clipPath>
</defs>
</svg>
