<svg width="382" height="179" viewBox="0 0 382 179" fill="none" xmlns="http://www.w3.org/2000/svg">
<g clip-path="url(#clip0_541_2)">
<g filter="url(#filter0_d_541_2)">
<path d="M125.941 8.89453H125.355C122.393 8.89453 120.163 9.56999 118.666 10.9209C116.859 12.5485 115.956 15.2422 115.956 19.002C115.956 20.0436 116.07 20.8737 116.298 21.4922C116.363 21.7038 116.444 21.891 116.542 22.0537C116.607 22.1676 116.64 22.2816 116.64 22.3955C114.833 22.3955 113.515 22.0374 112.685 21.3213C111.757 20.54 111.293 19.2868 111.293 17.5615C111.293 15.8363 111.61 14.2005 112.245 12.6543C112.896 11.0918 113.881 9.72461 115.199 8.55273C116.615 7.2832 118.414 6.2985 120.595 5.59863C122.792 4.89876 125.38 4.54883 128.358 4.54883C130.067 4.54883 131.703 4.64648 133.266 4.8418C133.754 4.89062 134.389 4.98014 135.17 5.11035C136.472 5.35449 137.725 5.51725 138.93 5.59863C139.516 5.66374 140.256 5.69629 141.151 5.69629C142.258 5.69629 143.316 5.59863 144.325 5.40332C145.334 5.20801 146.213 4.95573 146.962 4.64648C146.881 6.82747 146.319 8.43066 145.277 9.45605C144.252 10.4814 142.73 10.9941 140.712 10.9941C139.621 10.9941 138.523 10.9046 137.416 10.7256C136.309 10.5465 134.82 10.2699 132.948 9.89551L126.039 42H118.861L125.941 8.89453ZM144.862 42.1953C142.128 42.1953 140.028 41.349 138.563 39.6562C137.229 38.11 136.562 35.9616 136.562 33.2109C136.562 32.3158 136.667 31.2171 136.879 29.915C137.074 28.5967 137.359 27.1807 137.733 25.667C138.547 22.4118 139.63 19.2298 140.98 16.1211C142.478 12.7031 144.122 9.96875 145.912 7.91797C147.93 5.60677 149.981 4.45117 152.064 4.45117C153.806 4.45117 155.141 4.97201 156.068 6.01367C157.061 7.15299 157.558 8.91895 157.558 11.3115C157.558 13.1995 157.094 15.3398 156.166 17.7324C155.466 19.5391 154.571 21.3945 153.48 23.2988C154.18 23.6406 154.807 24.137 155.36 24.7881C156.809 24.7881 158.453 24.4463 160.292 23.7627C161.936 23.1768 163.344 22.4688 164.516 21.6387L164.979 23.0059C164.052 23.9824 162.855 24.8288 161.391 25.5449C159.926 26.2448 158.298 26.7493 156.508 27.0586C156.687 27.6771 156.776 28.5072 156.776 29.5488C156.776 31.209 156.508 32.7959 155.971 34.3096C155.434 35.8232 154.652 37.166 153.627 38.3379C152.569 39.5586 151.291 40.5107 149.794 41.1943C148.313 41.8617 146.669 42.1953 144.862 42.1953ZM147.06 37.7031C147.841 37.7031 148.557 37.4997 149.208 37.0928C149.859 36.6859 150.412 36.1243 150.868 35.4082C151.308 34.7409 151.641 34.0003 151.869 33.1865C152.097 32.3564 152.211 31.5264 152.211 30.6963C152.211 29.4593 152.064 28.5479 151.771 27.9619C151.446 28.0758 151.169 28.1572 150.941 28.2061C150.73 28.2386 150.404 28.2549 149.965 28.2549C149.167 28.2549 148.533 28.0352 148.061 27.5957C147.605 27.1562 147.377 26.554 147.377 25.7891C147.377 24.7962 147.711 24.0475 148.378 23.543C148.915 23.1361 149.745 22.8919 150.868 22.8105C151.763 21.1992 152.569 19.3031 153.285 17.1221C154.001 14.8923 154.359 12.8822 154.359 11.0918C154.359 10.0827 154.229 9.37467 153.969 8.96777C153.725 8.56087 153.31 8.35742 152.724 8.35742C152.203 8.35742 151.674 8.63411 151.137 9.1875C150.6 9.74089 150.071 10.514 149.55 11.5068C148.606 13.346 147.678 15.7956 146.767 18.8555C145.985 21.4434 145.318 24.2266 144.765 27.2051C144.26 29.8743 144.008 31.9251 144.008 33.3574C144.008 34.7083 144.244 35.75 144.716 36.4824C145.22 37.2962 146.002 37.7031 147.06 37.7031ZM168.08 14.29C167.543 14.29 167.03 14.1924 166.542 13.9971C166.054 13.7855 165.631 13.5007 165.272 13.1426C164.914 12.8008 164.63 12.3857 164.418 11.8975C164.223 11.4092 164.125 10.8965 164.125 10.3594C164.125 9.82227 164.223 9.30957 164.418 8.82129C164.63 8.33301 164.914 7.90169 165.272 7.52734C165.631 7.15299 166.054 6.86816 166.542 6.67285C167.03 6.46126 167.543 6.35547 168.08 6.35547C168.617 6.35547 169.13 6.46126 169.618 6.67285C170.106 6.86816 170.538 7.15299 170.912 7.52734C171.286 7.90169 171.571 8.33301 171.767 8.82129C171.978 9.30957 172.084 9.82227 172.084 10.3594C172.084 10.8965 171.978 11.4092 171.767 11.8975C171.571 12.3857 171.286 12.8008 170.912 13.1426C170.538 13.5007 170.106 13.7855 169.618 13.9971C169.13 14.1924 168.617 14.29 168.08 14.29ZM164.687 42.293C163.091 42.293 161.83 41.821 160.902 40.877C159.861 39.8353 159.34 38.3135 159.34 36.3115C159.34 35.3675 159.47 34.277 159.73 33.04L163.124 17H170.326L166.737 33.9922C166.607 34.4154 166.542 34.9525 166.542 35.6035C166.542 36.2871 166.697 36.7673 167.006 37.0439C167.331 37.3206 167.852 37.459 168.568 37.459C169.057 37.459 169.529 37.3532 169.984 37.1416C170.456 36.9137 170.888 36.6045 171.278 36.2139C172.076 35.4163 172.678 34.3584 173.085 33.04H175.185C174.289 35.5628 173.166 37.5729 171.815 39.0703C170.676 40.291 169.39 41.1699 167.958 41.707C166.916 42.0977 165.826 42.293 164.687 42.293ZM186.098 14.5586C184.031 14.5586 182.427 14.1761 181.288 13.4111C180.165 12.6462 179.604 11.5964 179.604 10.2617C179.604 9.17122 179.905 8.29232 180.507 7.625C181.109 6.94141 181.923 6.59961 182.948 6.59961C183.925 6.59961 184.682 6.83561 185.219 7.30762C185.772 7.76335 186.049 8.43066 186.049 9.30957C186.049 9.7002 185.992 10.0501 185.878 10.3594C185.666 10.9453 185.325 11.3929 184.853 11.7021C185.243 11.8324 185.91 11.8975 186.854 11.8975C188.45 11.8975 189.866 11.4906 191.103 10.6768C192.584 9.71647 193.739 8.17025 194.569 6.03809H196.669C195.578 9.17936 194.122 11.4255 192.299 12.7764C190.688 13.9645 188.62 14.5586 186.098 14.5586ZM178.065 42.293C176.47 42.293 175.209 41.821 174.281 40.877C173.24 39.8353 172.719 38.3135 172.719 36.3115C172.719 35.3675 172.849 34.277 173.109 33.04L176.503 17H183.705L180.116 33.9922C180.019 34.4967 179.97 34.9688 179.97 35.4082C179.97 36.7754 180.466 37.459 181.459 37.459C182.37 37.459 183.192 37.0439 183.925 36.2139C184.511 35.514 185.023 34.4561 185.463 33.04L188.856 17H196.059L192.47 33.9922C192.323 34.4805 192.25 35.0176 192.25 35.6035C192.25 36.2871 192.413 36.7673 192.738 37.0439C193.064 37.3206 193.585 37.459 194.301 37.459C195.229 37.459 196.059 37.0439 196.791 36.2139C197.442 35.4814 197.963 34.4235 198.354 33.04H200.453C199.558 35.5791 198.476 37.5892 197.206 39.0703C196.132 40.291 194.919 41.1699 193.568 41.707C192.576 42.0977 191.526 42.293 190.419 42.293C188.987 42.293 187.847 41.8942 187.001 41.0967C186.155 40.2992 185.642 39.1191 185.463 37.5566C184.324 39.3796 183.038 40.6816 181.605 41.4629C180.58 42.0163 179.4 42.293 178.065 42.293ZM202.357 133.343C201.609 133.343 200.876 133.213 200.16 132.952C199.46 132.692 198.842 132.326 198.305 131.854C197.735 131.349 197.287 130.771 196.962 130.12C196.636 129.453 196.474 128.729 196.474 127.947C196.474 126.987 196.645 126.1 196.986 125.286C197.328 124.456 197.808 123.756 198.427 123.187C199.029 122.633 199.721 122.21 200.502 121.917C201.283 121.608 202.105 121.453 202.968 121.453C203.668 121.453 204.286 121.583 204.823 121.844L205.019 120.843L209.511 100.188L216.908 99.2119L211.464 124.847C211.22 125.888 211.008 126.67 210.829 127.19C211.659 127.89 212.636 128.24 213.759 128.24C214.719 128.24 215.631 127.939 216.493 127.337C217.372 126.735 218.178 125.88 218.91 124.773C220.294 122.706 221.4 119.923 222.23 116.424C222.995 113.12 223.378 109.726 223.378 106.243C223.378 102.988 222.711 100.563 221.376 98.9678C220.139 97.5192 218.373 96.7949 216.078 96.7949C214.206 96.7949 212.473 97.0716 210.878 97.625C209.283 98.1784 207.899 98.9759 206.728 100.018C205.523 101.092 204.595 102.386 203.944 103.899C203.293 105.413 202.968 107.098 202.968 108.953C202.968 110.027 203.09 110.857 203.334 111.443C203.399 111.655 203.48 111.842 203.578 112.005C203.643 112.119 203.676 112.233 203.676 112.347C201.918 112.347 200.583 111.989 199.672 111.272C198.777 110.54 198.329 109.352 198.329 107.708C198.329 106.585 198.549 105.478 198.988 104.388C199.428 103.281 200.062 102.231 200.893 101.238C201.706 100.262 202.683 99.3665 203.822 98.5527C204.978 97.7227 206.239 97.0065 207.606 96.4043C210.504 95.1348 213.604 94.5 216.908 94.5C221.449 94.5 224.892 95.9404 227.235 98.8213C228.261 100.091 229.018 101.588 229.506 103.313C230.01 105.039 230.263 106.902 230.263 108.904C230.263 110.776 230.092 112.672 229.75 114.593C229.424 116.513 228.952 118.369 228.334 120.159C227.715 121.917 226.975 123.561 226.112 125.091C225.266 126.604 224.33 127.923 223.305 129.046C222.247 130.201 221.132 131.097 219.96 131.731C218.804 132.35 217.624 132.659 216.42 132.659C215.264 132.659 214.149 132.431 213.075 131.976C211.822 131.455 210.683 130.633 209.657 129.51C208.762 130.91 207.598 131.927 206.166 132.562C205.043 133.082 203.773 133.343 202.357 133.343ZM201.21 128.899C201.812 128.899 202.357 128.623 202.846 128.069C203.448 127.402 203.887 126.377 204.164 124.993L204.408 123.748C203.904 123.423 203.407 123.26 202.919 123.26C202.479 123.26 202.032 123.366 201.576 123.577C201.137 123.772 200.746 124.049 200.404 124.407C200.046 124.765 199.753 125.197 199.525 125.701C199.314 126.189 199.208 126.702 199.208 127.239C199.208 127.728 199.395 128.126 199.77 128.436C200.144 128.745 200.624 128.899 201.21 128.899ZM238.319 132.293C235.862 132.293 233.965 131.674 232.631 130.438C231.215 129.119 230.507 127.093 230.507 124.358C230.507 123.333 230.613 122.194 230.824 120.94C231.02 119.687 231.321 118.434 231.728 117.181C232.183 115.781 232.761 114.454 233.461 113.201C234.177 111.948 235.007 110.841 235.951 109.881C238.132 107.667 240.818 106.561 244.008 106.561C246.042 106.561 247.523 107.049 248.451 108.025C249.167 108.79 249.525 109.897 249.525 111.346C249.525 112.762 249.216 114.096 248.598 115.35C247.979 116.587 247.125 117.685 246.034 118.646C244.944 119.59 243.707 120.346 242.323 120.916C240.94 121.469 239.507 121.795 238.026 121.893C237.945 122.739 237.904 123.406 237.904 123.895C237.904 125.522 238.214 126.645 238.832 127.264C239.369 127.817 240.264 128.094 241.518 128.094C243.324 128.094 244.976 127.605 246.474 126.629C247.108 126.222 247.719 125.742 248.305 125.188C248.891 124.619 249.574 123.903 250.355 123.04H252.064C250.486 125.709 248.671 127.833 246.62 129.412C244.097 131.333 241.33 132.293 238.319 132.293ZM238.417 119.5C239.345 119.435 240.248 119.166 241.127 118.694C242.006 118.222 242.787 117.604 243.471 116.839C244.154 116.058 244.691 115.187 245.082 114.227C245.473 113.25 245.668 112.257 245.668 111.248C245.668 110.581 245.57 110.076 245.375 109.734C245.196 109.376 244.879 109.197 244.423 109.197C243.821 109.197 243.21 109.49 242.592 110.076C241.99 110.662 241.404 111.468 240.834 112.493C240.313 113.453 239.841 114.544 239.418 115.765C238.995 116.985 238.661 118.23 238.417 119.5ZM268.495 132.293C266.575 132.293 265.093 131.756 264.052 130.682C263.58 130.21 263.222 129.656 262.978 129.021C262.733 128.37 262.611 127.695 262.611 126.995C262.611 126.377 262.701 125.538 262.88 124.48C263.075 123.423 263.368 121.925 263.759 119.988H258.217L255.653 132H248.451L253.749 107H260.951L258.803 117.01H264.394L266.664 107H273.354L270.717 119.402L269.838 123.26C269.61 124.269 269.496 124.969 269.496 125.359C269.496 126.759 270.163 127.459 271.498 127.459C272.003 127.459 272.442 127.378 272.816 127.215C273.191 127.036 273.541 126.759 273.866 126.385C274.159 126.043 274.436 125.62 274.696 125.115C274.973 124.611 275.307 123.919 275.697 123.04H277.797C275.697 129.209 272.597 132.293 268.495 132.293ZM282.899 132.293C281.744 132.293 280.702 132.146 279.774 131.854C278.847 131.561 278.065 131.137 277.431 130.584C276.78 130.047 276.275 129.38 275.917 128.582C275.575 127.785 275.404 126.889 275.404 125.896C275.404 124.806 275.518 123.854 275.746 123.04L279.14 107H286.342L284.657 115.105C285.699 114.666 286.651 114.381 287.514 114.251C288.132 114.153 288.84 114.104 289.638 114.104C290.631 114.104 291.526 114.251 292.323 114.544C293.137 114.837 293.821 115.268 294.374 115.838C294.927 116.408 295.351 117.116 295.644 117.962C295.953 118.792 296.107 119.72 296.107 120.745C296.107 121.461 295.993 122.243 295.766 123.089C295.554 123.935 295.237 124.773 294.813 125.604C293.804 127.524 292.388 129.062 290.565 130.218C288.433 131.601 285.878 132.293 282.899 132.293ZM284.657 128.045C285.276 128.045 285.878 127.833 286.464 127.41C287.066 126.971 287.603 126.385 288.075 125.652C288.515 124.952 288.865 124.196 289.125 123.382C289.402 122.552 289.54 121.771 289.54 121.038C289.54 120.029 289.312 119.24 288.856 118.67C288.401 118.084 287.733 117.791 286.854 117.791C286.48 117.791 285.976 117.889 285.341 118.084C284.657 118.279 284.177 118.483 283.9 118.694L282.655 124.603C282.558 124.83 282.509 125.115 282.509 125.457C282.509 125.783 282.509 125.962 282.509 125.994C282.509 127.361 283.225 128.045 284.657 128.045Z" fill="#31D0F2"/>
<path d="M195.863 95.3984C194.74 95.3984 193.438 95.2113 191.957 94.8369C190.476 94.4626 188.743 93.9255 186.757 93.2256C185.194 92.6885 183.339 92.013 181.19 91.1992C176.78 89.5391 172.873 88.3428 169.472 87.6104C167.551 87.2035 165.679 87 163.856 87C162.799 87 161.83 87.0163 160.951 87.0488C160.3 87.0977 159.82 87.1628 159.511 87.2441L159.315 87.293V87.1953C159.315 87.0977 159.332 87.0326 159.364 87L166.615 52.9912C164.369 53.9189 162.636 55.3105 161.415 57.166C160.211 59.0052 159.608 61.2513 159.608 63.9043C159.608 65.0111 159.73 65.8574 159.975 66.4434C160.023 66.6224 160.105 66.8014 160.219 66.9805C160.284 67.0944 160.316 67.2165 160.316 67.3467C158.542 67.3467 157.208 66.9967 156.312 66.2969C155.417 65.5807 154.97 64.4007 154.97 62.7568C154.97 61.6175 155.206 60.4863 155.678 59.3633C156.15 58.2402 156.817 57.1742 157.68 56.165C158.493 55.2048 159.462 54.3177 160.585 53.5039C161.724 52.6738 162.953 51.9577 164.271 51.3555C167.006 50.1185 169.732 49.5 172.45 49.5C173.231 49.5 173.915 49.5326 174.501 49.5977L167.299 83.3379C167.673 83.3379 167.95 83.3298 168.129 83.3135C168.308 83.2972 168.601 83.2891 169.008 83.2891C170.049 83.2891 171.4 83.46 173.061 83.8018L180.36 49.5977H187.562L179.97 85.291C182.444 85.877 184.454 86.3815 186 86.8047L193.91 49.5977H201.112L192.86 88.3428C195.188 88.8148 196.807 89.0508 197.719 89.0508C198.663 89.0508 199.485 88.9857 200.185 88.8555C200.884 88.7253 201.511 88.5055 202.064 88.1963C201.837 90.654 201.251 92.4525 200.307 93.5918C199.33 94.7962 197.849 95.3984 195.863 95.3984ZM207.094 87.293C205.189 87.293 203.651 86.6989 202.479 85.5107C201.112 84.111 200.429 82.0277 200.429 79.2607C200.429 78.0889 200.551 76.8519 200.795 75.5498C201.023 74.2477 201.365 72.9619 201.82 71.6924C202.862 68.8278 204.286 66.5166 206.093 64.7588C208.176 62.7568 210.577 61.7559 213.295 61.7559C214.646 61.7559 215.655 61.9919 216.322 62.4639C217.006 62.9196 217.348 63.5299 217.348 64.2949V64.6611L217.885 62H225.087L221.498 78.9922C221.352 79.4805 221.278 80.0176 221.278 80.6035C221.278 82.0358 221.962 82.752 223.329 82.752C224.241 82.752 225.071 82.2881 225.819 81.3604C226.454 80.5791 226.975 79.4723 227.382 78.04H229.481C228.586 80.5791 227.504 82.5892 226.234 84.0703C225.16 85.291 223.948 86.1699 222.597 86.707C221.604 87.0977 220.554 87.293 219.447 87.293C218.031 87.293 216.9 86.9105 216.054 86.1455C215.224 85.3643 214.719 84.2168 214.54 82.7031C213.596 84.0378 212.603 85.0794 211.562 85.8281C210.227 86.8047 208.738 87.293 207.094 87.293ZM210.341 82.459C210.715 82.459 211.106 82.3613 211.513 82.166C211.936 81.9707 212.343 81.694 212.733 81.3359C213.612 80.4896 214.198 79.391 214.491 78.04L216.884 66.7607C216.884 66.598 216.843 66.4108 216.762 66.1992C216.697 65.9714 216.599 65.7598 216.469 65.5645C216.078 65.0924 215.533 64.8564 214.833 64.8564C214.166 64.8564 213.515 65.0762 212.88 65.5156C212.261 65.9551 211.675 66.5654 211.122 67.3467C210.146 68.7627 209.34 70.61 208.705 72.8887C208.412 73.8978 208.192 74.8988 208.046 75.8916C207.899 76.8682 207.826 77.7552 207.826 78.5527C207.826 80.2129 208.135 81.3359 208.754 81.9219C208.965 82.1497 209.201 82.2962 209.462 82.3613C209.722 82.4264 210.015 82.459 210.341 82.459ZM234.56 87.293C232.102 87.293 230.206 86.6745 228.871 85.4375C227.455 84.1191 226.747 82.0928 226.747 79.3584C226.747 78.333 226.853 77.1937 227.064 75.9404C227.26 74.6709 227.569 73.4095 227.992 72.1562C228.985 69.1126 230.393 66.6875 232.216 64.8809C234.462 62.6673 237.123 61.5605 240.199 61.5605C242.201 61.5605 243.682 62.0407 244.643 63.001C245.391 63.766 245.766 64.8158 245.766 66.1504C245.766 67.3223 245.505 68.2337 244.984 68.8848C244.496 69.487 243.869 69.7881 243.104 69.7881C242.551 69.7881 241.965 69.5928 241.347 69.2021C241.754 68.1442 241.957 67.1595 241.957 66.248C241.957 65.6133 241.835 65.1169 241.591 64.7588C241.363 64.3844 241.021 64.1973 240.565 64.1973C239.589 64.1973 238.572 65.0599 237.514 66.7852C236.553 68.3151 235.756 70.2601 235.121 72.6201C234.47 74.9313 234.145 77.0228 234.145 78.8945C234.145 80.5221 234.454 81.6452 235.072 82.2637C235.609 82.8171 236.505 83.0938 237.758 83.0938C239.564 83.0938 241.216 82.6055 242.714 81.6289C243.349 81.222 243.959 80.7419 244.545 80.1885C245.131 79.6188 245.814 78.9027 246.596 78.04H248.305C246.726 80.7093 244.911 82.8333 242.86 84.4121C240.338 86.3327 237.571 87.293 234.56 87.293ZM250.185 87.293C248.362 87.293 246.962 86.6989 245.985 85.5107C245.562 85.0062 245.245 84.4202 245.033 83.7529C244.805 83.0693 244.691 82.3695 244.691 81.6533C244.691 80.4652 244.968 79.5049 245.521 78.7725C246.075 78.0238 246.832 77.6494 247.792 77.6494C248.573 77.6494 249.2 77.8936 249.672 78.3818C250.16 78.8538 250.404 79.4805 250.404 80.2617C250.404 80.9779 250.233 81.5475 249.892 81.9707C249.566 82.3776 249.159 82.5811 248.671 82.5811C248.557 82.5811 248.467 82.5729 248.402 82.5566C248.435 83.0124 248.573 83.3623 248.817 83.6064C249.143 83.9645 249.656 84.1436 250.355 84.1436C251.137 84.1436 251.78 83.8913 252.284 83.3867C252.789 82.8822 253.22 82.1497 253.578 81.1895C253.92 80.2129 254.205 79.1712 254.433 78.0645C254.595 77.1367 254.791 76.1846 255.019 75.208L255.189 74.4023C255.71 71.847 256.288 69.7555 256.923 68.1279C257.574 66.5003 258.306 65.2227 259.12 64.2949C259.853 63.4323 260.674 62.8382 261.586 62.5127C262.514 62.1709 263.58 62 264.784 62H272.157L269.496 74.4023L268.617 78.2598C268.406 79.2038 268.3 79.9036 268.3 80.3594C268.3 81.7591 268.967 82.459 270.302 82.459C270.79 82.459 271.221 82.3776 271.596 82.2148C271.97 82.0358 272.32 81.7591 272.646 81.3848C272.938 81.043 273.223 80.6117 273.5 80.0908C273.793 79.57 274.127 78.8864 274.501 78.04H276.601C274.501 84.2087 271.4 87.293 267.299 87.293C265.395 87.293 263.905 86.7559 262.831 85.6816C262.359 85.2096 262.001 84.6562 261.757 84.0215C261.513 83.3704 261.391 82.695 261.391 81.9951C261.391 80.5954 261.757 78.333 262.489 75.208L264.687 65.2959C263.808 65.2959 263.059 65.4749 262.44 65.833C261.822 66.1911 261.277 66.7526 260.805 67.5176C260.349 68.25 259.934 69.2021 259.56 70.374C259.185 71.5459 258.795 73.0514 258.388 74.8906L258.29 75.3789C257.785 77.7389 257.354 79.5537 256.996 80.8232C256.654 82.0928 256.239 83.1751 255.751 84.0703C255.149 85.1608 254.4 85.9746 253.505 86.5117C252.626 87.0326 251.519 87.293 250.185 87.293ZM279.481 87.293C277.886 87.293 276.625 86.821 275.697 85.877C274.656 84.8353 274.135 83.3135 274.135 81.3115C274.135 80.3675 274.265 79.277 274.525 78.04L277.919 62H285.121L281.532 78.9922C281.435 79.4967 281.386 79.9688 281.386 80.4082C281.386 81.7754 281.882 82.459 282.875 82.459C283.786 82.459 284.608 82.0439 285.341 81.2139C285.927 80.514 286.439 79.4561 286.879 78.04L290.272 62H297.475L293.886 78.9922C293.739 79.4805 293.666 80.0176 293.666 80.6035C293.666 81.2871 293.829 81.7673 294.154 82.0439C294.48 82.3206 295.001 82.459 295.717 82.459C296.645 82.459 297.475 82.0439 298.207 81.2139C298.858 80.4814 299.379 79.4235 299.77 78.04H301.869C300.974 80.5791 299.892 82.5892 298.622 84.0703C297.548 85.291 296.335 86.1699 294.984 86.707C293.992 87.0977 292.942 87.293 291.835 87.293C290.403 87.293 289.263 86.8942 288.417 86.0967C287.571 85.2992 287.058 84.1191 286.879 82.5566C285.74 84.3796 284.454 85.6816 283.021 86.4629C281.996 87.0163 280.816 87.293 279.481 87.293ZM307.362 87.1953C304.628 87.1953 302.528 86.349 301.063 84.6562C299.729 83.11 299.062 80.9616 299.062 78.2109C299.062 77.3158 299.167 76.2171 299.379 74.915C299.574 73.5967 299.859 72.1807 300.233 70.667C301.047 67.4118 302.13 64.2298 303.48 61.1211C304.978 57.7031 306.622 54.9688 308.412 52.918C310.43 50.6068 312.481 49.4512 314.564 49.4512C316.306 49.4512 317.641 49.972 318.568 51.0137C319.561 52.153 320.058 53.9189 320.058 56.3115C320.058 58.1995 319.594 60.3398 318.666 62.7324C317.966 64.5391 317.071 66.3945 315.98 68.2988C316.68 68.6406 317.307 69.137 317.86 69.7881C319.309 69.7881 320.953 69.4463 322.792 68.7627C324.436 68.1768 325.844 67.4688 327.016 66.6387L327.479 68.0059C326.552 68.9824 325.355 69.8288 323.891 70.5449C322.426 71.2448 320.798 71.7493 319.008 72.0586C319.187 72.6771 319.276 73.5072 319.276 74.5488C319.276 76.209 319.008 77.7959 318.471 79.3096C317.934 80.8232 317.152 82.166 316.127 83.3379C315.069 84.5586 313.791 85.5107 312.294 86.1943C310.813 86.8617 309.169 87.1953 307.362 87.1953ZM309.56 82.7031C310.341 82.7031 311.057 82.4997 311.708 82.0928C312.359 81.6859 312.912 81.1243 313.368 80.4082C313.808 79.7409 314.141 79.0003 314.369 78.1865C314.597 77.3564 314.711 76.5264 314.711 75.6963C314.711 74.4593 314.564 73.5479 314.271 72.9619C313.946 73.0758 313.669 73.1572 313.441 73.2061C313.23 73.2386 312.904 73.2549 312.465 73.2549C311.667 73.2549 311.033 73.0352 310.561 72.5957C310.105 72.1562 309.877 71.554 309.877 70.7891C309.877 69.7962 310.211 69.0475 310.878 68.543C311.415 68.1361 312.245 67.8919 313.368 67.8105C314.263 66.1992 315.069 64.3031 315.785 62.1221C316.501 59.8923 316.859 57.8822 316.859 56.0918C316.859 55.0827 316.729 54.3747 316.469 53.9678C316.225 53.5609 315.81 53.3574 315.224 53.3574C314.703 53.3574 314.174 53.6341 313.637 54.1875C313.1 54.7409 312.571 55.514 312.05 56.5068C311.106 58.346 310.178 60.7956 309.267 63.8555C308.485 66.4434 307.818 69.2266 307.265 72.2051C306.76 74.8743 306.508 76.9251 306.508 78.3574C306.508 79.7083 306.744 80.75 307.216 81.4824C307.72 82.2962 308.502 82.7031 309.56 82.7031ZM327.187 87.293C325.591 87.293 324.33 86.821 323.402 85.877C322.361 84.8353 321.84 83.3135 321.84 81.3115C321.84 80.3675 321.97 79.277 322.23 78.04L325.624 62H332.826L329.237 78.9922C329.14 79.4967 329.091 79.9688 329.091 80.4082C329.091 81.7754 329.587 82.459 330.58 82.459C331.492 82.459 332.313 82.0439 333.046 81.2139C333.632 80.514 334.145 79.4561 334.584 78.04L337.978 62H345.18L341.591 78.9922C341.444 79.4805 341.371 80.0176 341.371 80.6035C341.371 81.2871 341.534 81.7673 341.859 82.0439C342.185 82.3206 342.706 82.459 343.422 82.459C344.35 82.459 345.18 82.0439 345.912 81.2139C346.563 80.4814 347.084 79.4235 347.475 78.04H349.574C348.679 80.5791 347.597 82.5892 346.327 84.0703C345.253 85.291 344.04 86.1699 342.689 86.707C341.697 87.0977 340.647 87.293 339.54 87.293C338.108 87.293 336.968 86.8942 336.122 86.0967C335.276 85.2992 334.763 84.1191 334.584 82.5566C333.445 84.3796 332.159 85.6816 330.727 86.4629C329.701 87.0163 328.521 87.293 327.187 87.293ZM360.463 59.5586C358.396 59.5586 356.793 59.1761 355.653 58.4111C354.53 57.6462 353.969 56.5964 353.969 55.2617C353.969 54.1712 354.27 53.2923 354.872 52.625C355.474 51.9414 356.288 51.5996 357.313 51.5996C358.29 51.5996 359.047 51.8356 359.584 52.3076C360.137 52.7633 360.414 53.4307 360.414 54.3096C360.414 54.7002 360.357 55.0501 360.243 55.3594C360.032 55.9453 359.69 56.3929 359.218 56.7021C359.608 56.8324 360.276 56.8975 361.22 56.8975C362.815 56.8975 364.231 56.4906 365.468 55.6768C366.949 54.7165 368.104 53.1702 368.935 51.0381H371.034C369.944 54.1794 368.487 56.4255 366.664 57.7764C365.053 58.9645 362.986 59.5586 360.463 59.5586ZM352.431 87.293C350.836 87.293 349.574 86.821 348.646 85.877C347.605 84.8353 347.084 83.3135 347.084 81.3115C347.084 80.3675 347.214 79.277 347.475 78.04L350.868 62H358.07L354.481 78.9922C354.384 79.4967 354.335 79.9688 354.335 80.4082C354.335 81.7754 354.831 82.459 355.824 82.459C356.736 82.459 357.558 82.0439 358.29 81.2139C358.876 80.514 359.389 79.4561 359.828 78.04L363.222 62H370.424L366.835 78.9922C366.688 79.4805 366.615 80.0176 366.615 80.6035C366.615 81.2871 366.778 81.7673 367.104 82.0439C367.429 82.3206 367.95 82.459 368.666 82.459C369.594 82.459 370.424 82.0439 371.156 81.2139C371.807 80.4814 372.328 79.4235 372.719 78.04H374.818C373.923 80.5791 372.841 82.5892 371.571 84.0703C370.497 85.291 369.285 86.1699 367.934 86.707C366.941 87.0977 365.891 87.293 364.784 87.293C363.352 87.293 362.213 86.8942 361.366 86.0967C360.52 85.2992 360.007 84.1191 359.828 82.5566C358.689 84.3796 357.403 85.6816 355.971 86.4629C354.945 87.0163 353.765 87.293 352.431 87.293Z" fill="#FFC803"/>
</g>
<path fill-rule="evenodd" clip-rule="evenodd" d="M75.9364 157.612L88.5732 152.878L99.3918 150.465L108.1 149.604L117.232 149.757L132.114 92.0065C132.905 92.0754 133.705 91.9891 134.478 91.7439C138.561 90.4495 140.53 85.1386 138.86 79.8709C137.194 74.6171 132.531 71.3939 128.438 72.6916C124.355 73.9859 122.386 79.2968 124.056 84.5645C124.714 86.6384 125.834 88.3829 127.2 89.6694L122.12 100.197C115.004 114.93 106.624 111.805 103.134 93.5262L101.172 83.2383C101.611 83.2056 102.054 83.1109 102.484 82.9746C106.566 81.6803 108.536 76.3694 106.865 71.1017C105.2 65.8478 100.536 62.6247 96.4432 63.9224C92.361 65.2167 90.3916 70.5276 92.0618 75.7953C93.013 78.7955 94.9485 81.1338 97.1875 82.3411L96.534 86.6566C93.0462 106.904 84.2942 102.345 76.1919 86.0004L62.5511 59.4219C64.7443 57.1289 65.5439 53.1626 64.2902 49.2084C62.6244 43.9545 57.961 40.7314 53.868 42.0291C49.7858 43.3234 47.8164 48.6343 49.4866 53.902C50.8806 58.2987 54.3607 61.2579 57.8483 61.3694L59.8522 78.3541C61.839 93.8682 67.9155 124.108 45.5885 103.768L41.9295 100.394C43.24 98.0762 43.5597 94.8708 42.5515 91.6908C40.8857 86.4369 36.2223 83.2138 32.1293 84.5115C28.0471 85.8058 26.0777 91.1167 27.7479 96.3844C29.4137 101.638 34.077 104.861 38.17 103.564C38.7394 103.383 39.2717 103.123 39.7562 102.787L42.302 109.101C46.07 117.629 51.0973 129.197 43.0323 131.13C39.0343 132.093 37.0189 130.846 33.1645 129.055L22.1667 123.975C22.6143 122.068 22.548 119.883 21.8554 117.699C20.1896 112.445 15.5263 109.222 11.4333 110.519C7.35101 111.814 5.38165 117.124 7.05182 122.392C8.722 127.66 13.381 130.869 17.474 129.572C18.4408 129.265 19.2794 128.74 19.9922 128.043L64.6535 166.137L69.3334 161.895L75.9364 157.612Z" fill="#FFC803"/>
</g>
<defs>
<filter id="filter0_d_541_2" x="105.293" y="4.45117" width="269.525" height="134.893" filterUnits="userSpaceOnUse" color-interpolation-filters="sRGB">
<feFlood flood-opacity="0" result="BackgroundImageFix"/>
<feColorMatrix in="SourceAlpha" type="matrix" values="0 0 0 0 0 0 0 0 0 0 0 0 0 0 0 0 0 0 127 0" result="hardAlpha"/>
<feOffset dx="-3" dy="3"/>
<feGaussianBlur stdDeviation="1.5"/>
<feComposite in2="hardAlpha" operator="out"/>
<feColorMatrix type="matrix" values="0 0 0 0 0 0 0 0 0 0 0 0 0 0 0 0 0 0 0.28 0"/>
<feBlend mode="normal" in2="BackgroundImageFix" result="effect1_dropShadow_541_2"/>
<feBlend mode="normal" in="SourceGraphic" in2="effect1_dropShadow_541_2" result="shape"/>
</filter>
<clipPath id="clip0_541_2">
<rect width="382" height="179" fill="white"/>
</clipPath>
</defs>
</svg>
